<?xml version="1.0" encoding="UTF-8"?>
<!DOCTYPE svg PUBLIC "-//W3C//DTD SVG 1.1//EN" "http://www.w3.org/Graphics/SVG/1.1/DTD/svg11.dtd">
<svg xmlns="http://www.w3.org/2000/svg" version="1.1" width="830px" height="209px" style="shape-rendering:geometricPrecision; text-rendering:geometricPrecision; image-rendering:optimizeQuality; fill-rule:evenodd; clip-rule:evenodd" xmlns:xlink="http://www.w3.org/1999/xlink">
<g><path style="opacity:1" fill="#0b1e2f" d="M -0.5,-0.5 C 276.167,-0.5 552.833,-0.5 829.5,-0.5C 829.5,69.1667 829.5,138.833 829.5,208.5C 552.833,208.5 276.167,208.5 -0.5,208.5C -0.5,138.833 -0.5,69.1667 -0.5,-0.5 Z"/></g>
<g><path style="opacity:1" fill="#03ced2" d="M 113.5,36.5 C 124.321,35.5054 135.321,35.1721 146.5,35.5C 164.503,35.3334 182.503,35.5001 200.5,36C 199.956,36.7172 199.289,37.2172 198.5,37.5C 170.338,36.502 142.005,36.1687 113.5,36.5 Z"/></g>
<g><path style="opacity:1" fill="#00f9fa" d="M 113.5,36.5 C 142.005,36.1687 170.338,36.502 198.5,37.5C 185.676,48.759 173.009,60.259 160.5,72C 154.509,72.4995 148.509,72.6662 142.5,72.5C 140.856,70.5193 139.19,68.5193 137.5,66.5C 143.988,65.8332 150.321,65.1666 156.5,64.5C 164.296,57.8744 171.962,51.0411 179.5,44C 157.167,43.3333 134.833,43.3333 112.5,44C 110.482,44.5046 108.482,45.0046 106.5,45.5C 103.438,44.7322 101.772,42.7322 101.5,39.5C 105.279,37.686 109.279,36.686 113.5,36.5 Z"/></g>
<g><path style="opacity:1" fill="#fafafb" d="M 246.5,47.5 C 262.5,47.5 278.5,47.5 294.5,47.5C 294.5,51.1667 294.5,54.8333 294.5,58.5C 280.5,58.5 266.5,58.5 252.5,58.5C 252.179,70.4139 252.512,82.2473 253.5,94C 267.163,94.4999 280.829,94.6666 294.5,94.5C 294.5,98.1667 294.5,101.833 294.5,105.5C 280.829,105.667 267.163,105.5 253.5,105C 251.359,104.427 249.359,103.594 247.5,102.5C 244.393,99.96 242.56,96.6267 242,92.5C 241.333,78.8333 241.333,65.1667 242,51.5C 242.792,49.3563 244.292,48.023 246.5,47.5 Z"/></g>
<g><path style="opacity:1" fill="#fbfbfb" d="M 348.5,47.5 C 353.167,47.5 357.833,47.5 362.5,47.5C 362.5,51.1667 362.5,54.8333 362.5,58.5C 357.833,58.5 353.167,58.5 348.5,58.5C 345.5,58.5 342.5,58.5 339.5,58.5C 339.5,74.1667 339.5,89.8333 339.5,105.5C 335.833,105.5 332.167,105.5 328.5,105.5C 328.5,89.8333 328.5,74.1667 328.5,58.5C 320.833,58.5 313.167,58.5 305.5,58.5C 305.5,54.8333 305.5,51.1667 305.5,47.5C 319.833,47.5 334.167,47.5 348.5,47.5 Z"/></g>
<g><path style="opacity:1" fill="#f7f8f8" d="M 375.5,89.5 C 375.5,85.5 375.5,81.5 375.5,77.5C 375.5,67.5 375.5,57.5 375.5,47.5C 379.167,47.5 382.833,47.5 386.5,47.5C 386.5,55.5 386.5,63.5 386.5,71.5C 398.5,71.5 410.5,71.5 422.5,71.5C 422.5,63.5 422.5,55.5 422.5,47.5C 426.167,47.5 429.833,47.5 433.5,47.5C 433.5,66.8333 433.5,86.1667 433.5,105.5C 429.833,105.5 426.167,105.5 422.5,105.5C 422.5,97.5 422.5,89.5 422.5,81.5C 410.5,81.5 398.5,81.5 386.5,81.5C 386.5,89.5 386.5,97.5 386.5,105.5C 382.833,105.5 379.167,105.5 375.5,105.5C 375.5,100.167 375.5,94.8333 375.5,89.5 Z"/></g>
<g><path style="opacity:1" fill="#fcfcfc" d="M 580.5,77.5 C 583.07,82.485 584.07,87.8183 583.5,93.5C 581.275,99.5497 576.942,103.383 570.5,105C 555.837,105.5 541.17,105.667 526.5,105.5C 526.5,101.833 526.5,98.1667 526.5,94.5C 541.17,94.6666 555.837,94.4999 570.5,94C 574.802,89.2032 574.136,85.2032 568.5,82C 558.167,81.6667 547.833,81.3333 537.5,81C 527.452,76.7305 523.952,69.2305 527,58.5C 529.332,52.8356 533.499,49.3356 539.5,48C 552.496,47.5001 565.496,47.3334 578.5,47.5C 578.5,51.1667 578.5,54.8333 578.5,58.5C 565.496,58.3334 552.496,58.5001 539.5,59C 535.346,63.399 535.679,67.399 540.5,71C 550.833,71.3333 561.167,71.6667 571.5,72C 575.157,72.8371 578.157,74.6704 580.5,77.5 Z"/></g>
<g><path style="opacity:1" fill="#00dee7" d="M 101.5,39.5 C 101.772,42.7322 103.438,44.7322 106.5,45.5C 99.8922,48.5851 94.2256,53.0851 89.5,59C 86.5,59.6667 83.5,59.6667 80.5,59C 85.7617,50.5696 92.7617,44.0696 101.5,39.5 Z"/></g>
<g><path style="opacity:1" fill="#00eaf0" d="M 101.5,64.5 C 119.833,64.5 138.167,64.5 156.5,64.5C 150.321,65.1666 143.988,65.8332 137.5,66.5C 139.19,68.5193 140.856,70.5193 142.5,72.5C 124.833,72.5 107.167,72.5 89.5,72.5C 88.4322,69.9248 86.7655,67.7581 84.5,66C 90.3482,65.8272 96.0149,65.3272 101.5,64.5 Z"/></g>
<g><path style="opacity:1" fill="#00cfdd" d="M 101.5,64.5 C 96.0149,65.3272 90.3482,65.8272 84.5,66C 86.7655,67.7581 88.4322,69.9248 89.5,72.5C 81.6312,71.9679 74.2979,73.6346 67.5,77.5C 65.7484,75.7541 64.4151,73.7541 63.5,71.5C 68.3025,68.2816 73.6359,66.115 79.5,65C 86.8258,64.5003 94.1591,64.3337 101.5,64.5 Z"/></g>
<g><path style="opacity:1" fill="#fefffe" d="M 256.5,71.5 C 267.5,71.5 278.5,71.5 289.5,71.5C 289.5,74.8333 289.5,78.1667 289.5,81.5C 278.5,81.5 267.5,81.5 256.5,81.5C 256.5,78.1667 256.5,74.8333 256.5,71.5 Z"/></g>
<g><path style="opacity:1" fill="#00b5cc" d="M 63.5,71.5 C 64.4151,73.7541 65.7484,75.7541 67.5,77.5C 61.7008,81.4224 57.0341,86.4224 53.5,92.5C 51.5,91.1667 49.8333,89.5 48.5,87.5C 52.0958,80.9025 57.0958,75.5692 63.5,71.5 Z"/></g>
<g><path style="opacity:1" fill="#0b1e2f" d="M 246.5,47.5 C 244.292,48.023 242.792,49.3563 242,51.5C 241.333,65.1667 241.333,78.8333 242,92.5C 242.56,96.6267 244.393,99.96 247.5,102.5C 246.506,112.653 246.172,122.986 246.5,133.5C 227.833,133.5 209.167,133.5 190.5,133.5C 192.86,130.473 195.527,127.806 198.5,125.5C 199.289,125.217 199.956,124.717 200.5,124C 159.331,123.169 118.331,123.335 77.5,124.5C 75.7073,126.426 74.7073,128.759 74.5,131.5C 81.5,131.5 88.5,131.5 95.5,131.5C 105.167,131.5 114.833,131.5 124.5,131.5C 138.5,131.5 152.5,131.5 166.5,131.5C 170.846,131.334 175.179,131.501 179.5,132C 177.294,134.037 175.294,136.203 173.5,138.5C 167.186,143.81 160.853,149.144 154.5,154.5C 141.833,154.5 129.167,154.5 116.5,154.5C 108.167,154.5 99.8333,154.5 91.5,154.5C 73.3195,155.313 65.6529,146.646 68.5,128.5C 71.3648,121.436 75.6981,115.436 81.5,110.5C 89.2021,104.822 97.8687,102.156 107.5,102.5C 113.842,102.666 120.175,102.5 126.5,102C 128.647,99.7632 130.98,97.7632 133.5,96C 123.172,95.5002 112.839,95.3335 102.5,95.5C 91.4142,95.0783 85.0808,89.4116 83.5,78.5C 80.5178,78.1044 77.8511,78.7711 75.5,80.5C 76.5623,88.0445 80.229,93.8778 86.5,98C 82.4031,100.37 78.7365,103.203 75.5,106.5C 69.6473,110.365 65.6473,115.698 63.5,122.5C 58.5071,134.074 59.8405,144.907 67.5,155C 73.8861,160.184 81.2194,162.684 89.5,162.5C 89.5,167.833 89.5,173.167 89.5,178.5C 74.8333,178.5 60.1667,178.5 45.5,178.5C 45.5,163.833 45.5,149.167 45.5,134.5C 64.1667,134.167 64.1667,133.833 45.5,133.5C 45.5,128.5 45.5,123.5 45.5,118.5C 47.4506,122.451 50.4506,125.451 54.5,127.5C 56.1463,126.098 57.1463,124.264 57.5,122C 49.8236,113.088 48.4903,103.255 53.5,92.5C 57.0341,86.4224 61.7008,81.4224 67.5,77.5C 74.2979,73.6346 81.6312,71.9679 89.5,72.5C 107.167,72.5 124.833,72.5 142.5,72.5C 148.509,72.6662 154.509,72.4995 160.5,72C 173.009,60.259 185.676,48.759 198.5,37.5C 199.289,37.2172 199.956,36.7172 200.5,36C 182.503,35.5001 164.503,35.3334 146.5,35.5C 179.483,33.507 212.817,32.8403 246.5,33.5C 246.5,38.1667 246.5,42.8333 246.5,47.5 Z"/></g>
<g><path style="opacity:1" fill="#00c8d8" d="M 102.5,95.5 C 104.412,97.6572 106.079,99.9906 107.5,102.5C 97.8687,102.156 89.2021,104.822 81.5,110.5C 79.2459,109.585 77.2459,108.252 75.5,106.5C 78.7365,103.203 82.4031,100.37 86.5,98C 80.229,93.8778 76.5623,88.0445 75.5,80.5C 77.8511,78.7711 80.5178,78.1044 83.5,78.5C 85.0808,89.4116 91.4142,95.0783 102.5,95.5 Z"/></g>
<g><path style="opacity:1" fill="#0c1e2f" d="M 580.5,77.5 C 578.157,74.6704 575.157,72.8371 571.5,72C 561.167,71.6667 550.833,71.3333 540.5,71C 535.679,67.399 535.346,63.399 539.5,59C 552.496,58.5001 565.496,58.3334 578.5,58.5C 578.5,54.8333 578.5,51.1667 578.5,47.5C 565.496,47.3334 552.496,47.5001 539.5,48C 533.499,49.3356 529.332,52.8356 527,58.5C 523.952,69.2305 527.452,76.7305 537.5,81C 547.833,81.3333 558.167,81.6667 568.5,82C 574.136,85.2032 574.802,89.2032 570.5,94C 555.837,94.4999 541.17,94.6666 526.5,94.5C 526.5,98.1667 526.5,101.833 526.5,105.5C 541.17,105.667 555.837,105.5 570.5,105C 576.942,103.383 581.275,99.5497 583.5,93.5C 583.5,106.833 583.5,120.167 583.5,133.5C 505.167,133.5 426.833,133.5 348.5,133.5C 348.5,118.833 348.5,104.167 348.5,89.5C 357.5,89.5 366.5,89.5 375.5,89.5C 375.5,94.8333 375.5,100.167 375.5,105.5C 379.167,105.5 382.833,105.5 386.5,105.5C 386.5,97.5 386.5,89.5 386.5,81.5C 398.5,81.5 410.5,81.5 422.5,81.5C 422.5,89.5 422.5,97.5 422.5,105.5C 426.167,105.5 429.833,105.5 433.5,105.5C 433.5,86.1667 433.5,66.8333 433.5,47.5C 429.833,47.5 426.167,47.5 422.5,47.5C 422.5,55.5 422.5,63.5 422.5,71.5C 410.5,71.5 398.5,71.5 386.5,71.5C 386.5,63.5 386.5,55.5 386.5,47.5C 382.833,47.5 379.167,47.5 375.5,47.5C 375.5,57.5 375.5,67.5 375.5,77.5C 366.5,77.5 357.5,77.5 348.5,77.5C 348.5,71.1667 348.5,64.8333 348.5,58.5C 353.167,58.5 357.833,58.5 362.5,58.5C 362.5,54.8333 362.5,51.1667 362.5,47.5C 357.833,47.5 353.167,47.5 348.5,47.5C 348.5,42.8333 348.5,38.1667 348.5,33.5C 426.833,33.5 505.167,33.5 583.5,33.5C 583.5,48.1667 583.5,62.8333 583.5,77.5C 582.5,77.5 581.5,77.5 580.5,77.5 Z"/></g>
<g><path style="opacity:1" fill="#fafbfb" d="M 470.5,46.5 C 506.843,43.4916 519.676,59.4916 509,94.5C 504.639,101.187 498.472,105.02 490.5,106C 457.656,110.155 444.489,95.9887 451,63.5C 454.294,54.0327 460.794,48.3661 470.5,46.5 Z"/></g>
<g><path style="opacity:1" fill="#0c1e2f" d="M 469.5,57.5 C 495.096,51.2706 505.596,60.9373 501,86.5C 499.5,90.6667 496.667,93.5 492.5,95C 464.962,101.13 454.795,90.6303 462,63.5C 464.134,60.8474 466.634,58.8474 469.5,57.5 Z"/></g>
<g><path style="opacity:1" fill="#00dce7" d="M 102.5,95.5 C 112.839,95.3335 123.172,95.5002 133.5,96C 130.98,97.7632 128.647,99.7632 126.5,102C 120.175,102.5 113.842,102.666 107.5,102.5C 106.079,99.9906 104.412,97.6572 102.5,95.5 Z"/></g>
<g><path style="opacity:1" fill="#0095b6" d="M 48.5,87.5 C 49.8333,89.5 51.5,91.1667 53.5,92.5C 48.4903,103.255 49.8236,113.088 57.5,122C 57.1463,124.264 56.1463,126.098 54.5,127.5C 50.4506,125.451 47.4506,122.451 45.5,118.5C 40.9978,107.536 41.9978,97.2028 48.5,87.5 Z"/></g>
<g><path style="opacity:1" fill="#00a3c0" d="M 75.5,106.5 C 77.2459,108.252 79.2459,109.585 81.5,110.5C 75.6981,115.436 71.3648,121.436 68.5,128.5C 66.086,127.089 64.4194,125.089 63.5,122.5C 65.6473,115.698 69.6473,110.365 75.5,106.5 Z"/></g>
<g><path style="opacity:1" fill="#068492" d="M 77.5,124.5 C 118.331,123.335 159.331,123.169 200.5,124C 199.956,124.717 199.289,125.217 198.5,125.5C 186.011,124.505 173.344,124.171 160.5,124.5C 146.833,124.5 133.167,124.5 119.5,124.5C 109.833,124.5 100.167,124.5 90.5,124.5C 86.1667,124.5 81.8333,124.5 77.5,124.5 Z"/></g>
<g><path style="opacity:1" fill="#00afc8" d="M 77.5,124.5 C 81.8333,124.5 86.1667,124.5 90.5,124.5C 91.7536,127.093 93.4202,129.427 95.5,131.5C 88.5,131.5 81.5,131.5 74.5,131.5C 74.7073,128.759 75.7073,126.426 77.5,124.5 Z"/></g>
<g><path style="opacity:1" fill="#00c5d7" d="M 90.5,124.5 C 100.167,124.5 109.833,124.5 119.5,124.5C 121.555,126.555 123.221,128.888 124.5,131.5C 114.833,131.5 105.167,131.5 95.5,131.5C 93.4202,129.427 91.7536,127.093 90.5,124.5 Z"/></g>
<g><path style="opacity:1" fill="#00dee8" d="M 119.5,124.5 C 133.167,124.5 146.833,124.5 160.5,124.5C 162.5,126.833 164.5,129.167 166.5,131.5C 152.5,131.5 138.5,131.5 124.5,131.5C 123.221,128.888 121.555,126.555 119.5,124.5 Z"/></g>
<g><path style="opacity:1" fill="#00ecf1" d="M 160.5,124.5 C 173.344,124.171 186.011,124.505 198.5,125.5C 195.527,127.806 192.86,130.473 190.5,133.5C 186.208,136.457 182.208,139.79 178.5,143.5C 175.833,142.833 174.167,141.167 173.5,138.5C 175.294,136.203 177.294,134.037 179.5,132C 175.179,131.501 170.846,131.334 166.5,131.5C 164.5,129.167 162.5,126.833 160.5,124.5 Z"/></g>
<g><path style="opacity:1" fill="#008aae" d="M 63.5,122.5 C 64.4194,125.089 66.086,127.089 68.5,128.5C 65.6529,146.646 73.3195,155.313 91.5,154.5C 94.2585,159.295 98.2585,161.962 103.5,162.5C 98.8333,162.5 94.1667,162.5 89.5,162.5C 81.2194,162.684 73.8861,160.184 67.5,155C 59.8405,144.907 58.5071,134.074 63.5,122.5 Z"/></g>
<g><path style="opacity:1" fill="#0c1f30" d="M 584.5,165.5 C 583.515,169.634 583.182,173.968 583.5,178.5C 505.167,178.5 426.833,178.5 348.5,178.5C 348.5,163.833 348.5,149.167 348.5,134.5C 427.213,133.838 505.713,134.505 584,136.5C 617.277,134.511 650.777,133.844 684.5,134.5C 684.5,149.167 684.5,163.833 684.5,178.5C 651.167,178.5 617.833,178.5 584.5,178.5C 584.5,174.167 584.5,169.833 584.5,165.5 Z"/></g>
<g><path style="opacity:1" fill="#00f6f7" d="M 239.5,137.5 C 247.833,137.5 256.167,137.5 264.5,137.5C 264.5,139.167 264.5,140.833 264.5,142.5C 257.833,142.5 251.167,142.5 244.5,142.5C 244.5,148.5 244.5,154.5 244.5,160.5C 251.167,160.5 257.833,160.5 264.5,160.5C 264.5,162.167 264.5,163.833 264.5,165.5C 257.492,165.666 250.492,165.5 243.5,165C 242.069,164.535 240.903,163.701 240,162.5C 238.201,154.197 238.035,145.864 239.5,137.5 Z"/></g>
<g><path style="opacity:1" fill="#00fdfd" d="M 276.5,137.5 C 285.5,137.5 294.5,137.5 303.5,137.5C 303.5,139.167 303.5,140.833 303.5,142.5C 299.833,142.5 296.167,142.5 292.5,142.5C 292.5,150.167 292.5,157.833 292.5,165.5C 290.833,165.5 289.167,165.5 287.5,165.5C 287.5,157.833 287.5,150.167 287.5,142.5C 283.833,142.5 280.167,142.5 276.5,142.5C 276.5,140.833 276.5,139.167 276.5,137.5 Z"/></g>
<g><path style="opacity:1" fill="#00fdfd" d="M 316.5,137.5 C 318.167,137.5 319.833,137.5 321.5,137.5C 321.5,141.167 321.5,144.833 321.5,148.5C 327.5,148.5 333.5,148.5 339.5,148.5C 339.5,144.833 339.5,141.167 339.5,137.5C 341.167,137.5 342.833,137.5 344.5,137.5C 344.5,146.833 344.5,156.167 344.5,165.5C 342.833,165.5 341.167,165.5 339.5,165.5C 339.5,161.5 339.5,157.5 339.5,153.5C 333.5,153.5 327.5,153.5 321.5,153.5C 321.5,157.5 321.5,161.5 321.5,165.5C 319.833,165.5 318.167,165.5 316.5,165.5C 316.5,156.167 316.5,146.833 316.5,137.5 Z"/></g>
<g><path style="opacity:1" fill="#00fdfd" d="M 359.5,137.5 C 361.167,137.5 362.833,137.5 364.5,137.5C 364.5,146.833 364.5,156.167 364.5,165.5C 362.833,165.5 361.167,165.5 359.5,165.5C 359.5,156.167 359.5,146.833 359.5,137.5 Z"/></g>
<g><path style="opacity:1" fill="#00fcfc" d="M 382.5,137.5 C 389.833,137.5 397.167,137.5 404.5,137.5C 404.5,139.167 404.5,140.833 404.5,142.5C 397.825,142.334 391.158,142.5 384.5,143C 383.167,148.667 383.167,154.333 384.5,160C 391.158,160.5 397.825,160.666 404.5,160.5C 404.5,162.167 404.5,163.833 404.5,165.5C 397.492,165.666 390.492,165.5 383.5,165C 382.069,164.535 380.903,163.701 380,162.5C 378.414,155.943 378.08,149.276 379,142.5C 379.697,140.416 380.864,138.749 382.5,137.5 Z"/></g>
<g><path style="opacity:1" fill="#00fcfc" d="M 426.5,137.5 C 432.758,137.19 438.924,137.524 445,138.5C 445.5,147.494 445.666,156.494 445.5,165.5C 443.833,165.5 442.167,165.5 440.5,165.5C 440.5,163.167 440.5,160.833 440.5,158.5C 434.5,158.5 428.5,158.5 422.5,158.5C 422.5,160.833 422.5,163.167 422.5,165.5C 420.833,165.5 419.167,165.5 417.5,165.5C 417.334,159.158 417.5,152.825 418,146.5C 419.688,142.315 422.521,139.315 426.5,137.5 Z"/></g>
<g><path style="opacity:1" fill="#00fcfc" d="M 460.5,137.5 C 462.167,137.5 463.833,137.5 465.5,137.5C 465.5,145.167 465.5,152.833 465.5,160.5C 472.5,160.5 479.5,160.5 486.5,160.5C 486.5,162.167 486.5,163.833 486.5,165.5C 477.915,165.817 469.415,165.483 461,164.5C 460.5,155.506 460.334,146.506 460.5,137.5 Z"/></g>
<g><path style="opacity:1" fill="#00fcfc" d="M 521.5,137.5 C 528.841,137.334 536.174,137.5 543.5,138C 547.105,141.701 547.438,145.701 544.5,150C 549.366,154.719 549.699,159.719 545.5,165C 537.254,165.815 529.088,165.648 521,164.5C 520.196,155.422 520.363,146.422 521.5,137.5 Z"/></g>
<g><path style="opacity:1" fill="#00fdfd" d="M 584.5,165.5 C 584.5,163.167 584.5,160.833 584.5,158.5C 578.5,158.5 572.5,158.5 566.5,158.5C 566.5,160.833 566.5,163.167 566.5,165.5C 564.833,165.5 563.167,165.5 561.5,165.5C 557.125,142.373 566.291,133.373 589,138.5C 589.5,147.494 589.666,156.494 589.5,165.5C 587.833,165.5 586.167,165.5 584.5,165.5 Z"/></g>
<g><path style="opacity:1" fill="#00fafa" d="M 605.5,136.5 C 613.078,142.572 620.244,149.239 627,156.5C 627.5,150.175 627.666,143.842 627.5,137.5C 629.167,137.5 630.833,137.5 632.5,137.5C 632.666,146.506 632.5,155.506 632,164.5C 630.612,165.554 629.112,165.72 627.5,165C 622.032,158.531 616.199,152.364 610,146.5C 609.5,152.825 609.334,159.158 609.5,165.5C 607.833,165.5 606.167,165.5 604.5,165.5C 604.194,155.75 604.527,146.084 605.5,136.5 Z"/></g>
<g><path style="opacity:1" fill="#02eaec" d="M 646.5,137.5 C 648.5,137.5 650.5,137.5 652.5,137.5C 652.5,146.833 652.5,156.167 652.5,165.5C 650.5,165.5 648.5,165.5 646.5,165.5C 646.5,156.167 646.5,146.833 646.5,137.5 Z"/></g>
<g><path style="opacity:1" fill="#00f8f8" d="M 668.5,137.5 C 670.857,137.337 673.19,137.503 675.5,138C 670.985,142.348 666.651,146.848 662.5,151.5C 666.685,156.518 671.351,161.018 676.5,165C 673.833,165.667 671.167,165.667 668.5,165C 664.833,161.333 661.167,157.667 657.5,154C 656.552,153.517 655.552,153.351 654.5,153.5C 654.5,151.833 654.5,150.167 654.5,148.5C 655.873,148.657 657.207,148.49 658.5,148C 662.037,144.631 665.371,141.131 668.5,137.5 Z"/></g>
<g><path style="opacity:1" fill="#00fefd" d="M 688.5,137.5 C 690.167,137.5 691.833,137.5 693.5,137.5C 693.5,146.833 693.5,156.167 693.5,165.5C 691.833,165.5 690.167,165.5 688.5,165.5C 688.5,156.167 688.5,146.833 688.5,137.5 Z"/></g>
<g><path style="opacity:1" fill="#00fcfc" d="M 710.5,136.5 C 717.411,142.909 724.245,149.576 731,156.5C 731.5,150.175 731.666,143.842 731.5,137.5C 733.167,137.5 734.833,137.5 736.5,137.5C 736.666,146.506 736.5,155.506 736,164.5C 734.612,165.554 733.112,165.72 731.5,165C 726.032,158.531 720.199,152.364 714,146.5C 713.5,152.825 713.334,159.158 713.5,165.5C 711.833,165.5 710.167,165.5 708.5,165.5C 707.9,155.572 708.567,145.905 710.5,136.5 Z"/></g>
<g><path style="opacity:1" fill="#00f6f6" d="M 754.5,137.5 C 762.5,137.5 770.5,137.5 778.5,137.5C 778.5,139.167 778.5,140.833 778.5,142.5C 771.167,142.5 763.833,142.5 756.5,142.5C 756.5,148.5 756.5,154.5 756.5,160.5C 762.167,160.5 767.833,160.5 773.5,160.5C 773.5,158.167 773.5,155.833 773.5,153.5C 769.167,153.5 764.833,153.5 760.5,153.5C 760.5,151.833 760.5,150.167 760.5,148.5C 766.176,148.334 771.843,148.501 777.5,149C 778,149.5 778.5,150 779,150.5C 779.777,155.222 779.61,159.889 778.5,164.5C 774.667,164.833 770.833,165.167 767,165.5C 754.813,168.355 749.313,163.689 750.5,151.5C 749.701,146.098 751.035,141.431 754.5,137.5 Z"/></g>
<g><path style="opacity:1" fill="#0c1f30" d="M 428.5,142.5 C 432.5,142.5 436.5,142.5 440.5,142.5C 440.5,146.167 440.5,149.833 440.5,153.5C 434.5,153.5 428.5,153.5 422.5,153.5C 422.044,148.334 424.044,144.667 428.5,142.5 Z"/></g>
<g><path style="opacity:1" fill="#0c2030" d="M 525.5,142.5 C 530.833,142.5 536.167,142.5 541.5,142.5C 541.528,144.582 540.861,146.416 539.5,148C 535.514,148.499 531.514,148.666 527.5,148.5C 527.5,150.167 527.5,151.833 527.5,153.5C 531.846,153.334 536.179,153.501 540.5,154C 542.915,155.465 543.915,157.632 543.5,160.5C 537.5,160.5 531.5,160.5 525.5,160.5C 525.5,154.5 525.5,148.5 525.5,142.5 Z"/></g>
<g><path style="opacity:1" fill="#0c2031" d="M 571.5,142.5 C 575.833,142.5 580.167,142.5 584.5,142.5C 584.5,146.167 584.5,149.833 584.5,153.5C 578.5,153.5 572.5,153.5 566.5,153.5C 565.775,148.623 567.442,144.956 571.5,142.5 Z"/></g>
<g><path style="opacity:1" fill="#00dae4" d="M 173.5,138.5 C 174.167,141.167 175.833,142.833 178.5,143.5C 172.823,149.176 166.823,154.509 160.5,159.5C 157.911,158.581 155.911,156.914 154.5,154.5C 160.853,149.144 167.186,143.81 173.5,138.5 Z"/></g>
<g><path style="opacity:1" fill="#00fdfd" d="M 246.5,148.5 C 251.833,148.5 257.167,148.5 262.5,148.5C 262.5,150.167 262.5,151.833 262.5,153.5C 257.167,153.5 251.833,153.5 246.5,153.5C 246.5,151.833 246.5,150.167 246.5,148.5 Z"/></g>
<g><path style="opacity:1" fill="#00a7c1" d="M 91.5,154.5 C 99.8333,154.5 108.167,154.5 116.5,154.5C 118.294,156.797 120.294,158.963 122.5,161C 134.495,161.5 146.495,161.667 158.5,161.5C 140.341,162.497 122.008,162.83 103.5,162.5C 98.2585,161.962 94.2585,159.295 91.5,154.5 Z"/></g>
<g><path style="opacity:1" fill="#00c7d8" d="M 116.5,154.5 C 129.167,154.5 141.833,154.5 154.5,154.5C 155.911,156.914 157.911,158.581 160.5,159.5C 160.167,160.5 159.5,161.167 158.5,161.5C 146.495,161.667 134.495,161.5 122.5,161C 120.294,158.963 118.294,156.797 116.5,154.5 Z"/></g>
</svg>
