<?xml version="1.0" encoding="iso-8859-1"?>
<!-- Uploaded to: SVG Repo, www.svgrepo.com, Generator: SVG Repo Mixer Tools -->
<svg version="1.1" id="Layer_1" xmlns="http://www.w3.org/2000/svg" xmlns:xlink="http://www.w3.org/1999/xlink" 
	 viewBox="0 0 512.001 512.001" xml:space="preserve">
<rect x="341.162" y="84.649" style="fill:#F4A026;" width="76.954" height="369.379"/>
<rect x="341.162" y="247.792" style="fill:#61ACD2;" width="76.954" height="206.236"/>
<rect x="218.036" y="201.619" style="fill:#E46A53;" width="76.954" height="252.409"/>
<rect x="218.036" y="325.772" style="fill:#30A987;" width="76.954" height="128.257"/>
<rect x="94.91" y="325.772" style="fill:#EFEFEF;" width="76.954" height="128.257"/>
<path style="fill:#231F20;" d="M508.459,446.275l-38.477-33.347c-4.283-3.711-10.763-3.247-14.473,1.033
	c-3.711,4.283-3.248,10.762,1.034,14.473l17.691,15.332h-45.857v-79.076l62.638,9.194c5.604,0.829,10.819-3.055,11.642-8.661
	c0.823-5.606-3.056-10.819-8.662-11.642l-65.618-9.632V84.649c0-5.666-4.594-10.261-10.261-10.261h-76.954
	c-5.667,0-10.261,4.595-10.261,10.261v271.752l-25.651,10.388v-165.17c0-5.666-4.594-10.261-10.261-10.261h-76.954
	c-5.667,0-10.261,4.595-10.261,10.261v173.844l-25.651-6.098v-43.594c0-5.666-4.594-10.261-10.261-10.261H94.91
	c-5.667,0-10.261,4.595-10.261,10.261v47.98l-25.651,9.241V50.079L74.33,67.77c2.03,2.341,4.885,3.541,7.758,3.541
	c2.381,0,4.774-0.825,6.716-2.507c4.282-3.711,4.745-10.192,1.033-14.472L56.49,15.855c-0.043-0.05-0.084-0.089-0.127-0.135
	c-1.084-1.206-2.453-2.166-4.041-2.758c-4.011-1.498-8.534-0.343-11.34,2.892L7.636,54.331c-3.71,4.283-3.247,10.762,1.035,14.473
	s10.762,3.248,14.473-1.033L38.477,50.08v393.688H10.261C4.594,443.768,0,448.362,0,454.028s4.594,10.261,10.261,10.261h28.216
	v25.138c0,5.666,4.594,10.261,10.261,10.261s10.261-4.595,10.261-10.261v-25.138h415.236l-17.691,15.332
	c-4.282,3.711-4.745,10.192-1.033,14.473c2.03,2.341,4.885,3.541,7.758,3.541c2.381,0,4.774-0.825,6.716-2.507l38.477-33.347
	c0.072-0.062,0.13-0.12,0.195-0.18c1.178-1.074,2.116-2.427,2.699-3.987C512.851,453.601,511.696,449.081,508.459,446.275z
	 M407.856,94.91v142.621h-56.433V94.91H407.856z M351.423,258.052h56.433v82.888l-25.701-3.773c-1.806-0.269-3.65-0.045-5.342,0.641
	l-25.391,10.283V258.052z M330.902,378.541v65.227h-25.651v-54.839L330.902,378.541z M284.729,211.88v103.631h-56.433V211.88
	H284.729z M228.297,336.032h56.433v39.066l-29.031,11.757l-27.402-6.513V336.032z M207.776,396.557v47.211h-25.651v-53.309
	L207.776,396.557z M105.17,336.032h56.433v28.457l-27.896-6.63c-1.938-0.462-3.974-0.347-5.851,0.328l-22.687,8.173v-30.327H105.17z
	 M58.998,404.805l25.651-9.241v48.204H58.998V404.805z M105.17,443.768v-55.597l26.766-9.642l29.667,7.052v58.186H105.17z
	 M228.297,443.768v-42.334l25.844,6.143c2.074,0.493,4.249,0.328,6.224-0.472l24.366-9.867v46.529H228.297z M351.423,443.768
	v-73.537l30.51-12.356l25.923,3.805v82.088H351.423z"/>
</svg>