<?xml version="1.0" encoding="utf-8"?>
<!-- Uploaded to: SVG Repo, www.svgrepo.com, Generator: SVG Repo Mixer Tools -->
<svg width="800px" height="800px" viewBox="0 0 1024 1024" class="icon"  version="1.1" xmlns="http://www.w3.org/2000/svg"><path d="M905.8 575.7c-1.1 11-11.2 16.5-19.8 21.5-8 4.6-16 9.3-23.9 13.9-12.8 7.4-25.5 14.8-38.3 22.2-16 9.3-31.9 18.6-47.9 27.8-17.6 10.2-35.2 20.5-52.9 30.7-17.7 10.3-35.4 20.6-53.2 30.9-16.3 9.5-32.5 18.9-48.8 28.4-13.3 7.7-26.5 15.4-39.8 23.1-8.7 5-17.4 10.1-26.1 15.1-6.6 3.8-12.8 7.6-20.3 9.8-19.5 5.6-41.1 3.7-58.7-6.5-6.3-3.7-12.7-7.3-19-11-11.6-6.7-23.1-13.3-34.7-20-15.2-8.8-30.4-17.6-45.6-26.3-17.3-10-34.7-20-52-30-17.9-10.3-35.8-20.7-53.7-31-16.9-9.8-33.8-19.5-50.8-29.3l-43.2-24.9c-10.3-6-20.7-11.9-31-17.9-4.7-2.7-9.4-5.4-14.1-8.2-7.4-4.3-14.7-11.1-14.7-20.3 0 8.4 0 16.8-0.1 25.3 0 3-0.2 6.1 0 9.2 0.6 8.1 7 14.4 13.7 18.4 4.1 2.5 8.3 4.8 12.5 7.2 10.8 6.2 21.6 12.5 32.4 18.7 15.6 9 31.1 18 46.7 27 18.5 10.7 37.1 21.4 55.6 32.1 19.3 11.2 38.6 22.3 58 33.5 18.4 10.6 36.7 21.2 55.1 31.8 15.3 8.8 30.5 17.6 45.8 26.4 10.3 6 20.7 11.9 31 17.9 6 3.4 11.9 7.3 18.4 9.7 20.3 7.4 44.1 5.8 62.8-5.1 7.1-4.1 14.2-8.3 21.3-12.4 13.1-7.6 26.2-15.2 39.2-22.8 17.1-9.9 34.1-19.8 51.2-29.8 19.1-11.1 38.2-22.2 57.2-33.3l57.3-33.3c17.1-10 34.2-19.9 51.4-29.9 13.3-7.7 26.6-15.4 39.9-23.2 7.3-4.3 14.7-8.5 22-12.8 2.2-1.3 4.5-2.6 6.6-4.1 5.6-4.2 10-10 10.1-17.3 0.1-3.7 0-7.3 0-11 0-7.3 0-14.7 0.1-22 0.4 0.8 0.4 1.3 0.3 1.8 0 0.3 0-0.2 0 0z" fill="#7A9EFD" /><path d="M891.6 554.2c19 11 19.1 28.9 0.2 39.9L547.4 794.2c-18.9 11-49.8 11-68.8 0L131.9 594.1c-19-11-19.1-28.9-0.2-39.9L476.1 354c18.9-11 49.8-11 68.8 0l346.7 200.2z" fill="#E4ECF9" /><path d="M570.8 187.7c-0.3-0.2-0.6-0.3-0.9-0.4 0 0-0.1 0-0.1-0.1-0.1 0-0.2-0.1-0.3-0.1-0.1 0-0.3-0.1-0.4-0.1-0.1 0-0.3-0.1-0.4-0.1-0.1 0-0.2 0-0.3-0.1h-0.2c-0.3-0.1-0.6-0.1-0.9-0.1h-2.2c-0.1 0-0.3 0.1-0.4 0.1-0.2 0-0.4 0.1-0.6 0.1-0.1 0-0.2 0-0.4 0.1-0.1 0-0.2 0.1-0.3 0.1-0.4 0.1-0.7 0.2-1.1 0.4-0.1 0.1-0.3 0.1-0.4 0.1-0.1 0-0.1 0.1-0.2 0.1-0.6 0.3-1.3 0.6-1.9 1l-232 134c-0.8 0.5-1.6 1-2.4 1.6-0.1 0.1-0.3 0.2-0.4 0.3-0.7 0.6-1.5 1.2-2.2 1.9l-0.2 0.2c-0.1 0.1-0.2 0.2-0.3 0.4-0.4 0.4-0.7 0.7-1 1.1l-0.3 0.3-0.3 0.3c-0.2 0.2-0.4 0.5-0.6 0.7-0.1 0.2-0.3 0.3-0.4 0.5-0.1 0.1-0.2 0.3-0.3 0.4-0.1 0.2-0.3 0.4-0.4 0.6-0.1 0.1-0.2 0.3-0.3 0.4-0.2 0.2-0.3 0.5-0.5 0.7-0.1 0.1-0.2 0.3-0.3 0.4 0 0.1-0.1 0.1-0.1 0.2-0.3 0.4-0.5 0.9-0.8 1.3 0 0 0 0.1-0.1 0.1-0.1 0.1-0.1 0.2-0.2 0.3-0.2 0.3-0.4 0.6-0.5 1-0.1 0.1-0.1 0.3-0.2 0.4-0.1 0.2-0.2 0.3-0.2 0.5-0.1 0.1-0.1 0.3-0.2 0.4-0.2 0.4-0.3 0.7-0.5 1.1 0 0.1-0.1 0.1-0.1 0.2v0.1c-0.2 0.5-0.4 0.9-0.6 1.4 0 0.1-0.1 0.2-0.1 0.2-0.1 0.2-0.1 0.3-0.2 0.5s-0.2 0.5-0.3 0.7c-0.1 0.2-0.1 0.4-0.2 0.5-0.1 0.2-0.1 0.4-0.2 0.6 0 0.1-0.1 0.3-0.1 0.4-0.1 0.2-0.1 0.5-0.2 0.7-0.1 0.3-0.1 0.5-0.2 0.8 0 0.1-0.1 0.2-0.1 0.3 0 0.2-0.1 0.4-0.1 0.6-0.1 0.4-0.2 0.8-0.2 1.2 0 0.1 0 0.2-0.1 0.4v0.3c-0.1 0.9-0.2 1.8-0.2 2.7L313 616c0 4.9 1.8 8.3 4.6 10l17 9.9c-2.8-1.6-4.5-5.1-4.6-10l-0.8-266.6c0-0.9 0.1-1.8 0.2-2.7 0-0.2 0-0.4 0.1-0.7 0.1-0.4 0.1-0.8 0.2-1.2 0.1-0.3 0.1-0.6 0.2-0.9 0.1-0.3 0.1-0.5 0.2-0.8 0.1-0.4 0.2-0.7 0.3-1.1 0.1-0.2 0.1-0.4 0.2-0.6 0.1-0.4 0.3-0.8 0.4-1.2 0.1-0.2 0.1-0.3 0.2-0.5 0.2-0.6 0.4-1.1 0.7-1.7 0-0.1 0.1-0.1 0.1-0.2 0.2-0.5 0.5-1 0.7-1.5 0.1-0.2 0.2-0.3 0.2-0.5 0.2-0.5 0.5-0.9 0.8-1.4 0.1-0.1 0.1-0.2 0.2-0.3 0.3-0.5 0.6-1.1 1-1.6 0.1-0.2 0.2-0.3 0.3-0.4 0.3-0.4 0.5-0.7 0.8-1.1 0.1-0.2 0.3-0.4 0.4-0.6 0.2-0.3 0.5-0.6 0.7-0.9 0.2-0.3 0.4-0.5 0.6-0.7 0.2-0.2 0.4-0.5 0.6-0.7 0.3-0.4 0.7-0.7 1-1.1l0.5-0.5c0.7-0.7 1.4-1.3 2.2-1.9 0.1-0.1 0.3-0.2 0.4-0.3 0.8-0.6 1.6-1.2 2.4-1.6l232-134c0.7-0.4 1.3-0.7 1.9-1 0.2-0.1 0.4-0.2 0.6-0.2 0.4-0.1 0.7-0.3 1.1-0.4 0.2-0.1 0.5-0.1 0.7-0.2 0.2-0.1 0.4-0.1 0.6-0.1 0.3-0.1 0.6-0.1 0.8-0.1h1.7c0.4 0 0.8 0.1 1.2 0.1 0.1 0 0.2 0 0.3 0.1 0.3 0.1 0.6 0.1 0.9 0.2 0.1 0 0.2 0.1 0.3 0.1 0.4 0.1 0.7 0.3 1 0.5l-17.1-9.9z" fill="#2A2ABC" /><path d="M576.8 198.6c8.6-4.9 15.6-0.9 15.6 8.9l0.8 266.6c0 9.8-7 21.9-15.5 26.9l-232 134c-8.6 4.9-15.6 0.9-15.6-8.9l-0.8-266.6c0-9.8 7-21.9 15.5-26.9l232-134z" fill="#4040FF" /><path d="M522.9 393.2c5.7-3.3 10.3-0.6 10.3 5.9s-4.6 14.5-10.3 17.8l-109 62.9 0.1 21.9c0 3.7-2.8 7.6-5.6 9.3-1.5 0.9-3 1.1-4.2 0.3l-31.5-21.4c-3.1-2.1-0.6-9.7 4.2-12.4l14.5-8.4 16.9-9.7 114.6-66.2zM496 321.7c1.5-0.9 3-1.1 4.2-0.3l31.5 21.4c3.1 2.1 0.6 9.7-4.2 12.4l-14.5 8.4-16.9 9.7-114.6 66.1c-5.7 3.3-10.3 0.6-10.3-5.9s4.6-14.5 10.3-17.8l109-62.9-0.1-21.8c0-3.7 2.8-7.6 5.6-9.3z" fill="#2828CE" /><path d="M424.2 523.4l-12.4-7.2c-0.1 0-0.1-0.1-0.2-0.1l12.4 7.2c0.1 0 0.1 0.1 0.2 0.1" fill="#858585" /><path d="M537.7 397.4c-0.1-0.1-0.1-0.1 0 0l-0.6-0.3h-0.1c-0.1 0-0.1 0-0.2-0.1-0.1 0-0.2-0.1-0.3-0.1-0.1 0-0.2 0-0.3-0.1H535.9c-0.2 0-0.4-0.1-0.6-0.1h-1.5c-0.1 0-0.2 0-0.3 0.1-0.1 0-0.3 0.1-0.4 0.1h-0.2c-0.1 0-0.2 0.1-0.2 0.1-0.2 0.1-0.5 0.2-0.7 0.2-0.1 0-0.2 0.1-0.3 0.1l-0.1 0.1c-0.4 0.2-0.9 0.4-1.3 0.6l-114.6 66.1-16.9 9.7-14.5 8.4c-0.3 0.2-0.7 0.4-1 0.7-0.1 0.1-0.2 0.2-0.3 0.2-0.2 0.2-0.4 0.4-0.6 0.5l-0.1 0.1-0.3 0.3c-0.1 0.1-0.2 0.2-0.2 0.3l-0.1 0.1c-0.2 0.2-0.3 0.4-0.4 0.5l-0.1 0.1c-0.1 0.1-0.2 0.3-0.3 0.4-0.1 0.1-0.2 0.3-0.3 0.4-0.1 0.2-0.2 0.3-0.3 0.5-0.1 0.1-0.1 0.3-0.2 0.4-0.1 0.2-0.2 0.3-0.2 0.5-0.1 0.1-0.1 0.3-0.2 0.4-0.1 0.2-0.1 0.3-0.2 0.5 0 0.1-0.1 0.2-0.1 0.4v0.1c-0.1 0.2-0.1 0.4-0.2 0.5 0 0.1 0 0.1-0.1 0.2v0.4c0 0.2-0.1 0.3-0.1 0.5v1.7c0 0.3 0.1 0.7 0.2 1v0.1c0.1 0.3 0.2 0.5 0.4 0.8 0 0.1 0.1 0.1 0.1 0.2 0.2 0.2 0.4 0.5 0.6 0.6l31.5 21.4 12.4 7.2-31.5-21.4c-0.3-0.2-0.5-0.4-0.6-0.6 0-0.1-0.1-0.1-0.1-0.2-0.1-0.2-0.3-0.5-0.4-0.8v-0.1c-0.1-0.3-0.1-0.6-0.2-1v-1.7c0-0.2 0.1-0.4 0.1-0.7v-0.2c0.1-0.3 0.1-0.5 0.2-0.8v-0.1l0.3-0.9c0.1-0.3 0.3-0.6 0.4-0.9 0.2-0.3 0.3-0.6 0.5-0.9 0.2-0.3 0.4-0.5 0.6-0.8l0.1-0.1c0.2-0.2 0.4-0.5 0.6-0.7 0.1-0.1 0.2-0.2 0.2-0.3l0.4-0.4c0.2-0.2 0.4-0.4 0.6-0.5 0.1-0.1 0.2-0.2 0.3-0.2 0.3-0.2 0.6-0.5 1-0.7l14.5-8.4 16.9-9.7L542.7 405c0.4-0.3 0.9-0.5 1.3-0.6 0.1-0.1 0.3-0.1 0.4-0.2 0.2-0.1 0.5-0.2 0.7-0.2 0.2 0 0.3-0.1 0.5-0.1 0.1 0 0.3-0.1 0.4-0.1 0.2 0 0.4-0.1 0.5-0.1h1.2c0.3 0 0.5 0 0.8 0.1h0.2c0.2 0 0.4 0.1 0.6 0.2 0.1 0 0.1 0 0.2 0.1 0.2 0.1 0.5 0.2 0.7 0.3l-12.5-7z" fill="#ACC5EA" /><path d="M542.7 405.3c5.7-3.3 10.3-0.6 10.3 5.9s-4.6 14.5-10.3 17.8l-109 62.9 0.1 21.9c0 3.7-2.8 7.6-5.6 9.3-1.5 0.9-3 1.1-4.2 0.3L392.5 502c-3.1-2.1-0.6-9.7 4.2-12.4l14.5-8.4 16.9-9.7 114.6-66.2z" fill="#FFFFFF" /><path d="M507.5 326.2c-0.1-0.1-0.2-0.1-0.3-0.2-0.1 0-0.2-0.1-0.3-0.1-0.1 0-0.2 0-0.3-0.1h-1.1c-0.2 0-0.3 0.1-0.5 0.1-0.1 0-0.2 0.1-0.3 0.1-0.1 0-0.1 0-0.2 0.1-0.1 0-0.1 0-0.2 0.1-0.3 0.1-0.6 0.3-0.8 0.4-0.4 0.2-0.7 0.4-1.1 0.7l-0.3 0.3c-0.2 0.2-0.4 0.4-0.7 0.6l-0.1 0.1c-0.2 0.2-0.4 0.4-0.5 0.6l-0.3 0.3-0.1 0.1-0.1 0.1c-0.1 0.2-0.3 0.3-0.4 0.5-0.1 0.2-0.2 0.3-0.3 0.5-0.1 0.1-0.2 0.3-0.2 0.4-0.1 0.1-0.2 0.3-0.2 0.4-0.1 0.1-0.2 0.3-0.2 0.4-0.1 0.1-0.1 0.3-0.2 0.4-0.1 0.1-0.1 0.3-0.2 0.4-0.1 0.2-0.1 0.3-0.2 0.5s-0.1 0.3-0.1 0.5c-0.1 0.2-0.1 0.4-0.1 0.6v0.7c0 0.3-0.1 0.7-0.1 1l0.1 21.8 12.4 7.2-0.1-21.8c0-0.4 0-0.9 0.1-1.3v-0.2c0.1-0.4 0.2-0.9 0.3-1.3 0.2-0.5 0.3-0.9 0.5-1.3s0.4-0.9 0.7-1.3c0.3-0.4 0.5-0.8 0.8-1.1l0.1-0.1c0.3-0.3 0.5-0.6 0.8-0.9l0.1-0.1c0.2-0.2 0.4-0.4 0.7-0.6l0.3-0.3c0.3-0.3 0.7-0.5 1.1-0.7 0.3-0.2 0.7-0.3 1-0.5 0.1 0 0.1 0 0.2-0.1 0.3-0.1 0.6-0.2 0.9-0.2h1.1l0.9 0.3-12.6-7zM391.3 442.9c0.1-0.7 0.3-1.5 0.5-2.2 0-0.1 0-0.1 0.1-0.2 0.3-0.8 0.5-1.6 0.9-2.4l1.2-2.4v-0.1c0.4-0.8 0.9-1.5 1.4-2.2 0-0.1 0.1-0.1 0.1-0.2l1.5-1.8c0.1-0.1 0.2-0.2 0.3-0.4 0.4-0.4 0.9-0.8 1.3-1.2 0.2-0.2 0.4-0.4 0.6-0.5 0.6-0.5 1.3-1 1.9-1.3l109-62.9-12.4-7.2-109 62.9c-0.7 0.4-1.3 0.8-1.9 1.3-0.2 0.2-0.4 0.3-0.6 0.5-0.3 0.3-0.6 0.5-0.9 0.8l-0.4 0.4c-0.1 0.1-0.2 0.2-0.3 0.4l-0.4 0.4c-0.3 0.3-0.6 0.7-0.8 1-0.1 0.1-0.2 0.3-0.3 0.4 0 0.1-0.1 0.1-0.1 0.2-0.1 0.1-0.2 0.2-0.3 0.4l-0.6 0.9c-0.2 0.3-0.4 0.6-0.5 0.9v0.2c-0.1 0.2-0.3 0.5-0.4 0.7-0.2 0.3-0.3 0.6-0.4 0.9-0.1 0.3-0.3 0.5-0.4 0.8-0.1 0.3-0.3 0.6-0.4 0.9-0.1 0.3-0.2 0.6-0.3 1-0.1 0.2-0.1 0.3-0.2 0.5 0 0.1 0 0.1-0.1 0.2 0 0.1-0.1 0.2-0.1 0.3l-0.3 1.2c-0.1 0.2-0.1 0.5-0.1 0.7 0 0.1 0 0.3-0.1 0.4 0 0.1 0 0.2-0.1 0.3-0.1 0.7-0.1 1.4-0.1 2 0 3.2 1.2 5.5 3 6.6l12.4 7.2c-1.8-1.1-3-3.4-3-6.6 0-0.8 0.1-1.6 0.2-2.4 0-0.2 0-0.3 0.1-0.4z" fill="#ACC5EA" /><path d="M515.8 333.8c1.5-0.9 3-1.1 4.2-0.3l31.5 21.4c3.1 2.1 0.6 9.7-4.2 12.4l-14.5 8.4-16.9 9.7-114.6 66.1c-5.7 3.3-10.3 0.6-10.3-5.9s4.6-14.5 10.3-17.8l109-62.9-0.1-21.8c0-3.7 2.7-7.7 5.6-9.3z" fill="#FFFFFF" /><path d="M604.7 478.4c-0.1-0.1-0.2-0.1-0.3-0.2-0.5-0.3-1-0.6-1.6-0.8-0.1-0.1-0.3-0.1-0.4-0.2-0.3-0.1-0.6-0.3-0.9-0.4-0.2-0.1-0.4-0.2-0.6-0.2-0.2-0.1-0.3-0.1-0.5-0.2-0.6-0.2-1.3-0.4-1.9-0.6h-0.1c-0.6-0.2-1.3-0.3-1.9-0.5-0.2 0-0.4-0.1-0.6-0.1-0.2 0-0.4-0.1-0.6-0.1-0.4-0.1-0.7-0.1-1.1-0.2-0.1 0-0.3 0-0.4-0.1-0.6-0.1-1.3-0.1-1.9-0.2h-3.8c-0.4 0-0.7 0.1-1.1 0.1-0.3 0-0.5 0-0.8 0.1-0.8 0.1-1.5 0.2-2.3 0.3h-0.1c-0.8 0.1-1.7 0.3-2.6 0.5-0.3 0.1-0.6 0.1-0.8 0.2-0.5 0.1-1.1 0.2-1.6 0.4h-0.2c-1 0.3-2 0.6-3.1 1-0.2 0.1-0.4 0.2-0.6 0.2-0.8 0.3-1.7 0.6-2.5 1-0.1 0-0.2 0.1-0.3 0.1l-2.1 0.9c-0.1 0-0.2 0.1-0.3 0.1-0.8 0.4-1.6 0.7-2.3 1.1-0.2 0.1-0.5 0.2-0.7 0.4-0.9 0.5-1.8 0.9-2.6 1.4-0.9 0.5-1.8 1.1-2.7 1.7l-0.9 0.6-1.8 1.2c-0.3 0.2-0.7 0.5-1 0.7-0.6 0.4-1.1 0.8-1.7 1.2-0.3 0.3-0.7 0.5-1 0.8-0.6 0.4-1.1 0.9-1.7 1.3-0.3 0.3-0.6 0.5-1 0.8-0.6 0.5-1.3 1-1.9 1.6-0.2 0.2-0.5 0.4-0.7 0.6-0.8 0.7-1.7 1.5-2.5 2.3l-0.5 0.5c-0.6 0.5-1.1 1-1.7 1.6l-0.2 0.2c-1 1-2 2-2.9 3 0 0.1-0.1 0.1-0.1 0.2l-2.7 3-0.3 0.3c-0.3 0.4-0.7 0.8-1 1.2-0.4 0.4-0.7 0.8-1.1 1.3-0.4 0.5-0.9 1.1-1.3 1.6-0.3 0.4-0.7 0.9-1 1.3-0.1 0.1-0.1 0.2-0.2 0.2-0.1 0.1-0.2 0.3-0.3 0.4-1.1 1.4-2.1 2.8-3.2 4.3-0.1 0.1-0.2 0.3-0.3 0.4 0 0.1-0.1 0.1-0.1 0.2-1 1.4-2 2.9-2.9 4.3-0.1 0.1-0.2 0.3-0.3 0.4-0.1 0.2-0.3 0.4-0.4 0.6-0.8 1.2-1.5 2.4-2.2 3.6-0.1 0.2-0.2 0.4-0.4 0.6 0 0.1-0.1 0.1-0.1 0.2l-2.4 4.2c-0.1 0.1-0.1 0.2-0.2 0.3-0.1 0.2-0.2 0.5-0.4 0.7-0.6 1.1-1.2 2.3-1.7 3.4-0.1 0.2-0.2 0.5-0.4 0.7-0.1 0.1-0.1 0.3-0.2 0.4-0.7 1.5-1.4 2.9-2 4.4 0 0 0 0.1-0.1 0.1-0.1 0.2-0.1 0.3-0.2 0.5-0.6 1.3-1.1 2.7-1.6 4l-0.3 0.6c-0.1 0.2-0.1 0.4-0.2 0.5-0.6 1.6-1.2 3.2-1.7 4.8v0.1c-0.3 1.1-0.7 2.1-1 3.2l-0.3 0.9c-0.2 0.6-0.4 1.2-0.5 1.8-0.1 0.2-0.1 0.4-0.2 0.6-0.1 0.5-0.3 1-0.4 1.5-0.2 0.7-0.3 1.3-0.5 2l-0.3 1.5c-0.1 0.3-0.2 0.7-0.2 1-0.1 0.2-0.1 0.5-0.1 0.7-0.2 0.7-0.3 1.5-0.4 2.2-0.1 0.5-0.2 1-0.3 1.6-0.1 0.8-0.2 1.5-0.3 2.3-0.1 0.4-0.1 0.7-0.2 1.1 0 0.2 0 0.3-0.1 0.5 0 0.4-0.1 0.7-0.1 1.1-0.1 0.7-0.2 1.5-0.2 2.2 0 0.4-0.1 0.8-0.1 1.1-0.1 0.7-0.1 1.5-0.1 2.2v1c0 1.1-0.1 2.1-0.1 3.1 0.1 18 6.4 30.7 16.7 36.7l9.8 5.7c-10.3-6-16.6-18.6-16.7-36.7 0-1 0-2.1 0.1-3.1v-1c0-0.7 0.1-1.5 0.1-2.2 0-0.4 0.1-0.8 0.1-1.1 0.1-0.7 0.1-1.5 0.2-2.2 0-0.4 0.1-0.7 0.1-1.1 0.1-0.5 0.1-1 0.2-1.5 0.1-0.8 0.2-1.5 0.3-2.3 0.1-0.5 0.2-1 0.3-1.6 0.1-0.7 0.3-1.5 0.4-2.2 0.1-0.6 0.2-1.2 0.4-1.8l0.3-1.5c0.2-0.7 0.3-1.3 0.5-2 0.1-0.5 0.3-1 0.4-1.5 0.2-0.8 0.4-1.6 0.7-2.4l0.3-0.9c0.3-1.1 0.7-2.2 1-3.2 0.5-1.6 1.1-3.2 1.7-4.8 0.2-0.4 0.3-0.8 0.5-1.2 0.5-1.3 1.1-2.7 1.6-4l0.3-0.6c0.6-1.5 1.3-2.9 2-4.4 0.2-0.4 0.4-0.8 0.6-1.1 0.6-1.2 1.1-2.3 1.7-3.4 0.2-0.4 0.4-0.7 0.6-1.1l2.4-4.2c0.2-0.3 0.3-0.5 0.5-0.8 0.7-1.2 1.5-2.4 2.2-3.6 0.2-0.4 0.4-0.7 0.7-1.1 0.9-1.5 1.9-2.9 2.9-4.3 0.2-0.2 0.3-0.4 0.5-0.6 1-1.5 2.1-2.9 3.2-4.3 0.2-0.2 0.3-0.4 0.5-0.6 0.3-0.4 0.7-0.9 1-1.3 0.4-0.5 0.9-1.1 1.3-1.6 0.4-0.4 0.7-0.9 1.1-1.3 0.4-0.5 0.8-1 1.3-1.5l2.7-3 0.1-0.1c1-1 1.9-2 2.9-3 0.6-0.6 1.3-1.2 1.9-1.8l0.5-0.5c0.8-0.8 1.7-1.5 2.5-2.3 0.2-0.2 0.5-0.4 0.7-0.6 0.6-0.5 1.2-1.1 1.9-1.6 0.3-0.3 0.6-0.5 1-0.8 0.6-0.4 1.1-0.9 1.7-1.3 0.3-0.3 0.7-0.5 1-0.8 0.6-0.4 1.1-0.8 1.7-1.2 0.3-0.2 0.7-0.5 1-0.7l1.8-1.2 0.9-0.6c0.9-0.6 1.8-1.1 2.7-1.7 0.9-0.5 1.8-1 2.6-1.4 0.2-0.1 0.5-0.2 0.7-0.4 0.8-0.4 1.6-0.8 2.3-1.1 0.1 0 0.2-0.1 0.3-0.1 0.8-0.4 1.6-0.7 2.4-1 0.9-0.3 1.7-0.7 2.5-1 0.2-0.1 0.4-0.2 0.6-0.2 1-0.4 2.1-0.7 3.1-1 0.6-0.2 1.2-0.3 1.8-0.4 0.3-0.1 0.6-0.1 0.8-0.2 0.9-0.2 1.7-0.3 2.6-0.5h0.1c0.8-0.1 1.6-0.2 2.3-0.3 0.3 0 0.5 0 0.8-0.1 0.6 0 1.1-0.1 1.6-0.1h3c0.7 0 1.4 0.1 2.1 0.2 0.1 0 0.3 0 0.4 0.1 0.6 0.1 1.1 0.2 1.7 0.3 0.2 0 0.4 0.1 0.6 0.1 0.6 0.1 1.3 0.3 1.9 0.5h0.1c0.7 0.2 1.3 0.4 1.9 0.6 0.2 0.1 0.3 0.1 0.5 0.2l1.5 0.6c0.1 0.1 0.3 0.1 0.4 0.2 0.6 0.3 1.3 0.6 1.9 1l-9.8-5.6z" fill="#C68620" /><path d="M573.8 488.1c31.6-18.2 57.2-3.6 57.4 32.7s-25.4 80.5-57 98.7c-31.6 18.2-57.2 3.6-57.3-32.7s25.4-80.4 56.9-98.7z" fill="#FFCD2E" /><path d="M580.5 547.6c0.6 0.9 0.9 2.3 0.9 4.2 0 2.2-0.5 4.5-1.5 6.8s-2.4 4.5-4.3 6.6c-1.4 1.5-3 2.9-4.7 4.1v4c0 1.4-1 3.1-2.2 3.8-1.2 0.7-2.2 0.1-2.2-1.2v-4c-2.1 1-3.9 1.4-5.5 1.2-1.5-0.1-2.6-0.8-3.5-1.9-0.9-1.1-1.4-2.4-1.4-4 0-0.9 0.3-1.8 0.8-2.8 0.5-0.9 1.2-1.7 2.1-2.1 0.7-0.4 1.3-0.5 1.7-0.3 0.5 0.2 0.9 0.7 1.2 1.5 0.4 0.9 0.8 1.7 1.3 2.2 0.5 0.5 1.1 0.8 2 0.8 0.4 0 0.8-0.1 1.2-0.2V555c-1.8 0.5-3.4 0.8-4.7 0.9-1.5 0.1-2.8-0.3-3.7-1.3-0.9-0.9-1.4-2.4-1.4-4.5 0-2 0.5-4.1 1.4-6.2 0.9-2.1 2.3-4.1 4.1-6 1.2-1.3 2.6-2.4 4.1-3.5v-4.5c0-1.4 1-3.1 2.2-3.8 1.2-0.7 2.2-0.1 2.2 1.3v4.4c1.1-0.5 2.1-0.8 2.9-1 1.4-0.3 2.6-0.2 3.5 0.2 0.9 0.4 1.6 0.9 2.1 1.7 0.4 0.8 0.7 1.6 0.7 2.6 0 0.9-0.3 1.8-0.8 2.8-0.5 1-1.2 1.8-2 2.2-0.7 0.4-1.3 0.5-1.7 0.3-0.4-0.2-0.8-0.7-1.2-1.4-0.6-1-1.3-1.7-2.1-2-0.4-0.1-0.8-0.1-1.3 0v9.3c1.3-0.4 2.5-0.7 3.6-0.8 1.5-0.3 2.7-0.3 3.7 0 1.2 0.3 1.9 0.9 2.5 1.9z m-7.2 13.5c1.2-1.7 1.8-3.3 1.8-4.9 0-1.2-0.3-2-1-2.4-0.6-0.4-1.5-0.5-2.5-0.3-0.2 0-0.5 0.1-0.8 0.2v10c1-0.8 1.8-1.6 2.5-2.6m-6.9-13.2v-8.2c-0.9 0.7-1.6 1.5-2.2 2.3-1 1.4-1.5 2.7-1.5 3.9 0 0.7 0.2 1.3 0.5 1.6 0.4 0.3 0.8 0.5 1.4 0.5 0.6 0.1 1.2 0 1.8-0.1" fill="#C68620" /><path d="M579.5 583.6v-4l-10.8-6.3v4c0 0.7 0.2 1.2 0.6 1.4l10.8 6.3c-0.3-0.2-0.6-0.7-0.6-1.4z m8.5-18.8c0-0.3 0.1-0.5 0.1-0.8 0-0.9-0.2-1.6-0.5-2l-0.4-0.4-10.8-6.3c0.6 0.4 1 1.2 1 2.4 0 0.4 0 0.7-0.1 1.1v0.1c-0.1 0.4-0.2 0.7-0.3 1.1-0.1 0.4-0.3 0.8-0.5 1.2-0.2 0.4-0.5 0.8-0.8 1.3-0.3 0.5-0.7 0.9-1 1.3-0.1 0.1-0.1 0.2-0.2 0.2-0.4 0.4-0.8 0.8-1.2 1.1l10.8 6.3c0.3-0.3 0.6-0.5 0.9-0.8l0.3-0.3 0.2-0.2 0.2-0.2c0.2-0.2 0.3-0.4 0.5-0.6 0.1-0.2 0.2-0.3 0.4-0.5 0.1-0.1 0.2-0.3 0.3-0.4 0.1-0.1 0.2-0.3 0.3-0.4 0.1-0.1 0.1-0.3 0.2-0.4 0.1-0.1 0.1-0.2 0.2-0.4 0.1-0.1 0.1-0.2 0.2-0.4 0.1-0.1 0.1-0.2 0.1-0.4v-0.1c0-0.1 0-0.1 0.1-0.2 0-0.1 0.1-0.3 0.1-0.4 0-0.1 0.1-0.3 0.1-0.4v-0.2c-0.2-0.1-0.2-0.2-0.2-0.3z" fill="#E8CFAC" /><path d="M576.8 573.9l-10.8-6.3 10.8 6.3c0.1 0 0 0 0 0m0.1 0l-10.8-6.3c0.1 0 0.2 0.1 0.3 0.1l10.8 6.3c-0.2 0-0.3-0.1-0.3-0.1" fill="#E8CFAC" /><path d="M577.1 574l-10.8-6.3c0.1 0 0.2 0.1 0.3 0.1l10.8 6.3c-0.1 0-0.2-0.1-0.3-0.1" fill="#E8CFAC" /><path d="M577.4 574.1l-10.8-6.3c0.1 0 0.2 0.1 0.3 0.1l10.8 6.3c-0.1 0-0.2-0.1-0.3-0.1m0.3 0.1l-10.8-6.3h0.4l10.8 6.3h-0.4M578.1 574.2l-10.8-6.3h0.3l10.8 6.3h-0.3" fill="#E8CFAC" /><path d="M578.4 574.2l-10.8-6.3h0.3l10.8 6.3h-0.3m0.4 0l-10.8-6.3c0.2 0 0.4-0.1 0.6-0.1l10.8 6.3c-0.3 0-0.5 0.1-0.6 0.1" fill="#E8CFAC" /><path d="M579.3 574.1l-10.8-6.3c0.1 0 0.1 0 0.2-0.1l10.8 6.3s-0.1 0-0.2 0.1" fill="#E8CFAC" /><path d="M579.5 574l-10.8-6.2v-11.4l10.8 6.3z" fill="#E8CFAC" /><path d="M583.8 554.4l-10.8-6.3c0.1 0 0.3-0.1 0.4-0.1l10.8 6.3c-0.1 0.1-0.2 0.1-0.4 0.1m0.4-0.1l-10.8-6.3c1.2-0.3 2.3-0.6 3.2-0.7 0.1 0 0.3-0.1 0.4-0.1l10.8 6.3c-0.1 0-0.3 0-0.4 0.1-0.9 0.1-2 0.4-3.2 0.7m3.7-0.8l-10.8-6.3c0.4-0.1 0.8-0.1 1.2-0.1l10.8 6.3c-0.4 0-0.8 0-1.2 0.1" fill="#E8CFAC" /><path d="M589.1 553.4l-10.8-6.3h0.9l10.8 6.3h-0.9" fill="#E8CFAC" /><path d="M590 553.4l-10.8-6.3c0.3 0 0.5 0 0.8 0.1l10.8 6.3c-0.2-0.1-0.5-0.1-0.8-0.1" fill="#E8CFAC" /><path d="M590.8 553.5l-10.8-6.3c0.1 0 0.3 0 0.4 0.1 0.1 0 0.2 0 0.2 0.1l10.8 6.3c-0.1 0-0.1 0-0.2-0.1-0.2-0.1-0.3-0.1-0.4-0.1m0.6 0.1l-10.8-6.3c0.1 0 0.3 0.1 0.4 0.1l10.8 6.3c-0.1 0-0.3 0-0.4-0.1" fill="#E8CFAC" /><path d="M591.8 553.8l-10.8-6.3c0.1 0.1 0.3 0.1 0.4 0.2l10.8 6.3c-0.2-0.1-0.3-0.2-0.4-0.2m0.4 0.1l-10.8-6.3 10.8 6.3c0 0.1 0 0 0 0" fill="#E8CFAC" /><path d="M573.8 569.8l-10.8-6.3h-1.1c-0.1 0-0.1 0-0.2 0.1h-0.1c-0.1 0.1-0.3 0.1-0.4 0.2-0.4 0.2-0.7 0.5-1 0.8l-0.1 0.1-0.2 0.2c-0.1 0.1-0.1 0.2-0.2 0.3-0.1 0.1-0.1 0.2-0.2 0.2-0.1 0.1-0.1 0.2-0.2 0.2 0 0.1-0.1 0.2-0.1 0.2v0.1c0 0.1-0.1 0.1-0.1 0.2s-0.1 0.2-0.1 0.3c0 0.1-0.1 0.2-0.1 0.2 0 0.1-0.1 0.2-0.1 0.2 0 0.1-0.1 0.2-0.1 0.3 0 0.1 0 0.1-0.1 0.2v0.1c0 0.1-0.1 0.2-0.1 0.3 0 0.1-0.1 0.3-0.1 0.4v0.6c0 1.5 0.5 2.9 1.4 4 0.4 0.5 0.9 0.9 1.4 1.2l10.8 6.3c-0.5-0.3-1-0.7-1.4-1.2-0.9-1.1-1.4-2.4-1.4-4 0-0.4 0.1-0.9 0.2-1.4 0.1-0.5 0.3-0.9 0.6-1.4 0.3-0.5 0.6-0.9 0.9-1.2 0.3-0.4 0.7-0.6 1.1-0.9 0.2-0.1 0.3-0.2 0.5-0.2h0.1c0.1 0 0.3-0.1 0.4-0.1h0.4c0.1-0.1 0.3-0.1 0.4 0z m13.4-22.7c-0.5-0.9-1-1.5-1.7-1.8l-10.8-6.3c0.6 0.4 1.2 1 1.7 1.8 0.4 0.7 0.8 1.1 1.2 1.3l10.8 6.3c-0.4-0.2-0.8-0.7-1.2-1.3z m-8.3 8.6c0.2 0 0.3-0.1 0.5-0.1v-8.2l-10.8-6.3v8.2c-0.3 0.1-0.5 0.1-0.8 0.1h-1c-0.2 0-0.4 0-0.6-0.1-0.2 0-0.3-0.1-0.5-0.2l10.8 6.3c0.1 0 0.1 0.1 0.2 0.1s0.1 0.1 0.2 0.1h1.6c0.3 0.1 0.4 0.1 0.4 0.1z" fill="#E8CFAC" /><path d="M583.8 539.6l-10.8-6.3c0.2-0.1 0.4-0.2 0.6-0.2l10.8 6.3c-0.2 0-0.4 0.1-0.6 0.2m0.5-0.3l-10.8-6.3c0.6-0.3 1.2-0.5 1.7-0.6l10.8 6.3c-0.5 0.2-1 0.4-1.7 0.6m1.8-0.6l-10.8-6.3c0.2-0.1 0.4-0.1 0.6-0.1h0.3l10.8 6.3h-0.3c-0.2 0-0.4 0.1-0.6 0.1m0.9-0.2l-10.8-6.3c0.3-0.1 0.7-0.1 1-0.1l10.8 6.3c-0.3 0-0.6 0.1-1 0.1M588 538.4l-10.8-6.3h0.8l10.8 6.3h-0.8" fill="#E8CFAC" /><path d="M588.8 538.4l-10.8-6.3c0.2 0 0.4 0 0.6 0.1l10.8 6.3c-0.2 0-0.4-0.1-0.6-0.1" fill="#E8CFAC" /><path d="M589.4 538.5l-10.8-6.3c0.2 0 0.4 0.1 0.5 0.1l10.8 6.3c-0.2 0-0.3-0.1-0.5-0.1" fill="#E8CFAC" /><path d="M589.9 538.6l-10.8-6.3c0.1 0 0.2 0.1 0.4 0.1h0.1l10.8 6.3h-0.1c-0.2 0-0.3-0.1-0.4-0.1" fill="#E8CFAC" /><path d="M590.3 538.8l-10.8-6.3c0.2 0.1 0.4 0.2 0.5 0.3l10.8 6.3c-0.1-0.2-0.3-0.3-0.5-0.3m0.6 0.2l-10.8-6.3h0.1l10.7 6.3" fill="#E8CFAC" /><path d="M571.9 562.9l-10.8-6.3c-0.3-0.2-0.6-0.4-0.8-0.7-0.9-0.9-1.4-2.4-1.4-4.5 0-0.6 0-1.1 0.1-1.7l10.8 6.3c-0.1 0.6-0.1 1.2-0.1 1.7 0 2.1 0.5 3.6 1.4 4.5 0.3 0.3 0.5 0.5 0.8 0.7" fill="#E8CFAC" /><path d="M569.8 556l-10.8-6.3c0-0.4 0.1-0.8 0.2-1.1l10.8 6.3c0 0.4-0.1 0.8-0.2 1.1" fill="#E8CFAC" /><path d="M570 554.9l-10.8-6.3c0.1-0.3 0.1-0.6 0.2-0.9l10.8 6.3c0 0.3-0.1 0.6-0.2 0.9m0.3-0.9l-10.8-6.3c0.1-0.3 0.2-0.5 0.2-0.8l10.8 6.3c-0.1 0.3-0.2 0.6-0.2 0.8" fill="#E8CFAC" /><path d="M570.5 553.2l-10.8-6.3c0.1-0.2 0.2-0.5 0.3-0.7l10.8 6.3c-0.1 0.3-0.2 0.5-0.3 0.7" fill="#E8CFAC" /><path d="M570.8 552.5l-10.8-6.3c0.1-0.2 0.2-0.5 0.3-0.7l10.8 6.3c-0.1 0.2-0.2 0.5-0.3 0.7m0.3-0.7l-10.8-6.3c0-0.1 0.1-0.1 0.1-0.2 0.1-0.1 0.1-0.3 0.2-0.4l10.8 6.3c-0.1 0.1-0.1 0.3-0.2 0.4-0.1 0-0.1 0.1-0.1 0.2m0.3-0.7l-10.8-6.3c0.1-0.2 0.2-0.4 0.3-0.7l10.8 6.3c-0.1 0.3-0.2 0.5-0.3 0.7" fill="#E8CFAC" /><path d="M571.7 550.5l-10.8-6.3c0.1-0.2 0.2-0.4 0.4-0.7l10.8 6.3c-0.2 0.2-0.3 0.5-0.4 0.7" fill="#E8CFAC" /><path d="M572.1 549.8l-10.8-6.3c0.1-0.2 0.3-0.5 0.4-0.7l10.8 6.3c-0.2 0.2-0.3 0.5-0.4 0.7" fill="#E8CFAC" /><path d="M572.5 549.1l-10.8-6.3c0.2-0.3 0.3-0.5 0.5-0.8l10.8 6.3c-0.2 0.3-0.4 0.6-0.5 0.8" fill="#E8CFAC" /><path d="M573 548.4l-10.8-6.3c0.2-0.3 0.4-0.6 0.6-0.8l10.8 6.3c-0.2 0.2-0.4 0.5-0.6 0.8m0.6-0.9l-10.8-6.3c0.3-0.3 0.5-0.7 0.8-1l10.8 6.3c-0.2 0.3-0.5 0.7-0.8 1m0.9-1l-10.8-6.3c0.3-0.3 0.5-0.6 0.8-0.9l0.4-0.4 10.8 6.3-0.4 0.4c-0.3 0.3-0.6 0.6-0.8 0.9m1.2-1.3l-10.8-6.3c1.1-1.1 2.4-2.1 3.7-3.1l10.8 6.3c-1.3 0.9-2.6 2-3.7 3.1" fill="#E8CFAC" /><path d="M582.4 533.6h0.4c0.1 0 0.2 0.1 0.3 0.1l-10.8-6.3s-0.1 0-0.1-0.1H571.2c-0.1 0-0.2 0.1-0.3 0.2-0.3 0.1-0.5 0.3-0.7 0.6l-0.1 0.1-0.1 0.1-0.2 0.2c0 0.1-0.1 0.1-0.1 0.2s-0.1 0.1-0.1 0.2-0.1 0.1-0.1 0.2-0.1 0.1-0.1 0.2-0.1 0.1-0.1 0.2-0.1 0.1-0.1 0.2-0.1 0.1-0.1 0.2-0.1 0.1-0.1 0.2v0.2c0 0.1 0 0.2-0.1 0.3 0 0.1 0 0.2-0.1 0.3v4.9l10.8 6.3v-4.5c0-0.3 0.1-0.7 0.2-1.1 0.1-0.4 0.3-0.7 0.5-1.1 0.2-0.3 0.4-0.6 0.7-0.9 0.3-0.3 0.5-0.5 0.8-0.7 0.1-0.1 0.3-0.1 0.4-0.2h0.2z" fill="#E8CFAC" /><path d="M593.6 555.3c0.6 0.9 0.9 2.3 0.9 4.2 0 2.2-0.5 4.5-1.5 6.8s-2.4 4.5-4.3 6.6c-1.4 1.5-3 2.9-4.7 4.1v4c0 1.4-1 3.1-2.2 3.8-1.2 0.7-2.2 0.1-2.2-1.2v-4c-2.1 1-3.9 1.4-5.5 1.2-1.5-0.1-2.6-0.8-3.5-1.9-0.9-1.1-1.4-2.4-1.4-4 0-0.9 0.3-1.8 0.8-2.8 0.5-0.9 1.2-1.7 2.1-2.1 0.7-0.4 1.3-0.5 1.7-0.3 0.5 0.2 0.9 0.7 1.2 1.5 0.4 0.9 0.8 1.7 1.3 2.2 0.5 0.5 1.1 0.8 2 0.8 0.4 0 0.8-0.1 1.2-0.2v-11.3c-1.8 0.5-3.4 0.8-4.7 0.9-1.5 0.1-2.8-0.3-3.7-1.3-0.9-0.9-1.4-2.4-1.4-4.5 0-2 0.5-4.1 1.4-6.2 0.9-2.1 2.3-4.1 4.1-6 1.2-1.3 2.6-2.4 4.1-3.5v-4.5c0-1.4 1-3.1 2.2-3.8 1.2-0.7 2.2-0.1 2.2 1.3v4.4c1.1-0.5 2.1-0.8 2.9-1 1.4-0.3 2.6-0.2 3.5 0.2 0.9 0.4 1.6 0.9 2.1 1.7 0.4 0.8 0.7 1.6 0.7 2.6 0 0.9-0.3 1.8-0.8 2.8-0.5 1-1.2 1.8-2 2.2-0.7 0.4-1.3 0.5-1.7 0.3-0.4-0.2-0.8-0.7-1.2-1.4-0.6-1-1.3-1.7-2.1-2-0.4-0.1-0.8-0.1-1.3 0v9.3c1.3-0.4 2.5-0.7 3.6-0.8 1.5-0.3 2.7-0.3 3.7 0 1.1 0.4 1.9 1 2.5 1.9z m-7.3 13.5c1.2-1.7 1.8-3.3 1.8-4.9 0-1.2-0.3-2-1-2.4-0.6-0.4-1.5-0.5-2.5-0.3-0.2 0-0.5 0.1-0.8 0.2v10c1-0.7 1.8-1.6 2.5-2.6m-6.8-13.2v-8.2c-0.9 0.7-1.6 1.5-2.2 2.3-1 1.4-1.5 2.7-1.5 3.9 0 0.7 0.2 1.3 0.5 1.6 0.4 0.3 0.8 0.5 1.4 0.5 0.5 0.1 1.2 0.1 1.8-0.1" fill="#FFFFFF" /><path d="M703.6 478.4c-0.1-0.1-0.2-0.1-0.3-0.2-0.5-0.3-1-0.6-1.6-0.8-0.1-0.1-0.3-0.1-0.4-0.2-0.3-0.1-0.6-0.3-0.9-0.4-0.2-0.1-0.4-0.2-0.6-0.2-0.2-0.1-0.3-0.1-0.5-0.2-0.6-0.2-1.3-0.4-1.9-0.6h-0.1c-0.6-0.2-1.3-0.3-1.9-0.5-0.2 0-0.4-0.1-0.6-0.1-0.2 0-0.4-0.1-0.6-0.1-0.4-0.1-0.7-0.1-1.1-0.2-0.1 0-0.3 0-0.4-0.1-0.6-0.1-1.3-0.1-1.9-0.2H687c-0.4 0-0.7 0.1-1.1 0.1-0.3 0-0.5 0-0.8 0.1-0.8 0.1-1.5 0.2-2.3 0.3h-0.1c-0.8 0.1-1.7 0.3-2.6 0.5-0.3 0.1-0.6 0.1-0.8 0.2-0.5 0.1-1.1 0.2-1.6 0.4h-0.2c-1 0.3-2 0.6-3.1 1-0.2 0.1-0.4 0.2-0.6 0.2-0.8 0.3-1.7 0.6-2.5 1-0.1 0-0.2 0.1-0.3 0.1l-2.1 0.9c-0.1 0-0.2 0.1-0.3 0.1-0.8 0.4-1.6 0.7-2.3 1.1-0.2 0.1-0.5 0.2-0.7 0.4-0.9 0.5-1.8 0.9-2.6 1.4-0.9 0.5-1.8 1.1-2.7 1.7l-0.9 0.6-1.8 1.2c-0.3 0.2-0.7 0.5-1 0.7-0.6 0.4-1.1 0.8-1.7 1.2-0.3 0.3-0.7 0.5-1 0.8-0.6 0.4-1.1 0.9-1.7 1.3-0.3 0.3-0.6 0.5-1 0.8-0.6 0.5-1.3 1-1.9 1.6-0.2 0.2-0.5 0.4-0.7 0.6-0.8 0.7-1.7 1.5-2.5 2.3l-0.5 0.5c-0.6 0.5-1.1 1-1.7 1.6l-0.2 0.2c-1 1-2 2-2.9 3 0 0.1-0.1 0.1-0.1 0.2l-2.7 3-0.3 0.3c-0.3 0.4-0.7 0.8-1 1.2-0.4 0.4-0.7 0.8-1.1 1.3-0.4 0.5-0.9 1.1-1.3 1.6-0.3 0.4-0.7 0.9-1 1.3-0.1 0.1-0.1 0.2-0.2 0.2-0.1 0.1-0.2 0.3-0.3 0.4-1.1 1.4-2.1 2.8-3.2 4.3-0.1 0.1-0.2 0.3-0.3 0.4 0 0.1-0.1 0.1-0.1 0.2-1 1.4-2 2.9-2.9 4.3-0.1 0.1-0.2 0.3-0.3 0.4-0.1 0.2-0.3 0.4-0.4 0.6-0.8 1.2-1.5 2.4-2.2 3.6-0.1 0.2-0.2 0.4-0.4 0.6 0 0.1-0.1 0.1-0.1 0.2l-2.4 4.2c-0.1 0.1-0.1 0.2-0.2 0.3-0.1 0.2-0.2 0.5-0.4 0.7-0.6 1.1-1.2 2.3-1.7 3.4-0.1 0.2-0.2 0.5-0.4 0.7-0.1 0.1-0.1 0.3-0.2 0.4-0.7 1.5-1.4 2.9-2 4.4 0 0 0 0.1-0.1 0.1-0.1 0.2-0.1 0.3-0.2 0.5-0.6 1.3-1.1 2.7-1.6 4l-0.3 0.6c-0.1 0.2-0.1 0.4-0.2 0.5-0.6 1.6-1.2 3.2-1.7 4.8v0.1c-0.3 1.1-0.7 2.1-1 3.2l-0.3 0.9c-0.2 0.6-0.4 1.2-0.5 1.8-0.1 0.2-0.1 0.4-0.2 0.6-0.1 0.5-0.3 1-0.4 1.5-0.2 0.7-0.3 1.3-0.5 2l-0.3 1.5c-0.1 0.3-0.2 0.7-0.2 1-0.1 0.2-0.1 0.5-0.1 0.7-0.2 0.7-0.3 1.5-0.4 2.2-0.1 0.5-0.2 1-0.3 1.6-0.1 0.8-0.2 1.5-0.3 2.3-0.1 0.4-0.1 0.7-0.2 1.1 0 0.2 0 0.3-0.1 0.5 0 0.4-0.1 0.7-0.1 1.1-0.1 0.7-0.2 1.5-0.2 2.2 0 0.4-0.1 0.8-0.1 1.1-0.1 0.7-0.1 1.5-0.1 2.2v1c0 1.1-0.1 2.1-0.1 3.1 0.1 18 6.4 30.7 16.7 36.7l9.8 5.7c-10.3-6-16.6-18.6-16.7-36.7 0-1 0-2.1 0.1-3.1v-1c0-0.7 0.1-1.5 0.1-2.2 0-0.4 0.1-0.8 0.1-1.1 0.1-0.7 0.1-1.5 0.2-2.2 0-0.4 0.1-0.7 0.1-1.1 0.1-0.5 0.1-1 0.2-1.5 0.1-0.8 0.2-1.5 0.3-2.3 0.1-0.5 0.2-1 0.3-1.6 0.1-0.7 0.3-1.5 0.4-2.2 0.1-0.6 0.2-1.2 0.4-1.8l0.3-1.5c0.2-0.7 0.3-1.3 0.5-2 0.1-0.5 0.3-1 0.4-1.5 0.2-0.8 0.4-1.6 0.7-2.4l0.3-0.9c0.3-1.1 0.7-2.2 1-3.2 0.5-1.6 1.1-3.2 1.7-4.8 0.2-0.4 0.3-0.8 0.5-1.2 0.5-1.3 1.1-2.7 1.6-4l0.3-0.6c0.6-1.5 1.3-2.9 2-4.4 0.2-0.4 0.4-0.8 0.6-1.1 0.6-1.2 1.1-2.3 1.7-3.4 0.2-0.4 0.4-0.7 0.6-1.1l2.4-4.2c0.2-0.3 0.3-0.5 0.5-0.8 0.7-1.2 1.5-2.4 2.2-3.6 0.2-0.4 0.4-0.7 0.7-1.1 0.9-1.5 1.9-2.9 2.9-4.3 0.2-0.2 0.3-0.4 0.5-0.6 1-1.5 2.1-2.9 3.2-4.3 0.2-0.2 0.3-0.4 0.5-0.6 0.3-0.4 0.7-0.9 1-1.3 0.4-0.5 0.9-1.1 1.3-1.6 0.4-0.4 0.7-0.9 1.1-1.3 0.4-0.5 0.8-1 1.3-1.5l2.7-3 0.1-0.1c1-1 1.9-2 2.9-3 0.6-0.6 1.3-1.2 1.9-1.8l0.5-0.5c0.8-0.8 1.7-1.5 2.5-2.3 0.2-0.2 0.5-0.4 0.7-0.6 0.6-0.5 1.2-1.1 1.9-1.6 0.3-0.3 0.6-0.5 1-0.8 0.6-0.4 1.1-0.9 1.7-1.3 0.3-0.3 0.7-0.5 1-0.8 0.6-0.4 1.1-0.8 1.7-1.2 0.3-0.2 0.7-0.5 1-0.7l1.8-1.2 0.9-0.6c0.9-0.6 1.8-1.1 2.7-1.7 0.9-0.5 1.8-1 2.6-1.4 0.2-0.1 0.5-0.2 0.7-0.4 0.8-0.4 1.6-0.8 2.3-1.1 0.1 0 0.2-0.1 0.3-0.1 0.8-0.4 1.6-0.7 2.4-1 0.9-0.3 1.7-0.7 2.5-1 0.2-0.1 0.4-0.2 0.6-0.2 1-0.4 2.1-0.7 3.1-1 0.6-0.2 1.2-0.3 1.8-0.4 0.3-0.1 0.6-0.1 0.8-0.2 0.9-0.2 1.7-0.3 2.6-0.5h0.1c0.8-0.1 1.6-0.2 2.3-0.3 0.3 0 0.5 0 0.8-0.1 0.6 0 1.1-0.1 1.6-0.1h3c0.7 0 1.4 0.1 2.1 0.2 0.1 0 0.3 0 0.4 0.1 0.6 0.1 1.1 0.2 1.7 0.3 0.2 0 0.4 0.1 0.6 0.1 0.6 0.1 1.3 0.3 1.9 0.5h0.1c0.7 0.2 1.3 0.4 1.9 0.6 0.2 0.1 0.3 0.1 0.5 0.2l1.5 0.6c0.1 0.1 0.3 0.1 0.4 0.2 0.6 0.3 1.3 0.6 1.9 1l-9.8-5.6z" fill="#C68620" /><path d="M672.8 488.1c31.6-18.2 57.2-3.6 57.4 32.7s-25.4 80.5-57 98.7c-31.6 18.2-57.2 3.6-57.3-32.7s25.3-80.4 56.9-98.7z" fill="#FFCD2E" /><path d="M678.6 521.9c0.9-0.5 1.9-0.7 2.6-0.3 1.4 0.8 1.4 3.5 0 5.9l-8.5 14.7 7.9-4.5c2-1.2 3.7-0.2 3.7 2.1 0 2.3-1.6 5.1-3.6 6.3l-9.4 5.4v5.6l9.4-5.4c2-1.2 3.7-0.2 3.7 2.1 0 2.3-1.6 5.1-3.6 6.3l-9.4 5.4v7.4c0 2.3-1.6 5.1-3.6 6.3-2 1.2-3.6 0.2-3.6-2.1v-7.4l-9.4 5.4c-2 1.2-3.6 0.2-3.7-2.1 0-2.3 1.6-5.1 3.6-6.3l9.4-5.4v-5.6l-9.4 5.4c-2 1.2-3.6 0.2-3.7-2.1 0-2.3 1.6-5.1 3.6-6.3l7.9-4.5-8.5-4.9c-1.4-0.8-1.4-3.5 0-5.9 0.7-1.2 1.6-2.2 2.6-2.7 0.9-0.5 1.9-0.7 2.6-0.3l8.5 4.8 8.5-14.6c0.6-1.2 1.5-2.1 2.4-2.7z" fill="#C68620" /><path d="M672.5 583.6v-7.4l-7.2-4.2v7.4c0 1.2 0.4 2 1.1 2.3l7.2 4.2c-0.7-0.3-1.1-1.1-1.1-2.3z m17.4-25.8c0.2-0.1 0.4-0.1 0.6-0.1h0.7c0.2 0 0.4 0.1 0.5 0.2l-7.2-4.2c-0.1 0-0.1-0.1-0.2-0.1s-0.1 0-0.2-0.1H683.3c-0.1 0-0.2 0-0.3 0.1h-0.2c-0.1 0-0.1 0-0.2 0.1-0.2 0.1-0.3 0.2-0.5 0.3l-9.4 5.4 7.2 4.2 9.4-5.4c0.2-0.1 0.5-0.2 0.7-0.3-0.1 0-0.1-0.1-0.1-0.1z m0-13.9c0.2-0.1 0.4-0.1 0.6-0.1h0.7c0.2 0 0.4 0.1 0.5 0.2l-7.2-4.2c-0.1 0-0.1-0.1-0.2-0.1s-0.1 0-0.2-0.1H683.3c-0.1 0-0.2 0-0.3 0.1h-0.2c-0.1 0-0.1 0-0.2 0.1-0.2 0.1-0.3 0.2-0.5 0.3l-7.9 4.5 7.2 4.2 7.9-4.5c0.2-0.1 0.5-0.2 0.7-0.3-0.2-0.1-0.1-0.1-0.1-0.1z m-17.4 23.9l-7.2-4.2V558l7.2 4.2z" fill="#E8CFAC" /><path d="M659.6 578.5c0-0.3 0.1-0.5 0.2-0.8v-0.1l0.3-0.9c0.1-0.3 0.3-0.6 0.4-0.9 0.2-0.3 0.3-0.5 0.5-0.8l0.1-0.1c0.2-0.2 0.3-0.4 0.5-0.6l0.1-0.1c0.1-0.2 0.3-0.3 0.5-0.4l0.2-0.2c0.2-0.2 0.5-0.3 0.7-0.5l9.4-5.4-7.2-4.2-9.3 5.5c-0.2 0.1-0.5 0.3-0.7 0.5l-0.2 0.2-0.3 0.3-0.1 0.1-0.1 0.1-0.1 0.1c-0.1 0.1-0.2 0.2-0.3 0.4l-0.1 0.1-0.1 0.1-0.1 0.1c-0.1 0.1-0.1 0.2-0.2 0.3-0.1 0.1-0.1 0.2-0.2 0.3 0 0.1-0.1 0.2-0.1 0.3-0.1 0.1-0.1 0.2-0.2 0.3 0 0.1-0.1 0.2-0.1 0.3 0 0.1-0.1 0.2-0.1 0.3 0 0.1-0.1 0.2-0.1 0.3 0 0.1 0 0.1-0.1 0.2v0.2c0 0.1-0.1 0.3-0.1 0.4v1.2c0 1.1 0.4 2 1.1 2.3l7.2 4.2c-0.7-0.4-1.1-1.2-1.1-2.3 0-0.3 0-0.6 0.1-0.8-0.4 0.1-0.4 0.1-0.4 0z m26.1-48.9l0.1-0.1c0.1-0.2 0.3-0.3 0.4-0.4l0.2-0.2c0.2-0.2 0.4-0.3 0.7-0.5l0.6-0.3h0.1c0.2-0.1 0.4-0.1 0.6-0.1h0.7c0.2 0 0.4 0.1 0.6 0.2l-7.2-4.2c-0.1 0-0.1-0.1-0.2-0.1s-0.1 0-0.2-0.1H681.2c-0.1 0-0.2 0-0.3 0.1-0.1 0-0.1 0-0.2 0.1h-0.2c-0.2 0.1-0.3 0.2-0.5 0.3-0.2 0.1-0.4 0.3-0.7 0.5l-0.2 0.2c-0.1 0.1-0.2 0.2-0.4 0.3l-0.1 0.1-0.1 0.1-0.2 0.2c-0.1 0.1-0.2 0.2-0.3 0.4 0 0 0 0.1-0.1 0.1v0.1c0 0.1-0.1 0.1-0.1 0.2-0.1 0.1-0.1 0.2-0.2 0.3-0.1 0.1-0.1 0.2-0.2 0.3l-8.5 14.6 7.2 4.2 8.5-14.6c0.2-0.3 0.4-0.6 0.5-0.8v-0.1c0.2-0.4 0.4-0.6 0.6-0.8z" fill="#E8CFAC" /><path d="M659.5 564.6c0-0.3 0.1-0.5 0.2-0.8v-0.1l0.3-0.9c0.1-0.3 0.3-0.6 0.4-0.9 0.2-0.3 0.3-0.5 0.5-0.8v-0.1c0.2-0.2 0.3-0.4 0.5-0.6l0.1-0.1c0.1-0.2 0.3-0.3 0.5-0.4l0.2-0.2c0.2-0.2 0.5-0.3 0.7-0.5l7.9-4.5-7.2-4.2-7.9 4.5c-0.2 0.1-0.5 0.3-0.7 0.5l-0.2 0.2-0.3 0.3-0.1 0.1-0.1 0.1c0 0.1-0.1 0.1-0.1 0.2-0.1 0.1-0.2 0.2-0.3 0.4l-0.1 0.1-0.1 0.1-0.1 0.1c-0.1 0.1-0.1 0.2-0.2 0.3-0.1 0.1-0.1 0.2-0.2 0.3 0 0.1-0.1 0.2-0.1 0.3-0.1 0.1-0.1 0.2-0.2 0.3 0 0.1-0.1 0.2-0.1 0.3 0 0.1-0.1 0.2-0.1 0.3 0 0.1-0.1 0.2-0.1 0.3 0 0.1 0 0.1-0.1 0.2v0.2c0 0.1-0.1 0.3-0.1 0.4v1.2c0 1.1 0.4 2 1.1 2.3l7.2 4.2c-0.7-0.4-1.1-1.2-1.1-2.3 0-0.3 0-0.6 0.1-0.8-0.2 0.1-0.2 0-0.2 0z" fill="#E8CFAC" /><path d="M667.6 541l-7.2-4.2 8.5 4.9 7.2 4.1z" fill="#8D929A" /><path d="M687.1 528.4c0.9-0.5 1.9-0.7 2.6-0.3 1.4 0.8 1.4 3.5 0 5.9l-8.5 14.7 7.9-4.5c2-1.2 3.7-0.2 3.7 2.1 0 2.3-1.6 5.1-3.6 6.3l-9.4 5.4v5.6l9.4-5.4c2-1.2 3.7-0.2 3.7 2.1 0 2.3-1.6 5.1-3.6 6.3l-9.4 5.4v7.4c0 2.3-1.6 5.1-3.6 6.3-2 1.2-3.6 0.2-3.6-2.1v-7.4l-9.4 5.4c-2 1.2-3.6 0.2-3.7-2.1 0-2.3 1.6-5.1 3.6-6.3l9.4-5.4v-5.6l-9.4 5.4c-2 1.2-3.6 0.2-3.7-2.1 0-2.3 1.6-5.1 3.6-6.3l7.9-4.5-8.5-4.9c-1.4-0.8-1.4-3.5 0-5.9 0.7-1.2 1.6-2.2 2.6-2.7 0.9-0.5 1.9-0.7 2.6-0.3l8.5 4.8 8.5-14.6c0.5-1.2 1.5-2.1 2.4-2.7z" fill="#FFFFFF" /><path d="M662.4 549.9l-7.2-4.2c-0.9-0.5-1.2-1.7-1-3.1l7.2 4.2c-0.2 1.4 0.2 2.6 1 3.1" fill="#E8CFAC" /><path d="M661.4 546.8l-7.2-4.2c0-0.2 0.1-0.3 0.1-0.5l7.2 4.2c-0.1 0.2-0.1 0.3-0.1 0.5" fill="#E8CFAC" /><path d="M661.5 546.3l-7.2-4.2c0-0.1 0.1-0.3 0.1-0.4l7.2 4.2c-0.1 0.1-0.1 0.3-0.1 0.4" fill="#E8CFAC" /><path d="M661.6 545.9l-7.2-4.2c0-0.1 0.1-0.2 0.1-0.4l7.2 4.2c0 0.1-0.1 0.3-0.1 0.4" fill="#E8CFAC" /><path d="M661.7 545.5l-7.2-4.2c0-0.1 0.1-0.2 0.1-0.3l7.2 4.2c0 0.1-0.1 0.2-0.1 0.3" fill="#E8CFAC" /><path d="M661.8 545.2l-7.2-4.2c0-0.1 0.1-0.2 0.1-0.3l7.2 4.2c0 0.1 0 0.2-0.1 0.3m0.2-0.4l-7.2-4.2c0-0.1 0.1-0.2 0.1-0.3l7.2 4.2c-0.1 0.1-0.1 0.2-0.1 0.3M662.1 544.5l-7.2-4.2c0.1-0.1 0.1-0.2 0.2-0.3l7.2 4.2c-0.1 0.1-0.2 0.2-0.2 0.3" fill="#E8CFAC" /><path d="M662.3 544.2l-7.2-4.2c0.1-0.1 0.1-0.2 0.2-0.3l7.2 4.2c-0.1 0.1-0.2 0.2-0.2 0.3" fill="#E8CFAC" /><path d="M662.4 543.9l-7.2-4.2c0.1-0.1 0.1-0.2 0.2-0.3l7.2 4.2c0 0.1-0.1 0.2-0.2 0.3" fill="#E8CFAC" /><path d="M662.6 543.6l-7.2-4.2c0.1-0.1 0.1-0.2 0.2-0.3l7.2 4.2c0 0.1-0.1 0.2-0.2 0.3m0.2-0.3l-7.2-4.2c0.1-0.1 0.2-0.2 0.2-0.3l7.2 4.2c0 0.1-0.1 0.2-0.2 0.3m0.3-0.3l-7.2-4.2c0.1-0.1 0.2-0.2 0.3-0.4l7.2 4.2c-0.1 0.1-0.2 0.2-0.3 0.4M663.4 542.6l-7.2-4.2 0.4-0.4 7.2 4.2c-0.2 0.1-0.3 0.2-0.4 0.4" fill="#E8CFAC" /><path d="M663.8 542.2l-7.2-4.2c0.4-0.4 0.8-0.7 1.2-1 0.2-0.1 0.3-0.2 0.5-0.3l7.2 4.2c-0.2 0.1-0.3 0.2-0.5 0.3-0.4 0.3-0.8 0.6-1.2 1" fill="#E8CFAC" /><path d="M665.5 541l-7.2-4.2c0.1-0.1 0.3-0.1 0.4-0.1l7.2 4.2c-0.1 0-0.3 0-0.4 0.1m0.4-0.2l-7.2-4.2c0.1 0 0.2-0.1 0.3-0.1l7.2 4.2c-0.1 0.1-0.2 0.1-0.3 0.1" fill="#E8CFAC" /><path d="M666.2 540.8l-7.2-4.2h0.3l7.2 4.2c-0.1-0.1-0.2-0.1-0.3 0m0.3-0.1l-7.2-4.2h0.2l7.2 4.2h-0.2m0.3 0l-7.2-4.2h0.2l7.2 4.2h-0.2" fill="#E8CFAC" /><path d="M667 540.8l-7.2-4.2h0.2l7.2 4.2h-0.2" fill="#E8CFAC" /><path d="M667.2 540.8l-7.2-4.2c0.1 0 0.1 0 0.2 0.1l7.2 4.2c-0.1-0.1-0.2-0.1-0.2-0.1" fill="#E8CFAC" /><path d="M667.4 540.9l-7.2-4.2c0.1 0 0.1 0.1 0.2 0.1l7.2 4.2c-0.1-0.1-0.2-0.1-0.2-0.1" fill="#E8CFAC" /><path d="M667.5 541l-7.2-4.2 7.2 4.2c0.1 0 0.1 0 0 0" fill="#E8CFAC" /></svg>