<svg width="64" height="64" viewBox="0 0 64 64" fill="none" xmlns="http://www.w3.org/2000/svg">
<path d="M42.3002 40.5C42.3002 40.5 40.7002 38.7 38.5002 38.7C36.2002 38.7 34.2002 41.6 35.4002 44C37.9002 48.9 37.3002 51.3999 34.8002 52.2999C32.3002 53.1999 32.7002 52.2 34.1002 51.5C36.4002 50.4 37.7002 51.3 40.3002 51.9C42.5002 52.5 44.7002 50.7 42.6002 52C42.1002 52.3 37.3002 52.5 37.3002 48.5C37.3002 42.8 31.0002 45.5999 32.0002 45.5999C33.1002 45.5999 41.4002 45.5999 41.4002 45.5999" stroke="#84cc16" stroke-width="1.6355" stroke-miterlimit="10"/>
<path d="M29.4996 20C29.4996 20 20.9996 20 19.8996 20C18.8996 20 21.8996 19.6 23.5996 19.8C24.3996 19.9 24.6996 27 24.6996 27C24.6996 19.5 24.6996 19.5 24.6996 17.2C24.6996 16 29.7996 10.5 29.7996 10.5L24.6996 16.2L19.5996 10.5L18.1996 8.99995C18.1996 8.99995 20.5996 7.19995 24.3996 7.19995C28.8996 7.19995 35.1996 10.7 35.1996 18.3C35.1996 25.3 30.0996 29.2 23.8996 29.2C17.7996 29.2 12.5996 24.3 12.5996 18.3C12.5996 13.3 16.2996 10.6 16.2996 10.6" stroke="#84cc16" stroke-width="1.6355" stroke-miterlimit="10"/>
<path d="M42.0998 40.3999V36.5999C42.0998 36.5999 39.3998 34.4999 35.7998 35.2999C32.4998 35.9999 26.7998 39.0999 26.7998 46.7999C26.7998 53.1999 32.2998 57.4999 38.3998 57.4999C43.7998 57.5999 48.9998 52.9999 48.9998 46.5999C48.9998 41.8999 45.2998 37.4999 45.2998 37.4999C45.2998 37.4999 49.5998 36.9999 53.0998 33.5999C54.6998 31.9999 56.9998 29.0999 56.9998 24.3999C56.9998 18.4999 52.5998 12.7999 45.9998 12.7999C38.7998 12.7999 34.4998 18.1999 34.4998 24.4999C34.4998 28.0999 36.3998 31.1999 39.0998 33.0999C42.1998 35.2999 45.8998 35.0999 45.8998 35.0999C45.8998 35.0999 45.8998 14.7999 45.8998 15.6999C45.8998 17.0999 49.8998 19.6999 49.1998 19.6999C48.9998 19.6999 47.5998 19.0999 45.8998 19.0999C43.7998 19.0999 41.9998 19.8999 41.9998 21.6999C41.9998 23.4999 44.4998 24.3999 45.5998 24.7999C47.1998 25.2999 49.7998 26.3999 49.7998 28.1999C49.7998 30.0999 48.3998 31.1999 45.8998 31.1999C43.2998 31.1999 40.8998 28.6999 40.8998 28.6999" stroke="#84cc16" stroke-width="1.6355" stroke-miterlimit="10"/>
<path d="M29.3998 22.6H19.2998" stroke="#84cc16" stroke-width="1.6355" stroke-miterlimit="10"/>
<path d="M22.4003 37.9C22.4003 37.9 11.1003 37.9 10.5003 37.9C9.9003 37.9 10.3003 37.5 12.1003 37.7C12.5003 37.8 12.1003 40.8 13.1003 42.9C14.1003 44.9 16.0003 45.7 17.9003 45.7C20.7003 45.7 21.5003 43.7999 21.9003 44.0999C22.0003 44.2999 20.4003 46.0999 17.9003 46.0999C15.8003 46.0999 13.7003 44.6 12.8003 42C12.3003 40.5 12.0003 38.6 12.7003 36.5C13.3003 34.7 14.7003 32.2 17.9003 32.2C20.3003 32.2 21.5003 33.7 21.5003 33.7" stroke="#84cc16" stroke-width="1.6355" stroke-miterlimit="10"/>
<path d="M26.9 44.9999C26.9 44.9999 23.6 50.2999 17.2 50.2999C10.8 50.2999 6 45.1999 6 39.4999C6 32.6999 10.8 27.8999 17.1 27.8999C22 27.8999 24.9 31.0999 26.4 33.9999C27.8 36.6999 27.4 40.5999 27.4 40.5999H9.4" stroke="#84cc16" stroke-width="1.6355" stroke-miterlimit="10"/>
</svg>
