<svg xmlns="http://www.w3.org/2000/svg" xmlns:xlink="http://www.w3.org/1999/xlink" width="754" height="641" fill="none" xmlns:v="https://vecta.io/nano"><style><![CDATA[.B{fill-rule:evenodd}.C{fill:#fff}.D{fill:#0b70e7}.E{opacity:.5}.F{fill:#bbcdec}.G{fill:#38ffbb}]]></style><g opacity=".177" filter="url(#A)" class="B"><path d="M248.761 463.954l270.105-153.622c1.53-.889 3.568-1.379 5.74-1.379s4.207.489 5.735 1.377l124.994 72.593c1.555.902 2.413 2.118 2.413 3.422s-.855 2.52-2.41 3.427L385.387 543.451c-1.531.89-3.571 1.381-5.745 1.381-2.168 0-4.202-.488-5.729-1.374l-125.152-72.66c-1.554-.903-2.411-2.117-2.411-3.42s.855-2.519 2.411-3.424z" fill="#111fa0"/></g><path d="M167.459 420.742v-1.984l.046-.014c-.201-1.595.732-3.231 2.826-4.445L502.092 226.3c3.824-2.216 10.079-2.216 13.902-.003l153.502 88.838c1.953 1.13 2.84 2.627 2.84 4.119v13.022c-.638 6.307-2.983 12.442-10.607 16.767L337.935 532.704c-3.823 2.217-10.074 2.221-13.898.009l-148.848-86.101c-5.259-3.483-7.603-9.617-7.73-25.87z" class="B C"/><path opacity=".429" d="M232.702 465.647l25.442 14.589c1.379.788 2.637 2.73 2.637 4.316v1.797c0 1.586-.903 2.239-2.281 1.451l-25.91-14.589c-1.379-.788-3.104-2.73-3.104-4.316v-1.797c0-1.586 1.837-2.238 3.216-1.451zm72.981 44.565c-.543.309-.824.875-.842 1.697s.23 1.661.747 2.516 1.153 1.473 1.91 1.853 1.407.409 1.949.085.825-.895.843-1.717-.231-1.654-.748-2.495-1.153-1.453-1.91-1.833-1.407-.415-1.949-.106zm-7.218-4.124c-.542.309-.823.875-.841 1.697s.23 1.661.746 2.516 1.154 1.473 1.911 1.853 1.407.408 1.949.085.824-.895.843-1.717-.231-1.654-.748-2.495-1.153-1.453-1.91-1.833-1.407-.415-1.95-.106zm-7.217-4.124c-.542.309-.823.875-.842 1.697s.231 1.661.747 2.516 1.154 1.473 1.91 1.853 1.407.408 1.95.085.824-.895.843-1.717-.231-1.654-.748-2.496-1.154-1.452-1.91-1.832-1.407-.416-1.95-.106zm-7.217-4.124c-.543.309-.823.875-.842 1.697s.231 1.661.747 2.516 1.153 1.473 1.91 1.853 1.407.408 1.95.085.824-.895.842-1.717-.23-1.654-.747-2.496-1.154-1.452-1.911-1.832-1.406-.416-1.949-.106zm-7.217-4.124c-.543.309-.824.875-.842 1.697s.23 1.66.747 2.516 1.153 1.472 1.91 1.852 1.407.409 1.95.086.824-.896.842-1.718-.231-1.654-.748-2.495-1.153-1.452-1.91-1.832-1.407-.416-1.949-.106zm-63.924-38.149c-.543.31-.824.875-.842 1.698s.23 1.66.747 2.515 1.153 1.473 1.91 1.853 1.407.409 1.95.086.824-.896.842-1.718-.231-1.654-.748-2.495-1.153-1.453-1.91-1.833-1.407-.415-1.949-.106zm-7.218-4.124c-.542.31-.823.875-.841 1.697s.23 1.661.747 2.516 1.153 1.473 1.91 1.853 1.407.409 1.949.086.824-.896.843-1.718-.231-1.654-.748-2.495-1.153-1.453-1.91-1.833-1.407-.415-1.95-.106zm-7.217-4.124c-.542.31-.823.875-.842 1.697s.231 1.661.747 2.516 1.154 1.473 1.91 1.853 1.407.409 1.95.085.824-.895.843-1.717-.231-1.654-.748-2.495-1.154-1.453-1.91-1.833-1.407-.415-1.95-.106zm-7.217-4.124c-.542.309-.823.875-.842 1.697s.231 1.661.747 2.516 1.154 1.473 1.91 1.853 1.407.408 1.95.085.824-.895.842-1.717-.23-1.654-.747-2.495-1.154-1.453-1.911-1.833-1.406-.415-1.949-.106zm-7.217-4.124c-.543.309-.824.875-.842 1.697s.23 1.661.747 2.516 1.153 1.473 1.91 1.853 1.407.408 1.95.085.824-.895.842-1.717-.23-1.654-.748-2.496-1.153-1.452-1.91-1.832-1.406-.415-1.949-.106z" fill="#111454" class="B"/><g class="B"><path d="M170.228 414.136l331.764-187.998c1.879-1.088 4.382-1.687 7.05-1.687s5.168.598 7.045 1.684l153.527 88.838c1.91 1.104 2.964 2.592 2.964 4.187s-1.05 3.085-2.961 4.194L338.043 511.422c-1.881 1.09-4.387 1.691-7.057 1.691-2.663 0-5.162-.598-7.037-1.682l-153.721-88.919c-1.91-1.105-2.963-2.591-2.963-4.186s1.051-3.082 2.963-4.19z" fill="url(#B)"/><path opacity=".506" d="M337.51 532.927c-3.39 1.749-8.398 1.905-12.066.457v-33.563h12.066v33.106z" fill="url(#C)"/><path d="M182.565 411.804l320.563-181.857c3.625-2.1 9.557-2.1 13.181-.003l23.49 13.592c8.848 6.245-4.2 8.998 6.665 14.964 11.491 6.31 51.138 29.638 58.799 33.845 7.236 3.974 15.891-.663 20.467.915l36.112 20.896c3.626 2.097 3.627 5.533.005 7.636L341.464 503.715c-3.625 2.101-9.555 2.105-13.18.007l-145.718-84.288c-6.581-3.888-5.98-4.263-.001-7.63z" fill="url(#D)"/><path opacity=".15" d="M595.021 373.139L548.57 399.67c-1.088.622-1.98 2.154-1.98 3.406v1.418c0 1.252.646 1.767 1.733 1.145l46.82-26.531c1.088-.622 2.349-2.154 2.349-3.406v-1.419c0-1.251-1.383-1.766-2.471-1.144z" fill="#09157f"/></g><path opacity=".05" d="M273.959 25.817l160.539 89.906v350l-160.539-89.906z" class="D"/><path transform="matrix(.872496 .488621 0 1 260 -.000732)" fill="url(#E)" d="M0 0h184v350H0z"/><path fill="#e1efff" d="M260 157.999l160.539 89.906v15L260 172.999z"/><path d="M260 172.999l160.539 89.906v34L260 206.999zm0 64l160.539 89.906v34L260 270.999z" fill="#f0f7ff"/><g fill="#000"><path d="M350.136 213.63l1.078.604a1.72 1.72 0 0 1 .625.574 1.32 1.32 0 0 1 .223.729c0 .256-.075.416-.226.481s-.356.024-.622-.124l-.628-.352v1.188l-.45-.252v-2.848zm1.026 1.834c.156.088.273.117.352.09s.123-.113.123-.252a.67.67 0 0 0-.119-.386 1.01 1.01 0 0 0-.356-.312l-.576-.322v.86l.576.322zm3.343 3.461l-.474-.266-.318-1.126c-.028-.103-.071-.189-.129-.256s-.134-.127-.227-.179l-.45-.252v1.184l-.447-.251v-2.848l1.065.597a1.8 1.8 0 0 1 .642.571 1.31 1.31 0 0 1 .22.731c0 .19-.044.326-.133.41s-.209.107-.37.073c.147.117.253.293.318.53l.303 1.082zm-1.043-2.169c.17.096.295.13.377.104s.122-.113.122-.26a.65.65 0 0 0-.122-.388 1.14 1.14 0 0 0-.377-.32l-.562-.314v.864l.562.314zm1.449-.452l.45.252v2.848l-.45-.252v-2.848zm2.115 4.069c-.244-.137-.458-.317-.642-.54s-.321-.469-.419-.743a2.57 2.57 0 0 1-.146-.858c0-.293.049-.522.146-.686a.52.52 0 0 1 .419-.273c.184-.017.398.043.642.18a2.22 2.22 0 0 1 .472.355 2.27 2.27 0 0 1 .37.456l-.147.294a2.52 2.52 0 0 0-.335-.412c-.109-.109-.227-.199-.353-.269-.239-.135-.425-.15-.558-.045s-.195.325-.195.658a1.93 1.93 0 0 0 .195.886 1.38 1.38 0 0 0 .558.581c.126.07.244.113.353.129s.223.001.335-.04l.147.458c-.098.052-.222.067-.37.044s-.304-.082-.472-.175zm1.262-2.178l1.662.931v.408l-1.222-.684v.788l1.148.643v.408l-1.148-.643v.836l1.222.684v.408l-1.662-.931v-2.848zm16.167 11.818c.051.132.114.265.188.397l.262.423-.304.11a4.71 4.71 0 0 1-.317-.506c-.098-.18-.184-.363-.258-.549a1.06 1.06 0 0 1-.102-.053 2.21 2.21 0 0 1-.628-.527 2.52 2.52 0 0 1-.412-.739c-.095-.275-.143-.561-.143-.86s.048-.527.143-.692.232-.261.409-.279.389.042.631.177.452.312.628.528a2.38 2.38 0 0 1 .409.737 2.62 2.62 0 0 1 .143.852c0 .325-.057.572-.171.74a.51.51 0 0 1-.478.241zm-1.26-2.05c0 .339.064.634.192.887a1.32 1.32 0 0 0 .537.573c.231.129.41.139.538.029s.192-.333.192-.672-.064-.629-.192-.88-.307-.444-.538-.573-.409-.14-.537-.033-.192.33-.192.669zm2.806.576l-.809-.454v-.424l2.076 1.163v.424l-.813-.455v2.424l-.454-.254v-2.424zm2.683 2.798v1.128l-.45-.252v-1.128l-1.008-2.285.513.288.719 1.69.722-.883.513.287-1.009 1.155zm15.855 9.34l-1.215-.681-.251.528-.454-.254 1.124-2.219.366.205 1.128 3.48-.451-.253-.247-.806zm-.15-.484l-.458-1.476-.457.964.915.512zm3.538.201v2.848l-.397-.222v-1.768l-.66 1.398-.297-.166-.663-2.119v1.748l-.398-.223v-2.848l.356.199.855 2.707.848-1.753.356.199zm1.646 3.806a2.2 2.2 0 0 1-.628-.528c-.177-.219-.314-.465-.412-.738s-.143-.562-.143-.86.048-.527.143-.692.232-.261.409-.28.389.043.631.178a2.2 2.2 0 0 1 .629.528 2.33 2.33 0 0 1 .408.737c.095.272.143.556.143.852s-.048.532-.143.7-.232.258-.408.279-.387-.04-.629-.176zm0-.412c.231.129.41.139.538.029s.192-.334.192-.672-.064-.629-.192-.88-.307-.444-.538-.573-.409-.14-.537-.033-.192.33-.192.669.064.634.192.887a1.32 1.32 0 0 0 .537.573zm2.667 1.906c-.342-.192-.601-.437-.778-.736s-.262-.645-.262-1.035v-1.696l.443.248v1.724c0 .246.05.46.15.644s.249.328.447.439.34.126.44.054.153-.227.153-.47v-1.724l.444.248v1.696c0 .387-.089.632-.266.736s-.434.061-.771-.128zm3.651-.839v2.848l-.335-.188-1.34-2.747v1.996l-.419-.234v-2.848l.336.187 1.336 2.741v-1.992l.422.237zm1.124 1.053l-.81-.454v-.424l2.077 1.163v.424l-.813-.455v2.424l-.454-.254v-2.424z" fill-opacity=".5"/><path d="M271.008 222.18l.501.28v4.984l-.501-.28v-4.984zm2.173 3.128v1.925c0 .261.047.472.141.631a1.03 1.03 0 0 0 .397.377 1 1 0 0 0 .33.121v.483c-.127-.024-.269-.08-.428-.169a1.82 1.82 0 0 1-.69-.667c-.163-.282-.244-.608-.244-.976v-2.002l-.599-.336v-.448l.599.336v-.903l.494.074v1.106l.88.492v.448l-.88-.492zm4.047 3.561l-2.254-1.262c.005.45.094.839.269 1.165s.438.589.776.778c.358.2.688.247.989.141l.165.505c-.134.07-.307.087-.519.053a1.92 1.92 0 0 1-.641-.234 2.93 2.93 0 0 1-1.13-1.115c-.273-.48-.409-1.002-.409-1.567 0-.359.061-.642.183-.849s.293-.333.513-.364.47.033.751.19c.407.228.727.561.959.999s.348.918.348 1.455v.105zm-1.301-2.115c-.256-.143-.466-.172-.629-.086s-.26.281-.305.578l1.789 1.002a2.07 2.07 0 0 0-.256-.899c-.143-.253-.342-.451-.599-.595zm5.46 2.617c.68.381 1.02 1.036 1.02 1.964v2.212l-.495-.277v-2.184c0-.331-.051-.6-.152-.806a1.12 1.12 0 0 0-.483-.494c-.261-.146-.464-.16-.611-.042s-.22.351-.22.696v2.009l-.494-.277v-2.184c0-.326-.051-.593-.153-.799a1.15 1.15 0 0 0-.489-.505c-.26-.146-.466-.161-.616-.044s-.22.35-.22.696v2.009l-.495-.277v-2.534l-.049-1.015.47.264.049.643c.086-.176.212-.278.379-.306s.368.024.592.15c.245.137.444.304.599.503a1.96 1.96 0 0 1 .342.709c.094-.157.23-.246.409-.267s.389.028.617.156zm6.081 4.449c.248.218.442.471.58.758a1.99 1.99 0 0 1 .208.887c0 .434-.126.699-.379.796s-.609.009-1.069-.249L285 235v-4.984l1.747.978c.444.248.788.556 1.032.921.249.363.373.752.373 1.168 0 .266-.061.462-.183.59s-.285.174-.501.147zm-1.973-1.315l1.173.656c.326.183.572.246.739.19s.25-.228.25-.517c0-.57-.33-1.039-.989-1.409l-1.173-.656v1.736zm1.271 3.007c.342.192.592.26.751.204s.244-.239.244-.542c0-.612-.332-1.103-.995-1.475l-1.271-.711v1.813l1.271.711zm-15.758-47.332l.501.28v4.984l-.501-.28v-4.984zm2.173 3.128v1.925c0 .261.047.472.141.631a1.03 1.03 0 0 0 .397.377 1 1 0 0 0 .33.121v.483c-.127-.024-.269-.08-.428-.169a1.82 1.82 0 0 1-.69-.667c-.163-.282-.244-.608-.244-.976v-2.002l-.599-.336v-.448l.599.336v-.903l.494.074v1.106l.88.492v.448l-.88-.492zm4.047 3.561l-2.254-1.262c.005.45.094.839.269 1.165s.438.589.776.778c.358.2.688.247.989.141l.165.505c-.134.07-.307.087-.519.053a1.92 1.92 0 0 1-.641-.234 2.93 2.93 0 0 1-1.13-1.115c-.273-.48-.409-1.002-.409-1.567 0-.359.061-.642.183-.849s.293-.333.513-.364.47.033.751.19c.407.228.727.561.959.999s.348.918.348 1.455v.105zm-1.301-2.115c-.256-.143-.466-.172-.629-.086s-.26.281-.305.578l1.789 1.002a2.07 2.07 0 0 0-.256-.899c-.143-.253-.342-.451-.599-.595zm5.46 2.617c.68.381 1.02 1.036 1.02 1.964v2.212l-.495-.277v-2.184c0-.331-.051-.6-.152-.806a1.12 1.12 0 0 0-.483-.494c-.261-.146-.464-.16-.611-.042s-.22.351-.22.696v2.009l-.494-.277v-2.184c0-.326-.051-.593-.153-.799a1.15 1.15 0 0 0-.489-.505c-.26-.146-.466-.161-.616-.044s-.22.35-.22.696v2.009l-.495-.277v-2.534l-.049-1.015.47.264.049.643c.086-.176.212-.278.379-.306s.368.024.592.15c.245.137.444.304.599.503a1.96 1.96 0 0 1 .342.709c.094-.157.23-.246.409-.267s.389.028.617.156zm6.46 5.942l-2.272-1.273-.483 1.011-.519-.291 1.912-3.913.439.246 1.912 6.055-.513-.288-.476-1.547zm-.178-.576l-.958-3.099-.959 2.025 1.917 1.074zm-16.661 51.443l.501.28v4.984l-.501-.28v-4.984zm2.173 3.128v1.925c0 .261.047.472.141.631a1.03 1.03 0 0 0 .397.377 1 1 0 0 0 .33.121v.483c-.127-.024-.269-.08-.428-.169a1.82 1.82 0 0 1-.69-.667c-.163-.282-.244-.608-.244-.976v-2.002l-.599-.336v-.448l.599.336v-.903l.494.074v1.106l.88.492v.448l-.88-.492zm4.047 3.561l-2.254-1.262c.005.45.094.839.269 1.165s.438.589.776.778c.358.2.688.247.989.141l.165.505c-.134.07-.307.087-.519.053a1.92 1.92 0 0 1-.641-.234 2.93 2.93 0 0 1-1.13-1.115c-.273-.48-.409-1.002-.409-1.567 0-.359.061-.642.183-.849s.293-.333.513-.364.47.033.751.19c.407.228.727.561.959.999.232.433.348.918.348 1.455v.105zm-1.301-2.115c-.256-.143-.466-.172-.629-.086s-.26.281-.305.578l1.789 1.002a2.07 2.07 0 0 0-.256-.899c-.143-.253-.342-.451-.599-.595zm5.46 2.617c.68.381 1.02 1.036 1.02 1.964v2.212l-.495-.277v-2.184c0-.331-.051-.6-.152-.806a1.12 1.12 0 0 0-.483-.494c-.261-.146-.464-.16-.611-.042s-.22.351-.22.696v2.009l-.494-.277v-2.184c0-.326-.051-.593-.153-.799a1.15 1.15 0 0 0-.489-.505c-.26-.146-.466-.161-.616-.044s-.22.35-.22.696v2.009l-.495-.277v-2.534l-.049-1.015.47.264.049.643c.086-.176.212-.278.379-.306s.368.024.592.15c.245.137.444.304.599.503a1.96 1.96 0 0 1 .342.709c.094-.157.23-.246.409-.267s.389.028.617.156zm5.47 6.725c-.411-.231-.769-.534-1.075-.91a4.2 4.2 0 0 1-.696-1.272 4.63 4.63 0 0 1-.244-1.502c0-.523.081-.928.244-1.214.163-.292.395-.456.696-.492s.664.063 1.075.294a3.82 3.82 0 0 1 .825.622 3.91 3.91 0 0 1 .653.835l-.189.335a4.72 4.72 0 0 0-.617-.786c-.2-.201-.421-.369-.666-.506-.476-.267-.847-.297-1.111-.091s-.391.64-.391 1.294.13 1.239.391 1.744a2.74 2.74 0 0 0 1.111 1.155 1.82 1.82 0 0 0 .666.24 1.18 1.18 0 0 0 .617-.096l.189.547c-.183.108-.401.144-.653.11s-.524-.139-.825-.307z" fill-opacity=".9"/></g><g class="F"><rect width="39" height="3" rx="1.5" transform="matrix(.872496 .488621 0 1 270.471 197.863)" class="E"/><rect width="40" height="4" rx="2" transform="matrix(.872496 .488621 0 1 270.471 231.863)" class="E"/><rect width="40" height="3" rx="1.5" transform="matrix(.872496 .488621 0 1 270.471 261.863)" class="E"/></g><path d="M270.739 169.165l.915.512c.407.228.722.529.946.902s.338.787.338 1.237-.113.743-.338.867-.539.07-.946-.158l-.915-.512v-2.848zm.887 2.925c.572.32.858.144.858-.528a1.58 1.58 0 0 0-.858-1.48l-.436-.245v2.008l.436.245zm1.772-1.436l1.661.93v.408l-1.221-.684v.788l1.148.643v.408l-1.148-.643v.836l1.221.684v.408l-1.661-.93v-2.848zm2.882 4.498c-.19-.107-.37-.236-.537-.389a2.67 2.67 0 0 1-.422-.488l.153-.29c.121.172.247.319.377.443s.277.227.433.314c.172.097.305.136.398.119s.143-.087.143-.212c0-.107-.044-.213-.133-.318s-.229-.242-.429-.405c-.312-.251-.539-.478-.681-.681s-.212-.42-.212-.655c0-.168.039-.295.118-.381s.191-.127.335-.121.315.065.506.172c.175.097.34.221.496.369s.287.302.387.465l-.15.292c-.221-.326-.465-.565-.733-.714-.16-.09-.287-.123-.38-.097s-.14.099-.14.229c0 .112.041.221.122.325a2.93 2.93 0 0 0 .426.402c.207.172.376.328.506.468s.231.277.3.42a.98.98 0 0 1 .105.442c0 .171-.039.298-.119.382s-.193.114-.342.1-.324-.077-.527-.191zm2.533 1.418c-.245-.136-.459-.316-.643-.539s-.321-.469-.418-.743-.147-.562-.147-.858.049-.522.147-.686.237-.258.418-.273.398.043.643.179a2.28 2.28 0 0 1 .471.356 2.23 2.23 0 0 1 .37.455l-.147.294c-.112-.166-.223-.303-.335-.411a1.62 1.62 0 0 0-.352-.27c-.24-.134-.426-.149-.559-.044s-.195.325-.195.658.065.631.195.886a1.37 1.37 0 0 0 .559.58c.125.071.243.114.352.13s.223.001.335-.041l.147.458c-.098.052-.221.067-.37.045s-.304-.082-.471-.176zm3.307 1.816l-.475-.265-.318-1.126a.65.65 0 0 0-.129-.257c-.058-.067-.134-.127-.227-.179l-.45-.252v1.184l-.447-.25v-2.848l1.065.596c.281.158.495.348.642.572a1.3 1.3 0 0 1 .22.731c0 .189-.044.326-.133.41s-.209.106-.37.072c.147.117.253.294.318.53l.304 1.082zm-1.044-2.168c.17.095.296.129.377.103s.122-.113.122-.26-.041-.273-.122-.388-.205-.223-.377-.319l-.562-.315v.864l.562.315zm1.449-.453l.45.252v2.848l-.45-.252v-2.848zm.988.554l1.079.604c.267.15.476.341.624.574a1.32 1.32 0 0 1 .224.729c0 .256-.076.416-.227.481s-.356.024-.621-.124l-.628-.352v1.188l-.451-.252v-2.848zm1.026 1.835c.156.087.274.117.353.089s.122-.113.122-.252a.67.67 0 0 0-.119-.386.99.99 0 0 0-.356-.311l-.575-.323v.86l.575.323zm1.824.185l-.81-.454v-.424l2.076 1.163v.424l-.813-.455v2.424l-.453-.254v-2.424zm1.578.459l.45.252v2.848l-.45-.252v-2.848zm2.091 4.055a2.2 2.2 0 0 1-.628-.527 2.5 2.5 0 0 1-.412-.739 2.59 2.59 0 0 1-.143-.86c0-.296.047-.527.143-.692a.51.51 0 0 1 .408-.279c.179-.017.39.042.632.177s.451.312.628.528a2.33 2.33 0 0 1 .408.737 2.54 2.54 0 0 1 .143.852c0 .299-.047.532-.143.7s-.231.258-.408.279-.386-.04-.628-.176zm0-.412c.23.129.409.139.537.029s.192-.333.192-.672-.064-.629-.192-.88a1.32 1.32 0 0 0-.537-.573c-.231-.129-.41-.14-.538-.033s-.192.33-.192.669.064.634.192.887.307.444.538.573zm3.735-.38v2.848l-.336-.188-1.34-2.746v1.996l-.418-.235v-2.848l.335.188 1.336 2.74v-1.992l.423.237z" fill="#000" fill-opacity=".5"/><g class="F"><rect width="114" height="5" rx="2.5" transform="matrix(.872496 .488621 0 1 270.471 112.863)" class="E"/><rect width="114" height="5" rx="2.5" transform="matrix(.872496 .488621 0 1 270.471 124.863)" class="E"/></g><g class="B"><path opacity=".047" d="M260.274 286.231v131.454l88.659 50.943c4.168 2.382 7.585 1.082 8.553-2.799l.052-.222.181.127V350.207l-.191-.129c-.93-5.125-4.639-10.66-8.909-13.101l-88.345-50.746z" fill="url(#F)"/><path d="M286.603 171.905c.032 0 .064-.008.093-.025l101.314-57.528c.091-.052.122-.167.071-.257s-.166-.123-.257-.071L286.51 171.553a.19.19 0 0 0-.071.257.19.19 0 0 0 .164.095z" fill="url(#G)"/><path d="M335.906 393.172c.032 0 .064-.008.093-.024l101.314-57.529a.19.19 0 0 0 .071-.257c-.052-.091-.167-.122-.257-.071L335.813 392.82c-.091.052-.122.167-.071.257.035.061.098.095.164.095z" fill="url(#H)"/><path d="M127.338 335.927c.031 0 .063-.008.093-.024l101.313-57.529c.091-.051.123-.166.071-.257s-.166-.122-.257-.07l-101.314 57.529c-.09.051-.122.166-.07.257.034.061.098.094.164.094z" fill="url(#I)"/><path d="M335.906 471.095c.032 0 .064-.007.093-.024l101.314-57.529c.09-.051.122-.166.071-.256s-.167-.123-.257-.071l-101.314 57.528a.19.19 0 0 0-.071.257c.035.062.098.095.164.095z" fill="url(#J)"/><path d="M88.868 180.899c.034 0 .068-.008.099-.026l107.808-61.255a.2.2 0 0 0-.198-.349L88.769 180.525a.2.2 0 0 0 .099.374z" fill="url(#K)"/><path d="M.2 533.513c.034 0 .068-.009.099-.026l107.808-61.256a.2.2 0 1 0-.198-.348L.101 533.138c-.096.055-.13.177-.075.274a.2.2 0 0 0 .175.101z" fill="url(#L)"/><path opacity=".88" d="M224.399 299.767c.89-4.053 4.414-5.448 8.661-3.021l89.783 51.572c4.27 2.441 7.979 7.975 8.91 13.101l.19.128v2.22 111.008 2.3l-.181-.128c-.89 4.054-4.358 5.449-8.604 3.021l-89.755-51.571c-4.27-2.441-8.078-7.977-9.008-13.101l-.289-.129v-2.219-111.009-2.3l.293.128z" fill="#398bec"/><path opacity=".88" d="M229.134 382.749l96.903 55.337v-79.054l-96.903-55.337v79.054z" fill="url(#M)"/><path opacity=".3" d="M238.183 399.651c0 2.484 1.762 5.535 3.916 6.779l73.611 42.516c2.155 1.244 3.917.229 3.917-2.255v-18.049c0-2.485-1.762-5.535-3.917-6.779l-73.611-42.516c-2.154-1.244-3.916-.229-3.916 2.255v18.049z" class="D"/><path d="M231.941 403.209c0 2.485 1.762 5.535 3.916 6.78l73.611 42.515c2.154 1.244 3.917.23 3.917-2.255V432.2c0-2.484-1.763-5.535-3.917-6.779l-73.611-42.516c-2.154-1.244-3.916-.229-3.916 2.256v18.048z" fill="url(#N)"/><path opacity=".086" d="M228.067 428.091c-2.327-1.342-4.384-.23-4.384 2.471v20.845c.006 2.226.194 2.456 4.41 4.887l99.565 57.265c2.328 1.342 4.283.23 4.283-2.471v-18.38c0-2.701-2.031-6.01-4.359-7.352l-99.515-57.265z" fill="url(#O)"/><use xlink:href="#S" class="D"/><use xlink:href="#S" fill="url(#P)" fill-opacity=".3"/></g><path d="M178.351 372.276c-.13.131-.182.352-.156.663l.517 4.906a1.65 1.65 0 0 0 .234.732c.139.239.298.413.478.523l8.759 5.334.15 1.397-8.348-5.084c-.2-.122-.376-.134-.527-.037s-.23.286-.234.563.064.555.208.833.316.476.517.598l9.234 5.623c.221.135.413.133.575-.007.152-.146.215-.381.189-.706l-.342-3.073.748-7.589 1.721.332c.202.039.35-.033.444-.214s.117-.42.069-.716c-.058-.302-.179-.569-.361-.799s-.368-.369-.56-.415l-2.199-.412c-.138-.028-.253.007-.345.105s-.151.238-.176.42l-.156 1.506-9.925-4.57c-.223-.094-.394-.065-.514.087zm9.698 15.91c-.316-.193-.588-.211-.814-.054s-.344.443-.352.859.096.842.312 1.275.482.746.798.939.588.207.815.043.345-.453.352-.87-.096-.838-.312-1.264-.482-.736-.799-.928zm-6.751-4.112c-.316-.192-.588-.21-.814-.053s-.344.443-.352.859.096.842.312 1.275.482.746.798.939.588.207.815.043.344-.454.352-.87-.096-.838-.312-1.265-.483-.735-.799-.928z" class="C"/><g class="B"><path opacity=".391" d="M166.39 357.058v-6.631-.805l.111.045c.312-1.42 1.55-1.908 3.037-1.058l8.793 5.05.048 1.469c-.054 2.882-.866 4.889-2.436 6.022s-3.45 1.033-5.638-.3c-1.461-.889-2.764-2.16-3.915-3.792z" fill="#101148"/><path d="M164.572 340.985c-2.188-1.332-4.067-1.456-5.637-.372s-2.38 3.069-2.434 5.951.667 5.822 2.16 8.821 3.335 5.164 5.522 6.497 4.069 1.432 5.638.299 2.382-3.14 2.436-6.022-.667-5.799-2.162-8.749-3.335-5.092-5.523-6.425z" fill="#f25159"/></g><path d="M165.103 352.763v1.099l-.583-.108v1.512l-.728-.134v-1.513l-1.792-.331v-1.044l1.925-4.835.595.11v5.136l.583.108zm-2.398-.444l1.087.201v-2.948l-1.087 2.747z" class="C"/><g class="B"><path opacity=".053" d="M475.263 412.999c-.845 0-1.643.173-2.276.49l-.205.11-116.742 66.87c-.672.394-1.042.924-1.042 1.491 0 .523.316 1.014.893 1.396l.15.093 14.654 8.568v24.982l21.562-12.374.125.072 105.616-60.473v-19.06l-15.738-9.099-.151.088-4.367-2.555c-.595-.347-1.367-.554-2.199-.592l-.28-.007z" fill="url(#Q)"/><path opacity=".8" d="M499.756 410.674l-117.107 67.864c-2.751 1.59-4.651 5.511-4.651 8.712v45.146c0 3.201 1.78 4.519 4.53 2.928l117.464-67.863c2.75-1.591 5.006-5.511 5.006-8.712v-45.146c0-3.201-2.491-4.519-5.242-2.929z" class="D"/></g><path d="M505.166 412.355l-117.107 67.863c-2.751 1.591-4.651 5.511-4.651 8.713v45.145c0 3.201 1.78 4.519 4.531 2.929l117.463-67.864c2.751-1.59 5.006-5.511 5.006-8.712v-45.146c0-3.201-2.491-4.519-5.242-2.928z" stroke="#fff"/><g fill="#5eefbb"><path d="M434.351 465.713l3.778-2.224c.894-.525 1.591-.653 2.089-.38s.746.914.746 1.928a5.51 5.51 0 0 1-.746 2.809 5.71 5.71 0 0 1-2.089 2.075l-1.959 1.152v3.874l-1.82 1.07v-10.304h.001zm3.545 2.621c.91-.535 1.365-1.295 1.365-2.279 0-.506-.113-.815-.337-.927s-.568-.031-1.028.239l-1.725 1.015v2.966l1.725-1.014zm8.253-5.849c.409.265.613.931.613 1.993v4.24l-1.669.981v-1.067c-.117.439-.311.843-.584 1.213a3.2 3.2 0 0 1-.956.877c-.389.229-.741.34-1.056.329s-.563-.137-.746-.38-.274-.58-.274-1.009c0-.525.106-1.003.321-1.432s.557-.848 1.033-1.264 1.123-.866 1.949-1.351l.303-.179v-.263c0-.429-.075-.688-.222-.777s-.405-.025-.771.19c-.28.164-.59.41-.933.739s-.669.695-.98 1.101l-.466-1.201c.327-.445.729-.895 1.207-1.347s.923-.799 1.336-1.041c.855-.5 1.487-.619 1.895-.352zm-1.383 5.571a2.83 2.83 0 0 0 .315-1.304v-.248l-.197.117c-.63.371-1.071.693-1.325.969s-.379.579-.379.91c0 .264.072.44.216.531s.324.072.542-.056c.342-.202.618-.508.828-.919z"/><path d="M451.93 458.514l1.727-1.015-3.453 11.827-1.785 1.049 1.097-3.671-2.356-5.383 1.831-1.077 1.446 3.711 1.493-5.441zm10.661-5.715c.319.309.479.976.479 2v4.326l-1.761 1.035v-4.253c0-.488-.061-.803-.182-.946s-.324-.131-.612.038c-.334.197-.595.498-.782.899s-.28.867-.28 1.392v3.961l-1.761 1.037v-4.253c0-.488-.06-.804-.181-.947s-.325-.131-.614.038c-.333.197-.594.497-.781.899s-.281.866-.281 1.391v3.962l-1.761 1.037v-7.178l1.715-1.009v.966a4.55 4.55 0 0 1 .717-1.271c.3-.37.644-.67 1.032-.899.849-.499 1.417-.389 1.705.328a5.28 5.28 0 0 1 .781-1.433c.335-.435.704-.772 1.108-1.01.655-.382 1.142-.419 1.459-.11z" class="B"/><path d="M469.438 452.206l-3.733 2.195c.055.543.206.872.449.986s.593.039 1.044-.226c.296-.174.589-.408.881-.701s.558-.623.798-.989l.467 1.201c-.28.438-.622.854-1.021 1.245s-.802.707-1.207.945c-.964.566-1.724.68-2.28.34s-.834-1.086-.834-2.236c0-.731.121-1.45.362-2.158s.575-1.344 1.003-1.912.913-1.012 1.458-1.333c.8-.471 1.437-.519 1.906-.143s.706 1.126.706 2.245v.542l.001-.001zm-3.365-.279c-.198.385-.321.845-.368 1.378l2.253-1.324c-.023-.502-.126-.831-.31-.987s-.441-.135-.776.062-.601.487-.799.871z"/><path d="M475.504 445.21c.334.305.502.965.502 1.978v4.327l-1.761 1.036v-4.225c0-.487-.073-.8-.216-.941s-.368-.12-.671.058c-.366.214-.66.535-.881.958a2.89 2.89 0 0 0-.333 1.364v4.02l-1.761 1.037v-7.178l1.714-1.009v1.024c.203-.508.465-.961.788-1.354a4.1 4.1 0 0 1 1.09-.948c.685-.403 1.196-.451 1.529-.147zm5.436 1.854l-.094 1.663a6.42 6.42 0 0 1-.676.456c-.87.512-1.507.648-1.908.406s-.601-.851-.601-1.826v-2.748l-1.085.638v-1.652l1.085-.638v-2.106l1.761-1.036v2.104l1.436-.844v1.653l-1.436.844v2.733c0 .857.319 1.099.958.723a5.85 5.85 0 0 0 .56-.37zm-45.506 42.353c-.576.13-1.053.122-1.434-.025l.584-1.966c.793.226 1.682.048 2.671-.533.513-.302.908-.639 1.184-1.011s.414-.742.414-1.113c0-.331-.126-.515-.38-.552s-.701.048-1.347.252c-.722.241-1.301.356-1.733.348s-.746-.149-.945-.418-.297-.686-.297-1.251c0-.623.138-1.259.414-1.91s.661-1.258 1.16-1.829a6.9 6.9 0 0 1 1.727-1.433c.583-.343 1.145-.567 1.686-.67s.969-.069 1.289.105l-.584 1.966c-.753-.249-1.547-.129-2.38.361-.474.279-.847.613-1.12 1.002s-.408.785-.408 1.184c0 .235.053.395.158.485s.28.121.524.093.594-.109 1.045-.249c1.057-.329 1.817-.401 2.28-.216s.694.683.694 1.493c0 .973-.3 1.917-.897 2.829s-1.436 1.685-2.508 2.317c-.623.364-1.221.612-1.797.741zm11.77-13.917v7.178l-1.715 1.008v-1.024c-.178.476-.414.897-.705 1.264a3.54 3.54 0 0 1-.985.872c-.723.425-1.262.491-1.615.197s-.532-.947-.532-1.96v-4.269l1.762-1.036v4.313c0 .429.072.702.216.822s.363.093.658-.08c.342-.202.621-.512.834-.929s.321-.866.321-1.344v-3.977l1.761-1.035zm1.762 5.264c-.537-.347-.806-1.09-.806-2.23 0-.751.129-1.487.385-2.207a6.79 6.79 0 0 1 1.086-1.962 5.84 5.84 0 0 1 1.621-1.421c.419-.247.824-.405 1.213-.472s.704-.037.945.094l-.468 1.781c-.226-.091-.472-.119-.74-.084a2.08 2.08 0 0 0-.788.281c-.458.269-.815.649-1.067 1.138s-.379 1.07-.379 1.743.126 1.109.379 1.306.609.16 1.067-.111c.256-.15.519-.365.788-.645s.514-.598.74-.954l.468 1.246c-.257.424-.584.832-.981 1.22s-.817.715-1.259.975c-.932.549-1.668.649-2.204.302zm5.646-3.322c-.537-.346-.805-1.09-.805-2.23 0-.751.129-1.487.385-2.207s.618-1.376 1.084-1.962 1.007-1.06 1.621-1.421c.42-.247.824-.404 1.213-.472s.704-.037.945.095l-.467 1.78a1.45 1.45 0 0 0-.741-.084c-.269.038-.532.13-.788.281a2.76 2.76 0 0 0-1.067 1.138c-.254.491-.378 1.07-.378 1.743s.125 1.109.378 1.306.609.16 1.067-.111c.256-.15.519-.365.788-.645a6.07 6.07 0 0 0 .741-.955l.467 1.246a6.26 6.26 0 0 1-.981 1.22c-.397.389-.817.715-1.259.976-.932.549-1.667.65-2.203.302z" class="B"/><path d="M464.889 469.102l-3.733 2.198c.054.542.205.87.449.984s.594.039 1.045-.226c.295-.174.59-.407.881-.701a6.32 6.32 0 0 0 .799-.99l.466 1.202c-.28.437-.62.852-1.02 1.243s-.804.707-1.208.945c-.965.568-1.725.681-2.281.341s-.834-1.087-.834-2.236a6.64 6.64 0 0 1 .362-2.157 6.84 6.84 0 0 1 1.003-1.913c.427-.568.914-1.012 1.458-1.333.801-.471 1.437-.518 1.908-.143s.705 1.124.705 2.246v.54zm-3.365-.279c-.199.386-.321.844-.368 1.379l2.252-1.326c-.023-.502-.126-.831-.31-.987s-.441-.135-.775.062-.6.487-.799.872z"/><path d="M466.586 471.166c-.438.107-.818.113-1.137.019l.468-1.795a2.29 2.29 0 0 0 1.025.01c.374-.074.751-.222 1.131-.446.274-.161.485-.34.637-.542s.227-.399.227-.595c0-.175-.052-.282-.157-.317s-.302-.007-.59.083l-.933.285c-.552.169-.959.168-1.218-.006s-.392-.543-.392-1.109c0-.448.103-.902.31-1.365a5 5 0 0 1 .875-1.319 5.43 5.43 0 0 1 1.289-1.051c.413-.244.813-.4 1.202-.474a2.14 2.14 0 0 1 1.049.041l-.466 1.735c-.606-.168-1.206-.079-1.797.268-.272.16-.486.344-.641.552s-.234.42-.234.634c0 .157.047.251.141.283s.257.02.489-.04l.969-.293c.583-.176 1.01-.177 1.277.002s.402.554.402 1.13c0 .69-.219 1.364-.659 2.018s-1.044 1.206-1.814 1.659c-.529.317-1.014.526-1.453.633zm5.565-3.273c-.439.109-.817.114-1.137.02l.466-1.796a2.28 2.28 0 0 0 1.026.01c.374-.074.75-.222 1.132-.446.272-.16.483-.341.637-.543s.226-.398.226-.594c0-.175-.053-.28-.158-.316s-.302-.007-.59.083l-.933.286c-.553.167-.958.166-1.219-.007s-.391-.543-.391-1.108c0-.448.103-.904.31-1.366s.497-.902.874-1.319a5.55 5.55 0 0 1 1.29-1.051c.412-.242.813-.4 1.201-.474s.738-.058 1.05.041l-.467 1.737c-.606-.17-1.205-.081-1.796.266a2.14 2.14 0 0 0-.642.553c-.154.208-.233.419-.233.633 0 .157.045.25.139.284s.257.02.489-.039l.97-.292c.582-.177 1.009-.177 1.276 0s.403.556.403 1.131c0 .691-.22 1.365-.66 2.018s-1.043 1.206-1.813 1.659c-.528.314-1.011.523-1.45.63zm7.027-11.202l1.434-.843v1.653l-1.434.843v5.525l-1.761 1.037v-5.526l-1.085.638v-1.652l1.085-.638c.015-1.023.25-1.923.705-2.703s1.149-1.477 2.082-2.095l.642-.421.105 1.562-.549.352c-.45.285-.768.576-.95.873s-.274.666-.274 1.104v.291zm7.571-4.452v7.177l-1.715 1.009v-1.024a4.6 4.6 0 0 1-.705 1.262c-.292.367-.62.659-.985.874-.723.426-1.262.491-1.615.197s-.532-.947-.532-1.961v-4.268l1.762-1.037v4.313c0 .43.072.703.216.823s.363.092.658-.081c.342-.2.621-.51.834-.929a2.9 2.9 0 0 0 .32-1.343v-3.977l1.762-1.035zm1.235 6.449v-10.306l1.762-1.035v10.306l-1.762 1.035z" class="B"/></g><path d="M414.86 474.469c-5.549.702-10.797 8.337-11.72 17.056s2.826 15.218 8.376 14.517 10.797-8.337 11.72-17.056-2.827-15.218-8.376-14.517zm.37 18.177l-2.296 5.147-2.725-1.881-3.655-2.536 1.944-3.966 3.655 2.536 4.943-11.474 2.724 1.881-4.59 10.293z" class="C"/><g class="D"><rect opacity=".2" width="83.247" height="41.613" rx="5" transform="matrix(.872496 .488621 0 1 492.482 257.059)"/><rect width="83.247" height="41.613" rx="5" transform="matrix(.872496 .488621 0 1 488.877 260.191)"/></g><rect x=".218" y=".372" width="81.551" height="41.058" rx="4.75" transform="matrix(.872496 .488621 0 1 487.045 261.352)" stroke="#fff" stroke-width=".5"/><rect opacity=".15" width="83.247" height="13.537" rx="5" transform="matrix(.872496 .488621 0 -1 488.877 316.845)" fill="url(#R)"/><path d="M498.62 291.534a11.83 11.83 0 0 1-2.031-1.45c-.642-.579-1.176-1.181-1.601-1.807l.651-1.306c.894 1.216 1.892 2.133 2.994 2.75.59.331 1.041.479 1.353.445.322-.039.482-.252.482-.64 0-.338-.147-.685-.442-1.039-.287-.359-.794-.832-1.523-1.42-.816-.645-1.467-1.239-1.953-1.779-.477-.546-.828-1.076-1.054-1.59a4.26 4.26 0 0 1-.325-1.659c0-.637.151-1.124.455-1.461.312-.332.746-.482 1.302-.449.555.022 1.197.238 1.926.646.66.369 1.293.833 1.9 1.392s1.094 1.13 1.458 1.712l-.651 1.306c-.815-1.173-1.713-2.034-2.694-2.583-.521-.291-.937-.405-1.249-.342s-.469.3-.469.708c0 .238.056.469.169.691.122.227.321.483.599.768.278.275.672.615 1.184 1.021 1.189.965 2.044 1.831 2.565 2.6.529.774.794 1.574.794 2.399 0 .995-.339 1.596-1.016 1.804-.677.197-1.618-.042-2.824-.717zm13.266 1.432v5.207c-.451-.004-.98-.107-1.588-.308-.599-.196-1.215-.471-1.848-.826a9.32 9.32 0 0 1-2.551-2.085 9.39 9.39 0 0 1-1.666-2.813c-.382-1.029-.573-2.111-.573-3.244 0-1.104.191-1.957.573-2.559.39-.597.937-.917 1.64-.961.711-.049 1.54.191 2.486.721a9.78 9.78 0 0 1 1.861 1.355 8.49 8.49 0 0 1 1.432 1.682l-.651 1.307c-.434-.601-.855-1.096-1.262-1.483a6.6 6.6 0 0 0-1.328-.982c-1.788-1.001-2.681-.308-2.681 2.079 0 2.436.932 4.177 2.798 5.222.512.286 1.024.499 1.536.636v-2.342l-1.822-1.021v-1.626l3.644 2.041zm4.987 8.79c-.703-.393-1.38-.877-2.031-1.45a10.1 10.1 0 0 1-1.601-1.807l.651-1.306c.894 1.216 1.892 2.133 2.994 2.75.59.331 1.041.479 1.354.445.321-.039.481-.252.481-.64 0-.338-.147-.684-.442-1.039-.287-.359-.794-.832-1.523-1.419-.816-.646-1.467-1.239-1.953-1.78-.477-.546-.828-1.076-1.054-1.59-.217-.519-.325-1.072-.325-1.659 0-.637.151-1.123.455-1.461.313-.332.746-.482 1.302-.449.555.022 1.197.238 1.926.646.66.369 1.293.834 1.901 1.393s1.093 1.129 1.457 1.711l-.65 1.306c-.816-1.172-1.714-2.033-2.695-2.583-.52-.291-.937-.405-1.249-.341s-.469.299-.469.707c0 .239.056.469.169.691.122.228.321.484.599.768a14.99 14.99 0 0 0 1.185 1.022c1.188.964 2.043 1.83 2.564 2.599.529.774.794 1.574.794 2.399 0 .995-.339 1.596-1.016 1.804-.676.198-1.618-.041-2.824-.717zm7.257-4.797l-2.902-1.625v-1.895l7.862 4.403v1.894l-2.903-1.625v8.727l-2.057-1.152v-8.727z" class="C"/><path d="M538.026 302.712c1.206.675 2.134 1.653 2.785 2.932s.976 2.765.976 4.455c0 1.164-.156 2.081-.468 2.751-.313.661-.76 1.052-1.341 1.174s-1.276-.043-2.083-.495c-.572-.321-1.128-.736-1.666-1.246s-.998-1.061-1.379-1.653l.663-1.299c.79 1.128 1.554 1.899 2.291 2.312.608.34 1.076.324 1.406-.048.338-.377.525-1.098.56-2.163-.2.286-.486.444-.859.474-.373.019-.79-.099-1.25-.357-.538-.301-1.024-.718-1.458-1.249-.425-.537-.759-1.131-1.002-1.785-.234-.658-.351-1.32-.351-1.987 0-.686.134-1.227.403-1.624.278-.391.655-.607 1.133-.648.485-.037 1.032.115 1.64.456zm.117 5.272c.416.233.75.266 1.002.099.26-.173.39-.513.39-1.02a2.83 2.83 0 0 0-.39-1.427c-.26-.464-.594-.81-1.002-1.039-.417-.233-.751-.266-1.003-.099-.243.173-.364.512-.364 1.02 0 .527.121 1.013.364 1.457.243.434.578.771 1.003 1.009zm6.971 5.157c-.746-.418-1.332-1.024-1.757-1.819s-.638-1.725-.638-2.789c0-1.035.213-1.711.638-2.03s1.011-.269 1.757.149c.755.422 1.345 1.031 1.77 1.826s.638 1.715.638 2.759c0 1.055-.212 1.741-.638 2.06s-1.015.267-1.77-.156zm-.143 4.216l5.376-7.611 1.692.948-5.376 7.611-1.692-.948zm.143-5.633c.278.155.478.128.599-.082.13-.216.195-.652.195-1.308 0-.647-.065-1.146-.195-1.497-.13-.361-.33-.617-.599-.768-.26-.146-.455-.111-.585.105-.122.21-.183.638-.183 1.285 0 .656.061 1.163.183 1.519.121.347.316.595.585.746zm6.769 9.609c-.747-.418-1.332-1.025-1.758-1.82-.416-.79-.624-1.717-.624-2.782 0-1.044.208-1.723.624-2.037.426-.318 1.011-.269 1.758.149.763.428 1.353 1.037 1.77 1.827.425.785.638 1.705.638 2.759s-.213 1.741-.638 2.059c-.417.324-1.007.272-1.77-.155zm0-1.418c.277.156.477.128.598-.082.131-.216.196-.652.196-1.308 0-.646-.065-1.145-.196-1.497-.13-.361-.329-.617-.598-.768-.261-.145-.456-.111-.586.105-.122.21-.182.639-.182 1.285 0 .657.06 1.163.182 1.52.121.346.317.595.586.745z" class="G"/><g class="D"><rect opacity=".3" width="83.247" height="41.613" rx="5" transform="matrix(.872496 .488621 0 1 443.465 264.519)"/><rect width="83.247" height="41.613" rx="5" transform="matrix(.872496 .488621 0 1 439.859 267.65)"/></g><rect x=".218" y=".372" width="81.551" height="41.058" rx="4.75" transform="matrix(.872496 .488621 0 1 438.028 268.811)" stroke="#fff" stroke-width=".5"/><rect opacity=".15" width="83.247" height="13.537" rx="5" transform="matrix(.872496 .488621 0 -1 439.859 324.304)" fill="url(#R)"/><path d="M489.008 310.171c1.206.675 2.135 1.653 2.785 2.932s.977 2.765.977 4.456c0 1.163-.157 2.08-.469 2.751-.312.66-.759 1.051-1.341 1.173s-1.275-.043-2.082-.495c-.573-.32-1.128-.736-1.666-1.246a9 9 0 0 1-1.38-1.653l.664-1.299c.79 1.129 1.553 1.899 2.291 2.312.607.341 1.076.324 1.405-.048.339-.377.525-1.098.56-2.163-.199.286-.486.444-.859.474-.373.02-.79-.099-1.249-.357-.538-.301-1.024-.717-1.458-1.249-.425-.536-.76-1.131-1.003-1.784a5.9 5.9 0 0 1-.351-1.987c0-.687.135-1.228.404-1.624a1.48 1.48 0 0 1 1.132-.649c.486-.036 1.033.116 1.64.456zm.117 5.272c.417.233.751.266 1.002.099.261-.173.391-.513.391-1.02 0-.497-.13-.973-.391-1.427-.26-.464-.594-.81-1.002-1.038-.416-.234-.75-.267-1.002-.099-.243.172-.365.512-.365 1.019 0 .527.122 1.013.365 1.457.243.435.577.771 1.002 1.009zm6.972 5.157c-.747-.418-1.332-1.024-1.757-1.819s-.638-1.725-.638-2.789c0-1.034.212-1.711.638-2.03s1.01-.269 1.757.149c.755.423 1.345 1.032 1.77 1.827s.638 1.714.638 2.759c0 1.054-.213 1.74-.638 2.059s-1.015.267-1.77-.156zm-.143 4.217l5.375-7.612 1.692.948-5.375 7.611-1.692-.947zm.143-5.634c.277.156.477.128.598-.082.131-.216.196-.652.196-1.308 0-.647-.065-1.146-.196-1.497-.13-.361-.329-.617-.598-.768-.261-.146-.456-.111-.586.105-.122.21-.182.639-.182 1.285 0 .657.06 1.163.182 1.519.121.347.317.595.586.746zm6.768 9.609a4.42 4.42 0 0 1-1.757-1.82c-.417-.79-.625-1.717-.625-2.781 0-1.045.208-1.724.625-2.037.425-.319 1.011-.27 1.757.148a4.39 4.39 0 0 1 1.77 1.827c.425.785.638 1.705.638 2.759s-.213 1.741-.638 2.06c-.416.323-1.006.271-1.77-.156zm0-1.417c.278.155.477.128.599-.083.13-.215.195-.651.195-1.308 0-.646-.065-1.145-.195-1.497-.13-.361-.33-.617-.599-.767-.26-.146-.455-.111-.586.104-.121.211-.182.639-.182 1.285 0 .657.061 1.163.182 1.52.122.346.317.595.586.746z" class="G"/><path d="M451.638 300.133c-.937-.524-1.757-1.207-2.46-2.049-.694-.846-1.228-1.781-1.601-2.806-.373-1.034-.559-2.098-.559-3.192 0-1.084.186-1.93.559-2.536.373-.617.907-.954 1.601-1.013.703-.054 1.523.181 2.46.706.616.345 1.202.783 1.757 1.312a7.82 7.82 0 0 1 1.38 1.668l-.638 1.314c-.416-.591-.824-1.078-1.223-1.461-.391-.388-.803-.703-1.237-.946-.833-.467-1.47-.521-1.913-.162s-.664 1.12-.664 2.284c0 1.174.221 2.193.664 3.057a4.7 4.7 0 0 0 1.913 1.982c.434.243.846.394 1.237.453.399.055.807.02 1.223-.105l.638 2.028c-.356.189-.815.234-1.38.137-.555-.102-1.141-.325-1.757-.671zm12.326.906v5.206c-.452-.004-.981-.106-1.588-.307-.599-.196-1.215-.472-1.849-.826-.98-.55-1.831-1.245-2.551-2.086s-1.275-1.778-1.666-2.812c-.382-1.03-.573-2.111-.573-3.245 0-1.104.191-1.957.573-2.559.391-.596.937-.917 1.64-.961.712-.049 1.54.191 2.486.721a9.75 9.75 0 0 1 1.862 1.356 8.46 8.46 0 0 1 1.431 1.682l-.651 1.306c-.433-.601-.854-1.095-1.262-1.483a6.65 6.65 0 0 0-1.328-.982c-1.787-1.001-2.681-.308-2.681 2.079 0 2.437.933 4.177 2.798 5.222.512.287 1.024.499 1.536.637v-2.343l-1.822-1.02v-1.626l3.645 2.041zm4.986 8.79c-.703-.394-1.379-.877-2.03-1.451-.642-.578-1.176-1.18-1.601-1.806l.651-1.307c.893 1.217 1.891 2.134 2.993 2.751.59.33 1.042.479 1.354.445.321-.039.482-.253.482-.641 0-.338-.148-.684-.443-1.038-.286-.359-.794-.833-1.523-1.42-.816-.646-1.466-1.239-1.952-1.779-.478-.546-.829-1.076-1.055-1.59-.216-.52-.325-1.073-.325-1.66 0-.636.152-1.123.456-1.46.312-.332.746-.482 1.301-.45.556.023 1.198.238 1.927.647a10.08 10.08 0 0 1 1.9 1.392c.607.559 1.093 1.129 1.458 1.711l-.651 1.307c-.816-1.173-1.714-2.034-2.694-2.583-.521-.292-.938-.406-1.25-.342s-.469.3-.469.707a1.51 1.51 0 0 0 .17.692c.121.227.321.483.598.768.278.275.673.615 1.185 1.021 1.189.964 2.043 1.831 2.564 2.6.529.774.794 1.573.794 2.399 0 .994-.338 1.595-1.015 1.803-.677.198-1.619-.041-2.825-.716zm7.258-4.797l-2.903-1.626v-1.895l7.862 4.403v1.895l-2.903-1.626v8.728l-2.056-1.152v-8.727zm-228.801 39.014v7.231c-.665-.033-1.413-.195-2.242-.485a14.68 14.68 0 0 1-2.524-1.173 13.5 13.5 0 0 1-3.539-2.935 13.12 13.12 0 0 1-2.296-3.877 12.52 12.52 0 0 1-.806-4.435c0-1.486.269-2.627.806-3.424.537-.81 1.297-1.229 2.278-1.257.981-.041 2.126.316 3.435 1.072.899.519 1.746 1.143 2.54 1.872.806.735 1.461 1.484 1.963 2.247l-1.034 2.097c-.572-.763-1.127-1.394-1.665-1.893a8.77 8.77 0 0 0-1.699-1.285c-1.11-.641-1.94-.755-2.489-.343-.537.405-.806 1.351-.806 2.836 0 1.539.281 2.842.841 3.908.573 1.074 1.449 1.951 2.629 2.632.549.317 1.098.566 1.647.748v-2.673l-2.173-1.255v-2.572l5.134 2.964zm6.606 12.139c-.934-.54-1.857-1.215-2.768-2.024s-1.653-1.623-2.226-2.44l1.034-2.096c.607.796 1.25 1.511 1.928 2.145.689.628 1.378 1.141 2.067 1.539.701.404 1.239.606 1.612.606.374-.014.561-.223.561-.628 0-.365-.169-.759-.508-1.185-.339-.438-.976-1.042-1.91-1.811-1.18-.951-2.097-1.812-2.751-2.581-.654-.783-1.116-1.522-1.384-2.217-.257-.688-.386-1.418-.386-2.187 0-.878.216-1.543.648-1.996.433-.466 1.04-.669 1.823-.608.782.047 1.676.36 2.681.94.899.519 1.77 1.17 2.611 1.953.852.776 1.518 1.538 1.997 2.288l-1.016 2.107c-.549-.763-1.127-1.434-1.735-2.015-.607-.593-1.215-1.066-1.822-1.416-.596-.344-1.075-.486-1.437-.425-.362.048-.543.294-.543.74 0 .243.064.482.192.719s.368.536.719.9c.35.351.876.817 1.577 1.397 1.133.938 2.021 1.795 2.663 2.571.655.769 1.116 1.501 1.385 2.197a5.78 5.78 0 0 1 .403 2.136c0 1.404-.473 2.238-1.42 2.502-.946.251-2.278-.12-3.995-1.111zm9.8-5.867l-3.715-2.145v-3.079l10.759 6.212v3.079l-3.715-2.145v11.342l-3.329-1.922v-11.342z" class="C"/><path d="M286.741 370.551v3.009l-8.501-5.057v-3.01l2.633 1.567v-7.252l-2.461.193v-3.252l3.786-.273 1.893 1.126v11.372l2.65 1.577zm7.754.209c.78.707 1.388 1.486 1.824 2.338s.653 1.715.653 2.591c0 .848-.206 1.459-.619 1.833s-.987.51-1.721.41c-.722-.107-1.554-.44-2.495-1s-1.778-1.219-2.512-1.979c-.723-.767-1.291-1.583-1.704-2.448s-.619-1.722-.619-2.57c0-.889.218-1.5.654-1.833.436-.346 1.049-.399 1.841-.157-.677-.672-1.21-1.4-1.6-2.184-.39-.797-.585-1.573-.585-2.327 0-.795.195-1.372.585-1.733.401-.353.94-.484 1.617-.391.688.087 1.463.386 2.323.898a10.38 10.38 0 0 1 2.306 1.856c.688.719 1.227 1.491 1.617 2.316.402.831.603 1.644.603 2.439 0 .767-.201 1.321-.603 1.661-.39.334-.912.427-1.565.28zm-2.358-5.704c-.447-.267-.814-.357-1.101-.272-.275.079-.413.374-.413.886 0 .888.505 1.781 1.514 2.678 1.01.304 1.514.012 1.514-.877 0-.511-.143-.974-.43-1.387-.275-.419-.636-.762-1.084-1.028zm0 9.028c.551.328.998.459 1.342.395s.517-.353.517-.865c0-.498-.167-1.001-.499-1.508s-.786-.993-1.36-1.455c-.573-.22-1.027-.275-1.359-.163s-.499.417-.499.915c0 .512.172 1.005.516 1.479s.792.875 1.342 1.202zm8.924 2.159c-1.021-.608-1.824-1.463-2.409-2.565-.585-1.115-.878-2.387-.878-3.814 0-1.401.293-2.304.878-2.71s1.388-.305 2.409.302 1.824 1.469 2.409 2.585c.585 1.102.878 2.353.878 3.754 0 1.427-.293 2.344-.878 2.75s-1.388.305-2.409-.302zm-.258 5.683l7.124-10.143 2.598 1.546-7.106 10.153-2.616-1.556zm.258-7.926c.275.164.47.125.585-.116.115-.255.172-.786.172-1.594 0-.768-.063-1.351-.189-1.749-.126-.412-.316-.693-.568-.843s-.442-.094-.568.167c-.114.255-.172.766-.172 1.534 0 .795.058 1.387.172 1.779.126.398.316.672.568.822zm9.206 13.698c-1.021-.607-1.818-1.458-2.392-2.554-.573-1.109-.86-2.377-.86-3.804 0-1.4.287-2.307.86-2.72s1.371-.315 2.392.292c1.033.614 1.836 1.469 2.409 2.564s.861 2.35.861 3.764c0 1.427-.287 2.348-.861 2.76s-1.376.313-2.409-.302zm0-2.242c.264.157.453.108.568-.147.126-.248.189-.769.189-1.564 0-.767-.063-1.35-.189-1.748-.126-.412-.316-.693-.568-.843s-.442-.094-.568.167c-.114.255-.172.766-.172 1.534 0 .794.058 1.387.172 1.779.126.398.316.672.568.822z" class="G"/><path d="M236.156 369.131l-1.694-1.008v-.901l4.346 2.586v.901l-1.702-1.013v5.151l-.95-.565v-5.151zm4.332 7.796a3.73 3.73 0 0 1-.993-.863c-.283-.349-.502-.737-.657-1.164s-.227-.872-.227-1.325.076-.802.227-1.047.374-.377.657-.391.618.096.993.319.697.505.979.855.499.739.65 1.169a3.82 3.82 0 0 1 .234 1.32c0 .454-.078.804-.234 1.051-.151.245-.367.374-.65.387s-.608-.09-.979-.311zm-.007-.837c.312.186.548.21.709.073s.248-.441.248-.906c0-.459-.083-.857-.248-1.193-.166-.342-.4-.603-.702-.783s-.543-.201-.708-.056c-.166.139-.249.439-.249.898s.081.863.242 1.197.401.588.708.77zm3.798-.469v1.921c0 .504.202.877.606 1.117.112.067.234.117.365.149v.842c-.16-.028-.355-.11-.584-.246-.419-.249-.74-.576-.964-.981s-.336-.863-.336-1.373v-1.972l-.709-.422v-.799l.709.422v-1.046l.913.186v1.403l.979.582v.799l-.979-.582zm5.134 2.256v4.292l-.898-.534v-.689a.58.58 0 0 1-.482.274c-.21.006-.448-.071-.716-.23a2.98 2.98 0 0 1-.855-.78 3.83 3.83 0 0 1-.577-1.117c-.136-.416-.204-.845-.204-1.287s.068-.792.204-1.051c.141-.261.336-.412.585-.451.248-.045.53.027.847.215a2.66 2.66 0 0 1 .716.63c.209.255.37.535.482.839v-.646l.898.535zm-1.848 2.428c.302.179.536.197.702.051s.248-.438.248-.88c0-.454-.083-.851-.248-1.194a1.81 1.81 0 0 0-.709-.787c-.302-.179-.538-.192-.709-.039-.165.151-.248.45-.248.898 0 .442.083.831.248 1.168.171.339.409.6.716.783zm2.843-3.8l.906.539v6.256l-.906-.539v-6.256zm7.43 9.257l-2.542-1.512-.526 1.106-.95-.565 2.353-4.652.767.456 2.359 7.456-.942-.561-.519-1.728zm-.314-1.037l-.957-3.162-.957 2.023 1.914 1.139zm6.626 1.808c.419.25.73.582.935.999.204.41.307.913.307 1.508v2.635l-.914-.543v-2.601c0-.34-.048-.613-.146-.818-.092-.208-.248-.377-.467-.508-.253-.15-.453-.164-.599-.041s-.212.361-.212.724v2.397l-.913-.544v-2.601c0-.334-.051-.608-.154-.822a1.14 1.14 0 0 0-.467-.508c-.253-.15-.453-.164-.599-.041-.146.117-.219.356-.219.719v2.397l-.906-.539v-3.077l-.059-1.25.855.508.066.72a.56.56 0 0 1 .46-.313c.205-.014.438.057.701.213a2.34 2.34 0 0 1 1.103 1.472c.117-.185.283-.285.497-.299s.463.054.731.213zm3.889 6.785a3.75 3.75 0 0 1-.994-.863 4.05 4.05 0 0 1-.657-1.164 3.97 3.97 0 0 1-.226-1.325c0-.453.075-.802.226-1.047.156-.247.375-.377.657-.391.288-.01.619.096.994.319s.696.505.979.855a3.91 3.91 0 0 1 .65 1.168c.156.428.234.868.234 1.321s-.078.804-.234 1.051a.77.77 0 0 1-.65.387c-.283.013-.609-.09-.979-.311zm-.007-.837c.311.185.548.21.708.073.166-.139.249-.442.249-.906s-.083-.857-.249-1.193a1.78 1.78 0 0 0-.701-.783c-.307-.183-.543-.201-.709-.056-.165.139-.248.438-.248.897 0 .465.08.864.241 1.198a1.83 1.83 0 0 0 .709.77zm6.017.053v4.292l-.891-.53v-.663c-.117.168-.272.257-.467.266s-.419-.062-.672-.213c-.901-.536-1.352-1.393-1.352-2.572v-2.593l.906.539v2.601c0 .312.054.573.161.784a1.32 1.32 0 0 0 .511.526c.268.159.482.185.643.076s.241-.332.241-.672v-2.389l.92.548zm3.103 1.735c.881.524 1.322 1.376 1.322 2.555v2.635l-.913-.544v-2.584c0-.34-.056-.62-.168-.839a1.31 1.31 0 0 0-.519-.547c-.277-.165-.501-.193-.672-.085s-.255.324-.255.664v2.431l-.906-.539v-3.077l-.059-1.25.855.508.066.745c.126-.186.297-.285.511-.3s.465.065.738.227zm3.452 2.963v1.921c0 .504.202.877.606 1.117a1.35 1.35 0 0 0 .365.15v.841c-.16-.028-.355-.109-.584-.246-.419-.249-.74-.576-.964-.981s-.336-.863-.336-1.373v-1.972l-.709-.422v-.799l.709.422v-1.046l.913.187v1.402l.979.582v.799l-.979-.582zm3.676-.371l2.258 1.343c.56.333.996.751 1.307 1.254.312.497.468 1.017.468 1.561s-.158.881-.475 1.01-.745.033-1.3-.298l-1.315-.782v2.525l-.943-.561v-6.052zm2.148 3.955c.326.194.572.264.738.21s.256-.234.256-.528a1.47 1.47 0 0 0-.249-.828c-.165-.257-.414-.484-.745-.681l-1.205-.717v1.827l1.205.717zm6.045 2.678v4.293l-.899-.535v-.688a.58.58 0 0 1-.482.274c-.209.006-.448-.071-.716-.23-.321-.192-.606-.452-.854-.781s-.441-.701-.578-1.117-.204-.844-.204-1.286.068-.792.204-1.051c.142-.262.336-.412.585-.452s.531.027.847.216c.268.159.507.369.716.629a2.89 2.89 0 0 1 .482.84v-.646l.899.534zm-1.848 2.428c.301.18.535.197.701.052s.248-.439.248-.881c0-.453-.083-.851-.248-1.193a1.81 1.81 0 0 0-.709-.787c-.302-.18-.538-.193-.708-.039s-.249.45-.249.898c0 .442.083.831.249 1.167s.409.601.716.783zm6.334.241l-1.717 3.561c-.194.416-.443.657-.745.721s-.674.004-1.117-.181l-.205-.937c.346.115.604.152.774.112.176-.032.317-.152.424-.36l.117-.245-1.534-5.052.957.569 1.059 3.716 1.081-2.442.906.538zm3.939 2.344v4.292l-.899-.534v-.689a.58.58 0 0 1-.482.274c-.209.006-.448-.071-.716-.23-.321-.191-.606-.451-.855-.781s-.44-.701-.577-1.116-.204-.845-.204-1.287.068-.792.204-1.051c.142-.262.336-.412.585-.451.248-.045.531.027.847.215.268.159.507.369.716.63.209.255.37.534.482.839v-.646l.899.535zm-1.848 2.428c.301.179.535.197.701.051s.248-.438.248-.88c0-.454-.083-.851-.248-1.194a1.81 1.81 0 0 0-.709-.787c-.302-.179-.538-.192-.708-.039s-.249.45-.249.898a2.61 2.61 0 0 0 .249 1.168c.17.339.409.6.716.783zm4.946-.695c.321.191.604.452.847.784.249.329.441.702.577 1.117s.205.844.205 1.286-.071.794-.212 1.056-.329.408-.577.447-.523-.031-.84-.219a2.79 2.79 0 0 1-.731-.639c-.209-.261-.367-.545-.474-.852v.705l-.899-.534v-6.256l.906.539v2.609a.56.56 0 0 1 .482-.265c.21-.012.448.062.716.222zm-.241 3.494c.302.18.536.194.701.043s.249-.45.249-.897-.083-.832-.249-1.168c-.165-.342-.402-.605-.708-.787s-.543-.201-.709-.056-.248.441-.248.889c0 .453.082.851.248 1.193.166.337.404.598.716.783zm2.667-3.904l.906.539v6.256l-.906-.539v-6.256zm5.134 7.219l-2.543-1.512c.02.47.117.868.293 1.193s.445.589.796.797c.404.241.779.311 1.125.21l.263.888c-.175.06-.392.064-.65.013a2.58 2.58 0 0 1-.775-.317 3.93 3.93 0 0 1-1.424-1.442 3.83 3.83 0 0 1-.519-1.941c0-.436.076-.779.227-1.029s.363-.388.635-.413.582.057.928.263c.506.301.906.732 1.198 1.291a3.84 3.84 0 0 1 .446 1.837v.162zm-1.622-2.512c-.244-.145-.443-.178-.599-.101-.151.074-.248.257-.292.548l1.716 1.022c-.029-.341-.114-.635-.255-.883a1.55 1.55 0 0 0-.57-.586z" class="C"/><path d="M268.199 287.601l-2.724-1.526v-1.778l7.377 4.132v1.778l-2.723-1.526v8.19l-1.93-1.08v-8.19zm7.51 12.508c-.659-.37-1.238-.843-1.734-1.42-.489-.572-.868-1.213-1.136-1.924-.261-.706-.391-1.432-.391-2.179s.13-1.327.391-1.741a1.37 1.37 0 0 1 1.136-.652c.496-.02 1.075.154 1.734.524.652.365 1.222.833 1.71 1.405a6.29 6.29 0 0 1 1.124 1.918c.269.71.403 1.439.403 2.186s-.134 1.324-.403 1.734c-.261.414-.635.633-1.124.658s-1.058-.144-1.71-.509zm0-1.61c.456.255.802.276 1.038.063.245-.208.367-.663.367-1.363 0-.69-.122-1.277-.367-1.759a2.48 2.48 0 0 0-1.038-1.113c-.464-.26-.818-.281-1.062-.063-.245.208-.367.658-.367 1.348 0 1.391.476 2.353 1.429 2.887zm6.677-.279v2.758c0 .392.09.732.269 1.019a1.95 1.95 0 0 0 .696.655c.179.101.383.182.611.245v1.638c-.293-.034-.647-.167-1.063-.4-.765-.428-1.351-1.004-1.759-1.727-.399-.718-.598-1.525-.598-2.421v-2.8l-1.173-.657v-1.582l1.173.657v-1.666l1.844.347v2.352l1.576.883v1.582l-1.576-.883zm8.728 3.306v7.098l-1.82-1.02v-1.05c-.188.259-.452.396-.794.41s-.729-.1-1.161-.342c-.537-.301-1.014-.717-1.429-1.249-.407-.526-.729-1.131-.965-1.814-.228-.688-.342-1.395-.342-2.123s.114-1.313.342-1.755c.236-.437.562-.693.977-.769.416-.084.888.021 1.417.318.432.242.819.566 1.161.972a4.8 4.8 0 0 1 .794 1.312v-1.008l1.82 1.02zm-3.237 3.787c.456.255.806.274 1.05.056s.367-.663.367-1.335-.122-1.253-.367-1.745c-.244-.501-.594-.879-1.05-1.134s-.811-.267-1.063-.035-.379.679-.379 1.342.123 1.239.367 1.731c.252.487.611.86 1.075 1.12zm4.725-6.16l1.845 1.033v10.304l-1.845-1.033v-10.304z" fill="#07043f"/><g class="E F"><rect width="21.831" height="5.696" rx="2.848" transform="matrix(.872496 .488621 0 1 273 40.9993)"/><rect width="27.653" height="5.696" rx="2.848" transform="matrix(.872496 .488621 0 1 273 60.5288)"/><rect width="58.944" height="5.696" rx="2.848" transform="matrix(.872496 .488621 0 1 301.572 56.9993)"/><rect width="58.944" height="5.696" rx="2.848" transform="matrix(.872496 .488621 0 1 301.572 76.5286)"/><rect width="3.639" height="5.696" rx="1.819" transform="matrix(.872496 .488621 0 1 273 50.7639)"/><rect width="18.92" height="5.696" rx="2.848" transform="matrix(.872496 .488621 0 1 277.445 53.2532)"/><rect width="15.282" height="5.696" rx="2.848" transform="matrix(.872496 .488621 0 1 273 70.2935)"/><rect width="58.944" height="5.696" rx="2.848" transform="matrix(.872496 .488621 0 1 301.572 66.7646)"/><rect width="58.944" height="5.696" rx="2.848" transform="matrix(.872496 .488621 0 1 301.572 86.2942)"/></g><path d="M260.822 415.308v1.75l-5.583-3.321v-1.75l1.853 1.102v-5.782l-1.732.159v-1.918l2.514-.212 1.095.652v8.218l1.853 1.102zm7.214 4.292v1.75l-5.582-3.321v-1.75l1.852 1.102v-5.782l-1.732.159v-1.918l2.515-.212 1.094.652v8.218l1.853 1.102zm2.943 1.247v1.442c0 .551-.084.995-.252 1.334-.161.352-.437.636-.831.85l-.709-1.067c.393-.242.637-.554.734-.935l-.903-.537v-2.254l1.961 1.167zm5.748.535c.554.498.983 1.047 1.287 1.648s.458 1.206.458 1.812c0 .579-.141 1-.421 1.262-.273.258-.658.355-1.155.293-.498-.072-1.067-.299-1.709-.681s-1.211-.832-1.708-1.352c-.498-.529-.887-1.088-1.168-1.675-.272-.591-.409-1.176-.409-1.755 0-.607.153-1.029.458-1.268.312-.243.742-.282 1.287-.116-.481-.473-.858-.987-1.131-1.541s-.409-1.097-.409-1.629c0-.542.132-.939.397-1.192s.63-.349 1.095-.287c.473.058 1.003.261 1.588.609s1.111.773 1.576 1.274a5.97 5.97 0 0 1 1.107 1.596c.265.569.397 1.123.397 1.665s-.14.929-.421 1.163c-.273.239-.646.297-1.119.174zm-1.54-4.192c-.401-.238-.722-.322-.962-.25-.233.076-.349.319-.349.73 0 .392.116.779.349 1.16.24.376.561.73.962 1.062.401.146.718.171.951.076.24-.1.361-.346.361-.738 0-.41-.121-.794-.361-1.152-.233-.353-.55-.649-.951-.888zm0 6.846c.473.282.846.392 1.119.33.281-.057.421-.3.421-.73 0-.401-.14-.811-.421-1.23-.273-.414-.646-.804-1.119-1.17-.473-.197-.85-.254-1.131-.169-.273.09-.409.336-.409.737 0 .429.136.837.409 1.223.281.391.658.728 1.131 1.009zm7.214 5.986c-1.034-.615-1.828-1.526-2.382-2.733-.545-1.202-.818-2.633-.818-4.295 0-1.642.273-2.736.818-3.279.554-.539 1.348-.5 2.382.115s1.825 1.52 2.371 2.712c.553 1.198.83 2.618.83 4.26 0 1.662-.277 2.766-.83 3.314-.546.553-1.336.522-2.371-.094zm0-1.68c.474.282.819.216 1.035-.196s.325-1.225.325-2.439c0-1.185-.108-2.108-.325-2.769-.216-.67-.561-1.146-1.035-1.428s-.818-.216-1.034.197c-.217.403-.325 1.197-.325 2.382 0 1.214.108 2.156.325 2.826s.561 1.146 1.034 1.427zm7.215 5.972c-1.035-.615-1.829-1.526-2.383-2.733-.545-1.202-.818-2.633-.818-4.295 0-1.642.273-2.735.818-3.279.554-.539 1.348-.5 2.383.115s1.824 1.52 2.37 2.713c.553 1.197.83 2.617.83 4.259 0 1.662-.277 2.766-.83 3.315-.546.552-1.336.521-2.37-.095zm0-1.68c.473.282.818.216 1.034-.196s.325-1.225.325-2.439c0-1.185-.108-2.108-.325-2.769-.216-.67-.561-1.146-1.034-1.428s-.818-.216-1.035.197c-.217.403-.325 1.197-.325 2.383 0 1.213.108 2.155.325 2.825s.561 1.146 1.035 1.427zm-38.669-29.291a5.55 5.55 0 0 1 .534 1.317l1.059.707.131 1.126-1.004-.671c.027.641-.105 1.067-.396 1.28-.283.217-.692.207-1.227-.029.231.215.445.466.643.754a7.26 7.26 0 0 1 .585 1.053l2.024 4.233-1.717-1.147-2.043-4.311c-.184-.4-.368-.717-.553-.954-.179-.24-.406-.452-.681-.636l-1.605-1.073-.166-1.421 2.375 1.587c.431.288.761.409.988.362s.347-.261.357-.644l-3.868-2.585-.131-1.125 3.824 2.555c-.122-.402-.316-.769-.58-1.102-.266-.342-.596-.644-.99-.907l-2.375-1.587-.131-1.126 6.288 4.202.131 1.125-1.472-.983z" fill="#181958"/><path d="M377.36 351.404v1.438l-4.589-2.73v-1.438l1.523.906v-4.752l-1.424.13v-1.576l2.067-.174.9.535v6.755l1.523.906zm3.289 3.498c-.85-.506-1.503-1.254-1.958-2.246-.448-.988-.672-2.165-.672-3.53 0-1.35.224-2.249.672-2.695.455-.443 1.108-.411 1.958.094s1.5 1.25 1.948 2.23c.455.984.683 2.151.683 3.501 0 1.365-.228 2.273-.683 2.724-.448.454-1.097.428-1.948-.078zm0-1.38c.389.231.673.177.851-.162s.267-1.007.267-2.004c0-.974-.089-1.733-.267-2.276-.178-.551-.462-.942-.851-1.174s-.672-.177-.85.162c-.178.331-.267.984-.267 1.958 0 .997.089 1.771.267 2.322s.461.942.85 1.174zm5.06 2.434v1.185c0 .453-.07.818-.208 1.097-.132.289-.359.522-.682.698l-.584-.876c.323-.199.524-.455.603-.769l-.741-.441v-1.853l1.612.959zm3.458 4.014c-.851-.506-1.503-1.255-1.958-2.247-.448-.987-.673-2.164-.673-3.53 0-1.35.225-2.248.673-2.695.455-.443 1.107-.411 1.958.095s1.5 1.249 1.948 2.229c.455.984.682 2.151.682 3.501 0 1.366-.227 2.274-.682 2.724-.448.455-1.098.429-1.948-.077zm0-1.381c.389.232.672.178.85-.161s.267-1.007.267-2.005c0-.974-.089-1.733-.267-2.276-.178-.551-.461-.942-.85-1.173s-.673-.178-.851.161c-.178.332-.267.984-.267 1.959 0 .997.089 1.771.267 2.322s.462.942.851 1.173zm5.929 4.909c-.85-.506-1.503-1.255-1.958-2.247-.448-.988-.672-2.164-.672-3.53 0-1.35.224-2.248.672-2.695.455-.443 1.108-.411 1.958.095s1.5 1.249 1.949 2.229c.455.984.682 2.151.682 3.501 0 1.366-.227 2.274-.682 2.724-.449.454-1.098.429-1.949-.077zm0-1.381c.389.231.673.177.851-.162s.267-1.007.267-2.004c0-.974-.089-1.733-.267-2.276-.178-.551-.462-.942-.851-1.173s-.672-.178-.85.161c-.178.331-.267.984-.267 1.958 0 .998.089 1.772.267 2.323s.462.941.85 1.173zm5.93 4.908c-.85-.506-1.503-1.254-1.958-2.246-.448-.988-.672-2.165-.672-3.53 0-1.35.224-2.249.672-2.695.455-.443 1.108-.412 1.958.094s1.5 1.249 1.948 2.23c.455.984.683 2.151.683 3.501 0 1.365-.228 2.273-.683 2.724-.448.454-1.098.428-1.948-.078zm0-1.38c.389.231.672.177.85-.162s.267-1.007.267-2.004c0-.975-.089-1.733-.267-2.276-.178-.551-.461-.942-.85-1.174s-.672-.177-.85.162c-.178.331-.267.984-.267 1.958 0 .997.089 1.771.267 2.322s.461.942.85 1.174zm-30.96-24.076c.192.342.338.703.439 1.083l.87.581.108.925-.825-.551c.022.527-.087.877-.326 1.052-.232.178-.569.171-1.008-.024.189.177.366.383.528.62a6.08 6.08 0 0 1 .481.865l1.664 3.48-1.411-.943-1.68-3.544c-.151-.328-.302-.589-.454-.783s-.334-.372-.56-.523l-1.319-.882-.136-1.168 1.952 1.304c.354.237.625.336.812.298s.285-.215.293-.529l-3.18-2.125-.107-.925 3.143 2.1a2.69 2.69 0 0 0-.477-.905 3.44 3.44 0 0 0-.814-.746l-1.951-1.305-.108-.925 5.168 3.454.108.925-1.21-.809z" fill="#07043f"/><defs><filter id="A" x="150.35" y="212.953" width="603.399" height="427.879" filterUnits="userSpaceOnUse" color-interpolation-filters="sRGB"><feFlood flood-opacity="0"/><feBlend in="SourceGraphic"/><feGaussianBlur stdDeviation="48"/></filter><linearGradient id="B" x1="97.713" y1="465.945" x2="508.12" y2="167.565" xlink:href="#T"><stop stop-color="#bcd3f4"/><stop offset="1" stop-color="#fff"/></linearGradient><linearGradient id="C" x1="334.307" y1="421.397" x2="306.779" y2="533.389" xlink:href="#T"><stop stop-color="#a0beee"/><stop offset="1" stop-color="#fff"/></linearGradient><linearGradient id="D" x1="563.059" y1="336.236" x2="273.883" y2="545.865" xlink:href="#T"><stop stop-color="#bcd3f4"/><stop offset="1" stop-color="#fff"/></linearGradient><linearGradient id="E" x1="92" y1="0" x2="91.691" y2="451.198" xlink:href="#T"><stop stop-color="#0b70e7" stop-opacity=".1"/><stop offset="1" stop-color="#fff" stop-opacity="0"/></linearGradient><linearGradient id="F" x1="308.996" y1="1008.34" x2="308.996" y2="1254.64" xlink:href="#T"><stop stop-color="#002fe9"/><stop offset=".189" stop-color="#0a1275"/><stop offset="1" stop-color="#06074b"/></linearGradient><linearGradient id="G" x1="316.063" y1="146.9" x2="374.86" y2="113.127" xlink:href="#T"><stop stop-color="#005eff" stop-opacity="0"/><stop offset="1" stop-color="#fff"/></linearGradient><linearGradient id="H" x1="368.31" y1="367.619" x2="424.656" y2="335.253" xlink:href="#T"><stop stop-color="#fff" stop-opacity="0"/><stop offset="1" stop-color="#fff"/></linearGradient><linearGradient id="I" x1="156.797" y1="310.923" x2="215.594" y2="277.149" xlink:href="#T"><stop offset=".042" stop-color="#fff" stop-opacity="0"/><stop offset="1" stop-color="#fff"/></linearGradient><linearGradient id="J" x1="365.366" y1="446.091" x2="424.162" y2="412.318" xlink:href="#T"><stop offset=".042" stop-color="#fff" stop-opacity="0"/><stop offset="1" stop-color="#fff"/></linearGradient><linearGradient id="K" x1="120.216" y1="154.28" x2="182.778" y2="118.322" xlink:href="#T"><stop stop-color="#005eff" stop-opacity="0"/><stop offset="1" stop-color="#fff"/></linearGradient><linearGradient id="L" x1="31.548" y1="506.894" x2="94.11" y2="470.935" xlink:href="#T"><stop stop-color="#005eff" stop-opacity="0"/><stop offset="1" stop-color="#fff"/></linearGradient><linearGradient id="M" x1="289.167" y1="358.125" x2="268.723" y2="403.1" xlink:href="#T"><stop stop-color="#3c7ddf"/><stop offset="1" stop-color="#3c7ddf" stop-opacity="0"/></linearGradient><linearGradient id="N" x1="305.057" y1="397.245" x2="239.95" y2="455.315" xlink:href="#T"><stop stop-color="#41f978"/><stop offset="1" stop-color="#00b2ff" stop-opacity=".877"/></linearGradient><linearGradient id="O" x1="277.812" y1="768.162" x2="277.812" y2="884.351" xlink:href="#T"><stop stop-color="#002fe9"/><stop offset=".189" stop-color="#0a1275"/><stop offset="1" stop-color="#06074b"/></linearGradient><linearGradient id="P" x1="166.39" y1="364.748" x2="209.941" y2="370.575" xlink:href="#T"><stop stop-color="#fff"/><stop offset="1" stop-color="#fff" stop-opacity="0"/></linearGradient><linearGradient id="Q" x1="426.498" y1="822.051" x2="426.498" y2="961.574" xlink:href="#T"><stop stop-color="#002fe9"/><stop offset=".189" stop-color="#0a1275"/><stop offset="1" stop-color="#06074b"/></linearGradient><linearGradient id="R" x1="41.624" y1="0" x2="41.624" y2="13.537" xlink:href="#T"><stop stop-color="#5b5bf2" stop-opacity="0"/><stop offset="1" stop-color="#5b5bf2"/></linearGradient><path id="S" d="M166.501 349.667c.312-1.42 1.55-1.908 3.038-1.058l31.447 18.062c1.496.855 2.756 2.794 3.082 4.589l.028.044v.778 38.879.805l-.024-.045c-.312 1.42-1.507 1.909-2.994 1.059l-31.426-18.063c-1.495-.855-2.832-2.794-3.157-4.589l-.105-.045v-.777-38.879-.806l.111.046z"/><linearGradient id="T" gradientUnits="userSpaceOnUse"/></defs></svg>