<!DOCTYPE svg PUBLIC "-//W3C//DTD SVG 1.1//EN" "http://www.w3.org/Graphics/SVG/1.1/DTD/svg11.dtd">
<!-- Uploaded to: SVG Repo, www.svgrepo.com, Transformed by: SVG Repo Mixer Tools -->
<svg fill="#4D4DFF" height="800px" width="800px" version="1.1" id="Layer_1" xmlns="http://www.w3.org/2000/svg" xmlns:xlink="http://www.w3.org/1999/xlink" viewBox="0 0 512 512" xml:space="preserve">
<g id="SVGRepo_bgCarrier" stroke-width="0"/>
<g id="SVGRepo_tracerCarrier" stroke-linecap="round" stroke-linejoin="round"/>
<g id="SVGRepo_iconCarrier"> <g> <g> <path d="M482.728,147.271c-24.16-28.793-59.946-44.65-100.766-44.65c-40.728,0-81.742,15.798-115.487,44.484 c-33.716,28.662-56.232,66.84-63.403,107.503c-7.339,41.623,2.201,80.731,26.861,110.121c24.16,28.793,59.946,44.65,100.766,44.65 c40.728,0,81.742-15.798,115.487-44.484c33.716-28.662,56.232-66.84,63.403-107.502 C516.927,215.769,507.389,176.661,482.728,147.271z M493.8,254.608c-13.489,76.501-86.656,138.74-163.1,138.74 c-35.998,0-67.422-13.823-88.483-38.924c-21.562-25.696-29.856-60.156-23.353-97.03c13.489-76.501,86.656-138.74,163.1-138.74 c35.998,0,67.422,13.823,88.483,38.924C492.007,183.274,500.301,217.734,493.8,254.608z"/> </g> </g> <g> <g> <path d="M454.432,171.643c-18.841-22.453-46.719-34.819-78.5-34.819c-31.592,0-63.39,12.24-89.535,34.467 c-26.117,22.201-43.561,51.791-49.121,83.317c-5.711,32.388,1.73,62.842,20.954,85.75c18.839,22.453,46.718,34.819,78.5,34.819 c31.592,0,63.39-12.24,89.535-34.467c26.117-22.201,43.561-51.791,49.121-83.317C481.096,225.005,473.655,194.553,454.432,171.643 z M459.597,254.608c-10.164,57.642-65.281,104.536-122.866,104.536c-26.961,0-50.478-10.331-66.219-29.092 c-16.124-19.216-22.32-45.02-17.446-72.659c10.164-57.642,65.281-104.536,122.866-104.536c26.961,0,50.477,10.331,66.219,29.092 C458.274,201.164,464.471,226.969,459.597,254.608z"/> </g> </g> <g> <g> <path d="M398.233,209.557c-5.176-6.17-13.59-10.429-23.441-12.093l1.495-8.478c0.768-4.361-2.143-8.519-6.503-9.286 c-4.356-0.773-8.518,2.143-9.286,6.502l-1.914,10.857c-20.031,2.217-36.675,14.02-39.262,28.69 c-3.791,21.505,13.698,30.466,27.923,35.615l-6.596,37.404c-7.003-1.131-11.69-3.948-13.941-6.631 c-1.564-1.864-2.144-3.789-1.774-5.886c0.768-4.361-2.143-8.519-6.503-9.286c-4.356-0.774-8.518,2.142-9.286,6.502 c-1.192,6.757,0.685,13.497,5.282,18.976c5.177,6.172,13.591,10.43,23.442,12.093l-1.495,8.478 c-0.768,4.361,2.143,8.519,6.503,9.286c0.47,0.083,0.938,0.123,1.401,0.123c3.817,0,7.2-2.737,7.885-6.625l1.914-10.857 c20.032-2.217,36.675-14.02,39.262-28.69c3.792-21.505-13.698-30.466-27.924-35.615l6.596-37.404 c7.003,1.131,11.69,3.948,13.941,6.631c1.564,1.864,2.144,3.789,1.774,5.886c-0.768,4.361,2.143,8.519,6.503,9.286 c4.359,0.776,8.518-2.143,9.286-6.502C404.707,221.776,402.83,215.036,398.233,209.557z M350.089,245.231 c-14.093-5.63-16.151-10.043-14.978-16.698c1.04-5.901,9.192-12.329,20.529-14.786L350.089,245.231z M377.551,283.467 c-1.04,5.901-9.192,12.329-20.53,14.786l5.552-31.485C376.666,272.4,378.724,276.812,377.551,283.467z"/> </g> </g> <g> <g> <path d="M170.481,247.984H8.016c-4.427,0-8.016,3.588-8.016,8.016s3.589,8.016,8.016,8.016h162.465 c4.427,0,8.016-3.589,8.016-8.016C178.497,251.573,174.908,247.984,170.481,247.984z"/> </g> </g> <g> <g> <path d="M187.583,205.231H59.321c-4.427,0-8.016,3.588-8.016,8.016c0,4.428,3.589,8.016,8.016,8.016h128.262 c4.427,0,8.016-3.588,8.016-8.016C195.599,208.819,192.01,205.231,187.583,205.231z"/> </g> </g> <g> <g> <path d="M213.235,162.477h-85.508c-4.427,0-8.016,3.588-8.016,8.016s3.589,8.016,8.016,8.016h85.508 c4.427,0,8.016-3.588,8.016-8.016S217.662,162.477,213.235,162.477z"/> </g> </g> <g> <g> <path d="M238.887,128.274h-25.652c-4.427,0-8.016,3.588-8.016,8.016s3.589,8.016,8.016,8.016h25.652 c4.427,0,8.016-3.588,8.016-8.016C246.904,131.862,243.314,128.274,238.887,128.274z"/> </g> </g> <g> <g> <path d="M204.684,367.695h-17.102c-4.427,0-8.016,3.588-8.016,8.016s3.589,8.016,8.016,8.016h17.102 c4.427,0,8.016-3.588,8.016-8.016S209.111,367.695,204.684,367.695z"/> </g> </g> <g> <g> <path d="M187.583,333.492h-59.855c-4.427,0-8.016,3.588-8.016,8.016c0,4.428,3.589,8.016,8.016,8.016h59.855 c4.427,0,8.016-3.589,8.016-8.016C195.599,337.08,192.01,333.492,187.583,333.492z"/> </g> </g> <g> <g> <path d="M170.481,290.738H59.321c-4.427,0-8.016,3.588-8.016,8.016s3.589,8.016,8.016,8.016h111.16 c4.427,0,8.016-3.589,8.016-8.016C178.497,294.326,174.908,290.738,170.481,290.738z"/> </g> </g> </g>
</svg>