<svg width="64" height="64" viewBox="0 0 64 64" fill="none" xmlns="http://www.w3.org/2000/svg">
<path d="M24.1002 38.4C24.1002 38.4 28.0002 42.5 32.2002 42.5C36.3002 42.5 38.6002 40.6 38.6002 37.6C38.6002 34.7 34.3002 32.9 31.7002 32.1C29.9002 31.5 25.9002 29.9 25.9002 27.1C25.9002 24.2 28.7002 22.9 32.1002 22.9C34.8002 22.9 37.1002 23.9 37.5002 23.9C38.7002 23.9 32.4002 19.9 32.4002 17.4C32.4002 15.3 32.4002 11.6 32.4002 11.6C28.2002 11.6 23.9002 13 20.3002 15.7C18.8002 16.9 17.6002 18.1 16.6002 19.4C15.4002 21 14.6002 22.7 13.9002 24.3C12.8002 27 12.5002 29.5 12.5002 31.4H16.1002L11.9002 35.9L7.7002 31.4H11.0002H7.7002L11.9002 35.9L16.1002 31.4H12.5002C12.5002 29.5 12.8002 27 13.9002 24.3C14.6002 22.6 15.4002 21 16.6002 19.4C17.6002 18.1 18.7002 16.9 20.3002 15.7C23.9002 12.9 28.2002 11.6 32.4002 11.6C32.4002 11.6 32.4002 16.8 32.4002 17.3C32.4002 28.5 32.4002 51.2 32.4002 51.2C36.6002 51.2 40.9002 49.8 44.5002 47.1C46.0002 45.9 47.2002 44.7 48.2002 43.4C49.4002 41.8 50.2002 40.1 50.9002 38.5C52.0002 35.8 52.3002 33.3 52.3002 31.4H48.7002L52.9002 26.9L57.1002 31.4H53.8002" stroke="#14B8A6" stroke-width="1.3452" stroke-miterlimit="10"/>
</svg>
