<!DOCTYPE svg PUBLIC "-//W3C//DTD SVG 1.1//EN" "http://www.w3.org/Graphics/SVG/1.1/DTD/svg11.dtd">
<!-- Uploaded to: SVG Repo, www.svgrepo.com, Transformed by: SVG Repo Mixer Tools -->
<svg height="800px" width="800px" version="1.1" id="Layer_1" xmlns="http://www.w3.org/2000/svg" xmlns:xlink="http://www.w3.org/1999/xlink" viewBox="0 0 392.554 392.554" xml:space="preserve" fill="#000000">
<g id="SVGRepo_bgCarrier" stroke-width="0"/>
<g id="SVGRepo_tracerCarrier" stroke-linecap="round" stroke-linejoin="round"/>
<g id="SVGRepo_iconCarrier"> <g> <path style="fill:#FFFFFF;" d="M225.561,149.14h-57.729c-1.875,10.925-3.168,23.014-3.62,36.267h64.97 C228.729,172.09,227.436,160.001,225.561,149.14z"/> <path style="fill:#FFFFFF;" d="M231.832,95.225c4.719,9.115,8.598,20.105,11.572,32.129h35.168 C266.288,112.744,250.191,101.56,231.832,95.225z"/> <path style="fill:#FFFFFF;" d="M172.68,127.354h47.968c-6.853-24.113-16.549-38.141-23.984-38.141 C189.23,89.148,179.598,103.241,172.68,127.354z"/> <path style="fill:#FFFFFF;" d="M167.832,243.33h57.729c1.875-10.925,3.168-23.014,3.62-36.267h-64.97 C164.664,220.316,165.957,232.405,167.832,243.33z"/> <path style="fill:#FFFFFF;" d="M250.967,185.278h52.234c-1.293-12.929-5.042-25.018-10.537-36.267H247.67 C249.545,160.712,250.579,172.995,250.967,185.278z"/> <path style="fill:#FFFFFF;" d="M142.426,207.064H90.191c1.293,12.929,5.042,25.018,10.537,36.267h44.994 C143.977,231.629,142.814,219.476,142.426,207.064z"/> <path style="fill:#FFFFFF;" d="M303.202,207.064h-52.234c-0.388,12.347-1.487,24.566-3.297,36.267h44.994 C298.224,232.211,301.909,219.993,303.202,207.064z"/> <path style="fill:#FFFFFF;" d="M220.713,265.116h-47.968c6.853,24.113,16.549,38.141,23.984,38.141 C204.163,303.322,213.796,289.229,220.713,265.116z"/> <path style="fill:#FFFFFF;" d="M161.626,95.225c-18.36,6.4-34.457,17.648-46.739,32.129h35.168 C153.093,115.201,156.971,104.34,161.626,95.225z"/> <path style="fill:#FFFFFF;" d="M231.832,297.245c18.36-6.4,34.457-17.648,46.739-32.129h-35.168 C240.43,277.14,236.551,288.13,231.832,297.245z"/> <path style="fill:#FFFFFF;" d="M90.191,185.278h52.234c0.388-12.347,1.487-24.566,3.297-36.267h-44.994 C95.234,160.259,91.484,172.413,90.191,185.278z"/> <path style="fill:#FFFFFF;" d="M161.626,297.245c-4.719-9.115-8.598-20.105-11.572-32.129h-35.168 C127.169,279.661,143.266,290.845,161.626,297.245z"/> </g> <g> <path style="fill:#194F82;" d="M196.729,67.363c-70.982,0-128.84,57.794-128.84,128.84s57.794,128.84,128.84,128.84 s128.905-57.794,128.905-128.84S267.775,67.363,196.729,67.363z M278.571,127.354h-35.168 c-3.038-12.024-6.853-23.014-11.572-32.129C250.191,101.625,266.288,112.809,278.571,127.354z M196.664,89.148 c7.499,0,17.131,14.093,24.048,38.141h-47.968C179.598,103.241,189.23,89.148,196.664,89.148z M100.664,149.14h45.059 c-1.745,11.636-2.844,23.855-3.297,36.267H90.191C91.484,172.478,95.234,160.324,100.664,149.14z M100.794,243.33 c-5.56-11.119-9.244-23.337-10.602-36.267h52.234c0.388,12.347,1.487,24.566,3.297,36.267H100.794z M114.886,265.116h35.168 c3.038,12.024,6.853,23.014,11.572,32.129C143.266,290.845,127.169,279.661,114.886,265.116z M150.054,127.354h-35.168 c12.283-14.61,28.38-25.794,46.739-32.129C156.971,104.34,153.093,115.266,150.054,127.354z M196.729,303.322 c-7.499,0-17.131-14.093-24.048-38.141h47.968C213.796,289.229,204.163,303.322,196.729,303.322z M225.561,243.33h-57.729 c-1.875-10.925-3.168-23.014-3.62-36.267h64.97C228.729,220.316,227.436,232.34,225.561,243.33z M164.212,185.278 c0.453-13.188,1.745-25.277,3.62-36.267h57.729c1.875,10.925,3.168,23.014,3.62,36.267H164.212z M231.832,297.245 c4.719-9.115,8.598-20.105,11.572-32.129h35.168C266.288,279.661,250.191,290.845,231.832,297.245z M292.794,243.33h-45.059 c1.745-11.636,2.844-23.855,3.297-36.267h52.234C301.973,219.993,298.288,232.146,292.794,243.33z M303.202,185.278h-52.234 c-0.388-12.347-1.487-24.566-3.297-36.267h44.994C298.224,160.259,301.909,172.413,303.202,185.278z"/> <path style="fill:#194F82;" d="M259.436,34.005c22.562,7.499,42.214,21.657,58.958,38.141h-16.873 c-6.012,0-10.925,4.848-10.925,10.925c0,6.077,4.848,10.925,10.925,10.925l40.339-0.065c6.012,0,10.925-4.848,10.925-10.925 l-0.065-40.339c0-6.012-4.848-10.925-10.925-10.925s-10.925,4.848-10.925,10.925V54.11c-18.295-17.39-39.887-31.224-63.612-40.404 C146.369-33.292,40.155,49.649,13.521,125.286C1.755,158.385-3.029,193.617,2.789,228.268c0.905,5.883,6.465,9.956,12.541,8.986 c5.947-1.034,9.956-6.594,8.986-12.541c-5.172-30.772-2.457-62.707,9.503-91.604C61.036,67.427,141.327-5.171,259.436,34.005z"/> <path style="fill:#194F82;" d="M389.763,164.268c-1.034-5.947-6.594-9.956-12.541-8.986c-5.947,0.97-9.956,6.594-8.986,12.541 c5.107,30.772,2.392,62.642-9.568,91.539c-27.281,65.681-107.572,138.343-225.616,99.168 c-22.562-7.499-42.214-21.657-58.958-38.141h16.873c6.012,0,10.925-4.848,10.925-10.925c0-6.012-4.848-10.925-10.925-10.925 l-40.339,0.065c-6.012,0-10.925,4.848-10.925,10.925l0.065,40.339c0,6.012,4.848,10.925,10.925,10.925s10.925-4.848,10.925-10.925 v-11.442c18.295,17.39,39.887,31.224,63.612,40.404c120.954,47.063,227.168-36.008,253.867-111.515 C390.798,234.15,395.581,198.918,389.763,164.268z"/> </g> <g> <path style="fill:#3B82F6;" d="M225.561,149.14h-57.729c-1.875,10.925-3.168,23.014-3.62,36.267h64.97 C228.729,172.09,227.436,160.001,225.561,149.14z"/> <path style="fill:#3B82F6;" d="M246.83,127.354c-1.422-1.034-2.78-1.939-4.202-2.844c0.259,1.034,0.517,1.939,0.776,2.844H246.83z"/> <path style="fill:#3B82F6;" d="M250.967,207.064c-0.388,12.347-1.487,24.566-3.297,36.267h20.04 c7.111-10.667,11.766-22.95,13.446-36.267H250.967z"/> <path style="fill:#3B82F6;" d="M220.713,127.354c-1.487-5.172-3.103-9.891-4.784-14.158c-6.206-1.422-12.606-2.263-19.135-2.263 s-12.994,0.84-19.135,2.263c-1.681,4.267-3.297,8.986-4.784,14.158H220.713z"/> <path style="fill:#3B82F6;" d="M250.967,185.278h30.19c-1.681-13.188-6.4-25.6-13.446-36.267h-20.04 C249.545,160.712,250.579,172.995,250.967,185.278z"/> <path style="fill:#3B82F6;" d="M172.68,265.116c1.487,5.172,3.103,9.891,4.784,14.158c6.206,1.422,12.606,2.263,19.135,2.263 s12.994-0.84,19.135-2.263c1.681-4.267,3.297-8.986,4.784-14.158L172.68,265.116L172.68,265.116z"/> <path style="fill:#3B82F6;" d="M146.693,265.116c1.422,1.034,2.78,2.004,4.202,2.844c-0.259-1.034-0.517-1.939-0.776-2.844H146.693 z"/> <path style="fill:#3B82F6;" d="M142.426,185.278c0.388-12.347,1.487-24.566,3.297-36.267h-20.04 c-7.111,10.667-11.766,22.949-13.446,36.267H142.426L142.426,185.278z"/> <path style="fill:#3B82F6;" d="M167.832,243.33h57.729c1.875-10.925,3.168-23.014,3.62-36.267h-64.97 C164.664,220.316,165.957,232.405,167.832,243.33z"/> <path style="fill:#3B82F6;" d="M142.426,207.064h-30.19c1.681,13.188,6.4,25.6,13.446,36.267h20.04 C143.977,231.629,142.814,219.476,142.426,207.064z"/> <path style="fill:#3B82F6;" d="M242.628,267.96c1.487-0.905,2.78-1.875,4.202-2.844h-3.426 C243.21,266.021,242.886,266.991,242.628,267.96z"/> <path style="fill:#3B82F6;" d="M150.83,124.381c-1.487,0.905-2.78,1.875-4.202,2.844h3.426 C150.313,126.32,150.636,125.415,150.83,124.381z"/> </g> </g>
</svg>